<mxfile host="Electron" agent="Mozilla/5.0 (Windows NT 10.0; Win64; x64) AppleWebKit/537.36 (KHTML, like Gecko) draw.io/26.0.4 Chrome/128.0.6613.186 Electron/32.2.5 Safari/537.36" version="26.0.4">
  <diagram name="PÃ¡gina-1" id="80VBfrXlZaxt_d6dydT5">
    <mxGraphModel dx="4281" dy="1696" grid="1" gridSize="10" guides="1" tooltips="1" connect="1" arrows="1" fold="1" page="1" pageScale="1" pageWidth="1654" pageHeight="1169" math="0" shadow="0">
      <root>
        <mxCell id="0" />
        <mxCell id="1" parent="0" />
        <mxCell id="dkuEHb9_eLDDzL9_QjhF-8" style="edgeStyle=orthogonalEdgeStyle;rounded=0;orthogonalLoop=1;jettySize=auto;html=1;exitX=1;exitY=0.5;exitDx=0;exitDy=0;entryX=0;entryY=0.5;entryDx=0;entryDy=0;jumpStyle=arc;jumpSize=10;" parent="1" source="dkuEHb9_eLDDzL9_QjhF-1" target="dkuEHb9_eLDDzL9_QjhF-7" edge="1">
          <mxGeometry relative="1" as="geometry" />
        </mxCell>
        <mxCell id="dkuEHb9_eLDDzL9_QjhF-10" style="edgeStyle=orthogonalEdgeStyle;rounded=0;orthogonalLoop=1;jettySize=auto;html=1;exitX=0.5;exitY=1;exitDx=0;exitDy=0;entryX=0.5;entryY=0;entryDx=0;entryDy=0;jumpStyle=arc;jumpSize=10;" parent="1" source="dkuEHb9_eLDDzL9_QjhF-1" target="dkuEHb9_eLDDzL9_QjhF-2" edge="1">
          <mxGeometry relative="1" as="geometry" />
        </mxCell>
        <mxCell id="dkuEHb9_eLDDzL9_QjhF-13" style="edgeStyle=orthogonalEdgeStyle;rounded=0;orthogonalLoop=1;jettySize=auto;html=1;exitX=0.5;exitY=1;exitDx=0;exitDy=0;entryX=1;entryY=0.5;entryDx=0;entryDy=0;jumpStyle=arc;jumpSize=10;" parent="1" source="dkuEHb9_eLDDzL9_QjhF-1" target="dkuEHb9_eLDDzL9_QjhF-4" edge="1">
          <mxGeometry relative="1" as="geometry" />
        </mxCell>
        <mxCell id="dkuEHb9_eLDDzL9_QjhF-14" style="edgeStyle=orthogonalEdgeStyle;rounded=0;orthogonalLoop=1;jettySize=auto;html=1;exitX=0.5;exitY=1;exitDx=0;exitDy=0;entryX=0.5;entryY=0;entryDx=0;entryDy=0;jumpStyle=arc;jumpSize=10;" parent="1" source="dkuEHb9_eLDDzL9_QjhF-1" target="dkuEHb9_eLDDzL9_QjhF-5" edge="1">
          <mxGeometry relative="1" as="geometry" />
        </mxCell>
        <mxCell id="dkuEHb9_eLDDzL9_QjhF-15" style="edgeStyle=orthogonalEdgeStyle;rounded=0;orthogonalLoop=1;jettySize=auto;html=1;exitX=0.5;exitY=1;exitDx=0;exitDy=0;entryX=0.5;entryY=0;entryDx=0;entryDy=0;jumpStyle=arc;jumpSize=10;" parent="1" source="dkuEHb9_eLDDzL9_QjhF-1" target="dkuEHb9_eLDDzL9_QjhF-6" edge="1">
          <mxGeometry relative="1" as="geometry" />
        </mxCell>
        <mxCell id="dkuEHb9_eLDDzL9_QjhF-1" value="index.html" style="html=1;whiteSpace=wrap;fillColor=#ffe6cc;strokeColor=#d79b00;" parent="1" vertex="1">
          <mxGeometry x="-50" y="180" width="110" height="50" as="geometry" />
        </mxCell>
        <mxCell id="dkuEHb9_eLDDzL9_QjhF-11" style="edgeStyle=orthogonalEdgeStyle;rounded=0;orthogonalLoop=1;jettySize=auto;html=1;exitX=0.5;exitY=1;exitDx=0;exitDy=0;entryX=0.5;entryY=0;entryDx=0;entryDy=0;" parent="1" source="dkuEHb9_eLDDzL9_QjhF-2" target="dkuEHb9_eLDDzL9_QjhF-3" edge="1">
          <mxGeometry relative="1" as="geometry" />
        </mxCell>
        <mxCell id="dkuEHb9_eLDDzL9_QjhF-17" style="edgeStyle=orthogonalEdgeStyle;rounded=0;orthogonalLoop=1;jettySize=auto;html=1;exitX=0;exitY=0.5;exitDx=0;exitDy=0;entryX=1;entryY=0.5;entryDx=0;entryDy=0;" parent="1" source="dkuEHb9_eLDDzL9_QjhF-2" target="dkuEHb9_eLDDzL9_QjhF-9" edge="1">
          <mxGeometry relative="1" as="geometry" />
        </mxCell>
        <mxCell id="dkuEHb9_eLDDzL9_QjhF-2" value="pokedex.html" style="html=1;whiteSpace=wrap;fillColor=#ffe6cc;strokeColor=#d79b00;" parent="1" vertex="1">
          <mxGeometry x="-150" y="340" width="110" height="50" as="geometry" />
        </mxCell>
        <mxCell id="dkuEHb9_eLDDzL9_QjhF-12" style="edgeStyle=orthogonalEdgeStyle;rounded=0;orthogonalLoop=1;jettySize=auto;html=1;exitX=0.5;exitY=1;exitDx=0;exitDy=0;entryX=0.5;entryY=0;entryDx=0;entryDy=0;" parent="1" source="dkuEHb9_eLDDzL9_QjhF-3" target="dkuEHb9_eLDDzL9_QjhF-4" edge="1">
          <mxGeometry relative="1" as="geometry" />
        </mxCell>
        <mxCell id="dkuEHb9_eLDDzL9_QjhF-20" style="edgeStyle=orthogonalEdgeStyle;rounded=0;orthogonalLoop=1;jettySize=auto;html=1;exitX=0;exitY=0.5;exitDx=0;exitDy=0;entryX=1;entryY=0.5;entryDx=0;entryDy=0;" parent="1" source="dkuEHb9_eLDDzL9_QjhF-3" target="dkuEHb9_eLDDzL9_QjhF-19" edge="1">
          <mxGeometry relative="1" as="geometry" />
        </mxCell>
        <mxCell id="dkuEHb9_eLDDzL9_QjhF-3" value="detalle.html" style="html=1;whiteSpace=wrap;fillColor=#ffe6cc;strokeColor=#d79b00;" parent="1" vertex="1">
          <mxGeometry x="-150" y="450" width="110" height="50" as="geometry" />
        </mxCell>
        <mxCell id="dkuEHb9_eLDDzL9_QjhF-23" style="edgeStyle=orthogonalEdgeStyle;rounded=0;orthogonalLoop=1;jettySize=auto;html=1;exitX=0;exitY=0.5;exitDx=0;exitDy=0;entryX=1;entryY=0.5;entryDx=0;entryDy=0;" parent="1" source="dkuEHb9_eLDDzL9_QjhF-4" target="dkuEHb9_eLDDzL9_QjhF-21" edge="1">
          <mxGeometry relative="1" as="geometry" />
        </mxCell>
        <mxCell id="dkuEHb9_eLDDzL9_QjhF-4" value="comparador.html" style="html=1;whiteSpace=wrap;fillColor=#ffe6cc;strokeColor=#d79b00;" parent="1" vertex="1">
          <mxGeometry x="-150" y="560" width="110" height="50" as="geometry" />
        </mxCell>
        <mxCell id="dkuEHb9_eLDDzL9_QjhF-25" style="edgeStyle=orthogonalEdgeStyle;rounded=0;orthogonalLoop=1;jettySize=auto;html=1;exitX=0.5;exitY=1;exitDx=0;exitDy=0;entryX=0.5;entryY=0;entryDx=0;entryDy=0;" parent="1" source="dkuEHb9_eLDDzL9_QjhF-5" target="dkuEHb9_eLDDzL9_QjhF-24" edge="1">
          <mxGeometry relative="1" as="geometry" />
        </mxCell>
        <mxCell id="dkuEHb9_eLDDzL9_QjhF-5" value="equipos.html" style="html=1;whiteSpace=wrap;fillColor=#ffe6cc;strokeColor=#d79b00;" parent="1" vertex="1">
          <mxGeometry x="60" y="360" width="110" height="50" as="geometry" />
        </mxCell>
        <mxCell id="m28JvNQTBr0kOilScQr_-10" style="edgeStyle=orthogonalEdgeStyle;rounded=0;orthogonalLoop=1;jettySize=auto;html=1;exitX=0.5;exitY=1;exitDx=0;exitDy=0;entryX=0.5;entryY=0;entryDx=0;entryDy=0;" edge="1" parent="1" source="dkuEHb9_eLDDzL9_QjhF-6" target="dkuEHb9_eLDDzL9_QjhF-78">
          <mxGeometry relative="1" as="geometry" />
        </mxCell>
        <mxCell id="dkuEHb9_eLDDzL9_QjhF-6" value="jugar.html" style="html=1;whiteSpace=wrap;fillColor=#ffe6cc;strokeColor=#d79b00;" parent="1" vertex="1">
          <mxGeometry x="190" y="360" width="110" height="50" as="geometry" />
        </mxCell>
        <mxCell id="m28JvNQTBr0kOilScQr_-11" style="edgeStyle=orthogonalEdgeStyle;rounded=0;orthogonalLoop=1;jettySize=auto;html=1;exitX=0.5;exitY=0;exitDx=0;exitDy=0;entryX=1;entryY=0.5;entryDx=0;entryDy=0;jumpStyle=arc;jumpSize=10;" edge="1" parent="1" source="dkuEHb9_eLDDzL9_QjhF-7" target="Ck-phii_mFnEi6swG2RC-6">
          <mxGeometry relative="1" as="geometry">
            <Array as="points">
              <mxPoint x="165" y="140" />
              <mxPoint x="-490" y="140" />
              <mxPoint x="-490" y="395" />
            </Array>
          </mxGeometry>
        </mxCell>
        <mxCell id="m28JvNQTBr0kOilScQr_-12" style="edgeStyle=orthogonalEdgeStyle;rounded=0;orthogonalLoop=1;jettySize=auto;html=1;exitX=0.25;exitY=0;exitDx=0;exitDy=0;entryX=1;entryY=0.5;entryDx=0;entryDy=0;jumpStyle=arc;jumpSize=10;" edge="1" parent="1" source="dkuEHb9_eLDDzL9_QjhF-7" target="dkuEHb9_eLDDzL9_QjhF-31">
          <mxGeometry relative="1" as="geometry">
            <Array as="points">
              <mxPoint x="138" y="160" />
              <mxPoint x="-90" y="160" />
              <mxPoint x="-90" y="215" />
            </Array>
          </mxGeometry>
        </mxCell>
        <mxCell id="dkuEHb9_eLDDzL9_QjhF-7" value="carrusel.js" style="html=1;whiteSpace=wrap;fillColor=#fff2cc;strokeColor=#d6b656;" parent="1" vertex="1">
          <mxGeometry x="110" y="180" width="110" height="50" as="geometry" />
        </mxCell>
        <mxCell id="dkuEHb9_eLDDzL9_QjhF-68" style="edgeStyle=orthogonalEdgeStyle;rounded=0;orthogonalLoop=1;jettySize=auto;html=1;exitX=0;exitY=0.25;exitDx=0;exitDy=0;entryX=1;entryY=0.5;entryDx=0;entryDy=0;jumpStyle=arc;" parent="1" source="dkuEHb9_eLDDzL9_QjhF-9" target="dkuEHb9_eLDDzL9_QjhF-31" edge="1">
          <mxGeometry relative="1" as="geometry">
            <Array as="points">
              <mxPoint x="-340" y="353" />
              <mxPoint x="-340" y="215" />
            </Array>
          </mxGeometry>
        </mxCell>
        <mxCell id="dkuEHb9_eLDDzL9_QjhF-77" style="edgeStyle=orthogonalEdgeStyle;rounded=0;orthogonalLoop=1;jettySize=auto;html=1;exitX=0;exitY=0.75;exitDx=0;exitDy=0;entryX=1;entryY=0.5;entryDx=0;entryDy=0;jumpStyle=arc;jumpSize=10;" parent="1" source="dkuEHb9_eLDDzL9_QjhF-9" target="dkuEHb9_eLDDzL9_QjhF-36" edge="1">
          <mxGeometry relative="1" as="geometry">
            <Array as="points">
              <mxPoint x="-360" y="378" />
              <mxPoint x="-360" y="305" />
            </Array>
          </mxGeometry>
        </mxCell>
        <mxCell id="m28JvNQTBr0kOilScQr_-6" style="edgeStyle=orthogonalEdgeStyle;rounded=0;orthogonalLoop=1;jettySize=auto;html=1;exitX=0;exitY=0.5;exitDx=0;exitDy=0;entryX=1;entryY=0.5;entryDx=0;entryDy=0;jumpStyle=arc;jumpSize=10;" edge="1" parent="1" source="dkuEHb9_eLDDzL9_QjhF-9" target="Ck-phii_mFnEi6swG2RC-6">
          <mxGeometry relative="1" as="geometry" />
        </mxCell>
        <mxCell id="dkuEHb9_eLDDzL9_QjhF-9" value="pokedex.js" style="html=1;whiteSpace=wrap;fillColor=#fff2cc;strokeColor=#d6b656;" parent="1" vertex="1">
          <mxGeometry x="-320" y="340" width="110" height="50" as="geometry" />
        </mxCell>
        <mxCell id="dkuEHb9_eLDDzL9_QjhF-70" style="edgeStyle=orthogonalEdgeStyle;rounded=0;orthogonalLoop=1;jettySize=auto;html=1;exitX=0;exitY=0.25;exitDx=0;exitDy=0;entryX=1;entryY=0.5;entryDx=0;entryDy=0;jumpStyle=arc;jumpSize=10;" parent="1" source="dkuEHb9_eLDDzL9_QjhF-19" target="dkuEHb9_eLDDzL9_QjhF-31" edge="1">
          <mxGeometry relative="1" as="geometry">
            <Array as="points">
              <mxPoint x="-380" y="463" />
              <mxPoint x="-380" y="215" />
            </Array>
          </mxGeometry>
        </mxCell>
        <mxCell id="dkuEHb9_eLDDzL9_QjhF-71" style="edgeStyle=orthogonalEdgeStyle;rounded=0;orthogonalLoop=1;jettySize=auto;html=1;exitX=0;exitY=0.5;exitDx=0;exitDy=0;entryX=1;entryY=0.5;entryDx=0;entryDy=0;jumpStyle=arc;jumpSize=10;" parent="1" source="dkuEHb9_eLDDzL9_QjhF-19" target="dkuEHb9_eLDDzL9_QjhF-36" edge="1">
          <mxGeometry relative="1" as="geometry">
            <Array as="points">
              <mxPoint x="-400" y="475" />
              <mxPoint x="-400" y="305" />
            </Array>
          </mxGeometry>
        </mxCell>
        <mxCell id="dkuEHb9_eLDDzL9_QjhF-75" style="edgeStyle=orthogonalEdgeStyle;rounded=0;orthogonalLoop=1;jettySize=auto;html=1;exitX=0;exitY=0.75;exitDx=0;exitDy=0;entryX=0.5;entryY=0;entryDx=0;entryDy=0;jumpStyle=arc;jumpSize=10;" parent="1" source="dkuEHb9_eLDDzL9_QjhF-19" target="dkuEHb9_eLDDzL9_QjhF-39" edge="1">
          <mxGeometry relative="1" as="geometry" />
        </mxCell>
        <mxCell id="m28JvNQTBr0kOilScQr_-7" style="edgeStyle=orthogonalEdgeStyle;rounded=0;orthogonalLoop=1;jettySize=auto;html=1;exitX=0;exitY=0;exitDx=0;exitDy=0;entryX=1;entryY=0.5;entryDx=0;entryDy=0;jumpStyle=arc;jumpSize=10;" edge="1" parent="1" source="dkuEHb9_eLDDzL9_QjhF-19" target="Ck-phii_mFnEi6swG2RC-6">
          <mxGeometry relative="1" as="geometry">
            <Array as="points">
              <mxPoint x="-340" y="450" />
              <mxPoint x="-340" y="395" />
            </Array>
          </mxGeometry>
        </mxCell>
        <mxCell id="dkuEHb9_eLDDzL9_QjhF-19" value="detalle.js" style="html=1;whiteSpace=wrap;fillColor=#fff2cc;strokeColor=#d6b656;" parent="1" vertex="1">
          <mxGeometry x="-320" y="450" width="110" height="50" as="geometry" />
        </mxCell>
        <mxCell id="dkuEHb9_eLDDzL9_QjhF-73" style="edgeStyle=orthogonalEdgeStyle;rounded=0;orthogonalLoop=1;jettySize=auto;html=1;exitX=0;exitY=0.25;exitDx=0;exitDy=0;entryX=1;entryY=0.5;entryDx=0;entryDy=0;jumpStyle=arc;jumpSize=10;" parent="1" source="dkuEHb9_eLDDzL9_QjhF-21" target="dkuEHb9_eLDDzL9_QjhF-31" edge="1">
          <mxGeometry relative="1" as="geometry">
            <Array as="points">
              <mxPoint x="-420" y="573" />
              <mxPoint x="-420" y="215" />
            </Array>
          </mxGeometry>
        </mxCell>
        <mxCell id="dkuEHb9_eLDDzL9_QjhF-74" style="edgeStyle=orthogonalEdgeStyle;rounded=0;orthogonalLoop=1;jettySize=auto;html=1;exitX=0;exitY=0.5;exitDx=0;exitDy=0;entryX=1;entryY=0.5;entryDx=0;entryDy=0;jumpStyle=arc;jumpSize=10;" parent="1" source="dkuEHb9_eLDDzL9_QjhF-21" target="dkuEHb9_eLDDzL9_QjhF-36" edge="1">
          <mxGeometry relative="1" as="geometry">
            <Array as="points">
              <mxPoint x="-440" y="585" />
              <mxPoint x="-440" y="305" />
            </Array>
          </mxGeometry>
        </mxCell>
        <mxCell id="dkuEHb9_eLDDzL9_QjhF-76" style="edgeStyle=orthogonalEdgeStyle;rounded=0;orthogonalLoop=1;jettySize=auto;html=1;exitX=0;exitY=0.75;exitDx=0;exitDy=0;entryX=0.5;entryY=0;entryDx=0;entryDy=0;jumpStyle=arc;jumpSize=10;" parent="1" source="dkuEHb9_eLDDzL9_QjhF-21" target="dkuEHb9_eLDDzL9_QjhF-39" edge="1">
          <mxGeometry relative="1" as="geometry" />
        </mxCell>
        <mxCell id="m28JvNQTBr0kOilScQr_-8" style="edgeStyle=orthogonalEdgeStyle;rounded=0;orthogonalLoop=1;jettySize=auto;html=1;exitX=0;exitY=0;exitDx=0;exitDy=0;entryX=1;entryY=0.5;entryDx=0;entryDy=0;jumpStyle=arc;jumpSize=10;" edge="1" parent="1" source="dkuEHb9_eLDDzL9_QjhF-21" target="Ck-phii_mFnEi6swG2RC-6">
          <mxGeometry relative="1" as="geometry">
            <Array as="points">
              <mxPoint x="-360" y="560" />
              <mxPoint x="-360" y="395" />
            </Array>
          </mxGeometry>
        </mxCell>
        <mxCell id="dkuEHb9_eLDDzL9_QjhF-21" value="comparador.js" style="html=1;whiteSpace=wrap;fillColor=#fff2cc;strokeColor=#d6b656;" parent="1" vertex="1">
          <mxGeometry x="-320" y="560" width="110" height="50" as="geometry" />
        </mxCell>
        <mxCell id="m28JvNQTBr0kOilScQr_-9" style="edgeStyle=orthogonalEdgeStyle;rounded=0;orthogonalLoop=1;jettySize=auto;html=1;exitX=0.5;exitY=1;exitDx=0;exitDy=0;entryX=0.5;entryY=0;entryDx=0;entryDy=0;" edge="1" parent="1" source="dkuEHb9_eLDDzL9_QjhF-24" target="dkuEHb9_eLDDzL9_QjhF-78">
          <mxGeometry relative="1" as="geometry" />
        </mxCell>
        <mxCell id="dkuEHb9_eLDDzL9_QjhF-24" value="equipos.js" style="html=1;whiteSpace=wrap;fillColor=#fff2cc;strokeColor=#d6b656;" parent="1" vertex="1">
          <mxGeometry x="60" y="450" width="110" height="50" as="geometry" />
        </mxCell>
        <mxCell id="dkuEHb9_eLDDzL9_QjhF-29" style="edgeStyle=orthogonalEdgeStyle;rounded=0;orthogonalLoop=1;jettySize=auto;html=1;exitX=0.5;exitY=1;exitDx=0;exitDy=0;exitPerimeter=0;entryX=0.5;entryY=0;entryDx=0;entryDy=0;" parent="1" source="dkuEHb9_eLDDzL9_QjhF-26" target="dkuEHb9_eLDDzL9_QjhF-27" edge="1">
          <mxGeometry relative="1" as="geometry" />
        </mxCell>
        <mxCell id="dkuEHb9_eLDDzL9_QjhF-30" style="edgeStyle=orthogonalEdgeStyle;rounded=0;orthogonalLoop=1;jettySize=auto;html=1;exitX=0.5;exitY=1;exitDx=0;exitDy=0;exitPerimeter=0;entryX=0.5;entryY=0;entryDx=0;entryDy=0;" parent="1" source="dkuEHb9_eLDDzL9_QjhF-26" target="dkuEHb9_eLDDzL9_QjhF-28" edge="1">
          <mxGeometry relative="1" as="geometry" />
        </mxCell>
        <mxCell id="dkuEHb9_eLDDzL9_QjhF-26" value="&lt;div&gt;Local&lt;/div&gt;" style="strokeWidth=2;html=1;shape=mxgraph.flowchart.database;whiteSpace=wrap;fillColor=#d5e8d4;strokeColor=#82b366;" parent="1" vertex="1">
          <mxGeometry x="-929" y="500" width="60" height="60" as="geometry" />
        </mxCell>
        <mxCell id="dkuEHb9_eLDDzL9_QjhF-56" style="edgeStyle=orthogonalEdgeStyle;rounded=0;orthogonalLoop=1;jettySize=auto;html=1;exitX=0.5;exitY=1;exitDx=0;exitDy=0;" parent="1" source="dkuEHb9_eLDDzL9_QjhF-27" target="dkuEHb9_eLDDzL9_QjhF-55" edge="1">
          <mxGeometry relative="1" as="geometry" />
        </mxCell>
        <mxCell id="dkuEHb9_eLDDzL9_QjhF-27" value="IndexedDB" style="html=1;whiteSpace=wrap;fillColor=#d5e8d4;strokeColor=#82b366;" parent="1" vertex="1">
          <mxGeometry x="-1049" y="620" width="110" height="50" as="geometry" />
        </mxCell>
        <mxCell id="dkuEHb9_eLDDzL9_QjhF-85" style="edgeStyle=orthogonalEdgeStyle;rounded=0;orthogonalLoop=1;jettySize=auto;html=1;exitX=0.5;exitY=1;exitDx=0;exitDy=0;entryX=0.5;entryY=0;entryDx=0;entryDy=0;" parent="1" source="dkuEHb9_eLDDzL9_QjhF-28" target="dkuEHb9_eLDDzL9_QjhF-84" edge="1">
          <mxGeometry relative="1" as="geometry" />
        </mxCell>
        <mxCell id="dkuEHb9_eLDDzL9_QjhF-28" value="LocalStorage" style="html=1;whiteSpace=wrap;fillColor=#d5e8d4;strokeColor=#82b366;" parent="1" vertex="1">
          <mxGeometry x="-860" y="620" width="110" height="50" as="geometry" />
        </mxCell>
        <mxCell id="dkuEHb9_eLDDzL9_QjhF-59" style="edgeStyle=orthogonalEdgeStyle;rounded=0;orthogonalLoop=1;jettySize=auto;html=1;exitX=0.5;exitY=1;exitDx=0;exitDy=0;entryX=0.5;entryY=0;entryDx=0;entryDy=0;" parent="1" source="dkuEHb9_eLDDzL9_QjhF-31" target="dkuEHb9_eLDDzL9_QjhF-36" edge="1">
          <mxGeometry relative="1" as="geometry" />
        </mxCell>
        <mxCell id="m28JvNQTBr0kOilScQr_-13" style="edgeStyle=orthogonalEdgeStyle;rounded=0;orthogonalLoop=1;jettySize=auto;html=1;exitX=0;exitY=0.5;exitDx=0;exitDy=0;entryX=0.5;entryY=0;entryDx=0;entryDy=0;jumpStyle=arc;jumpSize=10;" edge="1" parent="1" source="dkuEHb9_eLDDzL9_QjhF-31" target="Ck-phii_mFnEi6swG2RC-4">
          <mxGeometry relative="1" as="geometry" />
        </mxCell>
        <mxCell id="m28JvNQTBr0kOilScQr_-14" style="edgeStyle=orthogonalEdgeStyle;rounded=0;orthogonalLoop=1;jettySize=auto;html=1;exitX=0;exitY=0.75;exitDx=0;exitDy=0;entryX=0.5;entryY=0;entryDx=0;entryDy=0;jumpStyle=arc;jumpSize=10;" edge="1" parent="1" source="dkuEHb9_eLDDzL9_QjhF-31" target="dkuEHb9_eLDDzL9_QjhF-39">
          <mxGeometry relative="1" as="geometry">
            <Array as="points">
              <mxPoint x="-730" y="227" />
              <mxPoint x="-730" y="525" />
              <mxPoint x="-465" y="525" />
            </Array>
          </mxGeometry>
        </mxCell>
        <mxCell id="dkuEHb9_eLDDzL9_QjhF-31" value="main.js" style="html=1;whiteSpace=wrap;fillColor=#fff2cc;strokeColor=#d6b656;" parent="1" vertex="1">
          <mxGeometry x="-695.5" y="189.5" width="110" height="50" as="geometry" />
        </mxCell>
        <mxCell id="dkuEHb9_eLDDzL9_QjhF-36" value="utils.js" style="html=1;whiteSpace=wrap;fillColor=#f8cecc;strokeColor=#b85450;" parent="1" vertex="1">
          <mxGeometry x="-695" y="280" width="110" height="50" as="geometry" />
        </mxCell>
        <mxCell id="dkuEHb9_eLDDzL9_QjhF-37" value="PokeAPI" style="outlineConnect=0;dashed=0;verticalLabelPosition=bottom;verticalAlign=top;align=center;html=1;shape=mxgraph.aws3.internet;fillColor=#e1d5e7;strokeColor=#9673a6;" parent="1" vertex="1">
          <mxGeometry x="-619" y="17" width="113" height="113" as="geometry" />
        </mxCell>
        <mxCell id="dkuEHb9_eLDDzL9_QjhF-38" style="edgeStyle=orthogonalEdgeStyle;rounded=0;orthogonalLoop=1;jettySize=auto;html=1;exitX=0.5;exitY=0;exitDx=0;exitDy=0;entryX=0;entryY=0.47;entryDx=0;entryDy=0;entryPerimeter=0;startArrow=classic;startFill=1;" parent="1" source="dkuEHb9_eLDDzL9_QjhF-31" target="dkuEHb9_eLDDzL9_QjhF-37" edge="1">
          <mxGeometry relative="1" as="geometry" />
        </mxCell>
        <mxCell id="dkuEHb9_eLDDzL9_QjhF-39" value="Pokemon" style="swimlane;fontStyle=1;align=center;verticalAlign=top;childLayout=stackLayout;horizontal=1;startSize=26;horizontalStack=0;resizeParent=1;resizeParentMax=0;resizeLast=0;collapsible=1;marginBottom=0;whiteSpace=wrap;html=1;fillColor=#dae8fc;strokeColor=#6c8ebf;swimlaneFillColor=default;" parent="1" vertex="1">
          <mxGeometry x="-585" y="690" width="240" height="372" as="geometry" />
        </mxCell>
        <mxCell id="dkuEHb9_eLDDzL9_QjhF-40" value="+ id: number" style="text;strokeColor=none;fillColor=none;align=left;verticalAlign=top;spacingLeft=4;spacingRight=4;overflow=hidden;rotatable=0;points=[[0,0.5],[1,0.5]];portConstraint=eastwest;whiteSpace=wrap;html=1;" parent="dkuEHb9_eLDDzL9_QjhF-39" vertex="1">
          <mxGeometry y="26" width="240" height="26" as="geometry" />
        </mxCell>
        <mxCell id="dkuEHb9_eLDDzL9_QjhF-44" value="+ name: string" style="text;strokeColor=none;fillColor=none;align=left;verticalAlign=top;spacingLeft=4;spacingRight=4;overflow=hidden;rotatable=0;points=[[0,0.5],[1,0.5]];portConstraint=eastwest;whiteSpace=wrap;html=1;" parent="dkuEHb9_eLDDzL9_QjhF-39" vertex="1">
          <mxGeometry y="52" width="240" height="26" as="geometry" />
        </mxCell>
        <mxCell id="dkuEHb9_eLDDzL9_QjhF-45" value="+ types: array" style="text;strokeColor=none;fillColor=none;align=left;verticalAlign=top;spacingLeft=4;spacingRight=4;overflow=hidden;rotatable=0;points=[[0,0.5],[1,0.5]];portConstraint=eastwest;whiteSpace=wrap;html=1;" parent="dkuEHb9_eLDDzL9_QjhF-39" vertex="1">
          <mxGeometry y="78" width="240" height="26" as="geometry" />
        </mxCell>
        <mxCell id="dkuEHb9_eLDDzL9_QjhF-46" value="+ abilities: array" style="text;strokeColor=none;fillColor=none;align=left;verticalAlign=top;spacingLeft=4;spacingRight=4;overflow=hidden;rotatable=0;points=[[0,0.5],[1,0.5]];portConstraint=eastwest;whiteSpace=wrap;html=1;" parent="dkuEHb9_eLDDzL9_QjhF-39" vertex="1">
          <mxGeometry y="104" width="240" height="26" as="geometry" />
        </mxCell>
        <mxCell id="dkuEHb9_eLDDzL9_QjhF-47" value="+ stats: array" style="text;strokeColor=none;fillColor=none;align=left;verticalAlign=top;spacingLeft=4;spacingRight=4;overflow=hidden;rotatable=0;points=[[0,0.5],[1,0.5]];portConstraint=eastwest;whiteSpace=wrap;html=1;" parent="dkuEHb9_eLDDzL9_QjhF-39" vertex="1">
          <mxGeometry y="130" width="240" height="26" as="geometry" />
        </mxCell>
        <mxCell id="dkuEHb9_eLDDzL9_QjhF-48" value="+ sprites: obj" style="text;strokeColor=none;fillColor=none;align=left;verticalAlign=top;spacingLeft=4;spacingRight=4;overflow=hidden;rotatable=0;points=[[0,0.5],[1,0.5]];portConstraint=eastwest;whiteSpace=wrap;html=1;" parent="dkuEHb9_eLDDzL9_QjhF-39" vertex="1">
          <mxGeometry y="156" width="240" height="26" as="geometry" />
        </mxCell>
        <mxCell id="dkuEHb9_eLDDzL9_QjhF-49" value="+ generation: string" style="text;strokeColor=none;fillColor=none;align=left;verticalAlign=top;spacingLeft=4;spacingRight=4;overflow=hidden;rotatable=0;points=[[0,0.5],[1,0.5]];portConstraint=eastwest;whiteSpace=wrap;html=1;" parent="dkuEHb9_eLDDzL9_QjhF-39" vertex="1">
          <mxGeometry y="182" width="240" height="26" as="geometry" />
        </mxCell>
        <mxCell id="dkuEHb9_eLDDzL9_QjhF-50" value="+ height: number" style="text;strokeColor=none;fillColor=none;align=left;verticalAlign=top;spacingLeft=4;spacingRight=4;overflow=hidden;rotatable=0;points=[[0,0.5],[1,0.5]];portConstraint=eastwest;whiteSpace=wrap;html=1;" parent="dkuEHb9_eLDDzL9_QjhF-39" vertex="1">
          <mxGeometry y="208" width="240" height="26" as="geometry" />
        </mxCell>
        <mxCell id="dkuEHb9_eLDDzL9_QjhF-51" value="+ weight: number" style="text;strokeColor=none;fillColor=none;align=left;verticalAlign=top;spacingLeft=4;spacingRight=4;overflow=hidden;rotatable=0;points=[[0,0.5],[1,0.5]];portConstraint=eastwest;whiteSpace=wrap;html=1;" parent="dkuEHb9_eLDDzL9_QjhF-39" vertex="1">
          <mxGeometry y="234" width="240" height="26" as="geometry" />
        </mxCell>
        <mxCell id="dkuEHb9_eLDDzL9_QjhF-41" value="" style="line;strokeWidth=1;fillColor=none;align=left;verticalAlign=middle;spacingTop=-1;spacingLeft=3;spacingRight=3;rotatable=0;labelPosition=right;points=[];portConstraint=eastwest;strokeColor=inherit;" parent="dkuEHb9_eLDDzL9_QjhF-39" vertex="1">
          <mxGeometry y="260" width="240" height="8" as="geometry" />
        </mxCell>
        <mxCell id="dkuEHb9_eLDDzL9_QjhF-42" value="+ getFormattedTypes(): array" style="text;strokeColor=none;fillColor=none;align=left;verticalAlign=top;spacingLeft=4;spacingRight=4;overflow=hidden;rotatable=0;points=[[0,0.5],[1,0.5]];portConstraint=eastwest;whiteSpace=wrap;html=1;" parent="dkuEHb9_eLDDzL9_QjhF-39" vertex="1">
          <mxGeometry y="268" width="240" height="26" as="geometry" />
        </mxCell>
        <mxCell id="dkuEHb9_eLDDzL9_QjhF-52" value="+ getFormattedStats(): array" style="text;strokeColor=none;fillColor=none;align=left;verticalAlign=top;spacingLeft=4;spacingRight=4;overflow=hidden;rotatable=0;points=[[0,0.5],[1,0.5]];portConstraint=eastwest;whiteSpace=wrap;html=1;" parent="dkuEHb9_eLDDzL9_QjhF-39" vertex="1">
          <mxGeometry y="294" width="240" height="26" as="geometry" />
        </mxCell>
        <mxCell id="dkuEHb9_eLDDzL9_QjhF-53" value="+ getAbilities(): array" style="text;strokeColor=none;fillColor=none;align=left;verticalAlign=top;spacingLeft=4;spacingRight=4;overflow=hidden;rotatable=0;points=[[0,0.5],[1,0.5]];portConstraint=eastwest;whiteSpace=wrap;html=1;" parent="dkuEHb9_eLDDzL9_QjhF-39" vertex="1">
          <mxGeometry y="320" width="240" height="26" as="geometry" />
        </mxCell>
        <mxCell id="dkuEHb9_eLDDzL9_QjhF-54" value="+ getAverageStats(): number" style="text;strokeColor=none;fillColor=none;align=left;verticalAlign=top;spacingLeft=4;spacingRight=4;overflow=hidden;rotatable=0;points=[[0,0.5],[1,0.5]];portConstraint=eastwest;whiteSpace=wrap;html=1;" parent="dkuEHb9_eLDDzL9_QjhF-39" vertex="1">
          <mxGeometry y="346" width="240" height="26" as="geometry" />
        </mxCell>
        <mxCell id="dkuEHb9_eLDDzL9_QjhF-58" style="edgeStyle=orthogonalEdgeStyle;rounded=0;orthogonalLoop=1;jettySize=auto;html=1;exitX=0.5;exitY=1;exitDx=0;exitDy=0;entryX=0.5;entryY=0;entryDx=0;entryDy=0;" parent="1" source="dkuEHb9_eLDDzL9_QjhF-55" target="dkuEHb9_eLDDzL9_QjhF-57" edge="1">
          <mxGeometry relative="1" as="geometry" />
        </mxCell>
        <mxCell id="dkuEHb9_eLDDzL9_QjhF-55" value="PokemonDB" style="html=1;whiteSpace=wrap;fillColor=#d5e8d4;strokeColor=#82b366;" parent="1" vertex="1">
          <mxGeometry x="-1049" y="700" width="110" height="50" as="geometry" />
        </mxCell>
        <mxCell id="dkuEHb9_eLDDzL9_QjhF-63" style="edgeStyle=orthogonalEdgeStyle;rounded=0;orthogonalLoop=1;jettySize=auto;html=1;exitX=0.5;exitY=1;exitDx=0;exitDy=0;entryX=0.5;entryY=0;entryDx=0;entryDy=0;" parent="1" source="dkuEHb9_eLDDzL9_QjhF-57" target="dkuEHb9_eLDDzL9_QjhF-62" edge="1">
          <mxGeometry relative="1" as="geometry" />
        </mxCell>
        <mxCell id="dkuEHb9_eLDDzL9_QjhF-88" style="edgeStyle=orthogonalEdgeStyle;rounded=0;orthogonalLoop=1;jettySize=auto;html=1;exitX=0;exitY=0.5;exitDx=0;exitDy=0;entryX=1;entryY=0.5;entryDx=0;entryDy=0;" parent="1" source="dkuEHb9_eLDDzL9_QjhF-57" target="dkuEHb9_eLDDzL9_QjhF-87" edge="1">
          <mxGeometry relative="1" as="geometry" />
        </mxCell>
        <mxCell id="dkuEHb9_eLDDzL9_QjhF-57" value="generaciones" style="html=1;whiteSpace=wrap;fillColor=#d5e8d4;strokeColor=#82b366;" parent="1" vertex="1">
          <mxGeometry x="-1049" y="780" width="110" height="50" as="geometry" />
        </mxCell>
        <mxCell id="dkuEHb9_eLDDzL9_QjhF-90" style="edgeStyle=orthogonalEdgeStyle;rounded=0;orthogonalLoop=1;jettySize=auto;html=1;exitX=0;exitY=0.5;exitDx=0;exitDy=0;entryX=1;entryY=0.5;entryDx=0;entryDy=0;" parent="1" source="dkuEHb9_eLDDzL9_QjhF-62" target="m28JvNQTBr0kOilScQr_-1" edge="1">
          <mxGeometry relative="1" as="geometry">
            <mxPoint x="-1131.92" y="965" as="targetPoint" />
          </mxGeometry>
        </mxCell>
        <mxCell id="dkuEHb9_eLDDzL9_QjhF-62" value="generation: string&lt;br&gt;pokemons: array" style="html=1;whiteSpace=wrap;fillColor=#d5e8d4;strokeColor=#82b366;" parent="1" vertex="1">
          <mxGeometry x="-1049" y="860" width="110" height="50" as="geometry" />
        </mxCell>
        <mxCell id="dkuEHb9_eLDDzL9_QjhF-78" value="Equipo" style="swimlane;fontStyle=1;align=center;verticalAlign=top;childLayout=stackLayout;horizontal=1;startSize=26;horizontalStack=0;resizeParent=1;resizeParentMax=0;resizeLast=0;collapsible=1;marginBottom=0;whiteSpace=wrap;html=1;fillColor=#dae8fc;strokeColor=#6c8ebf;swimlaneFillColor=default;" parent="1" vertex="1">
          <mxGeometry x="60" y="690" width="210" height="216" as="geometry" />
        </mxCell>
        <mxCell id="dkuEHb9_eLDDzL9_QjhF-79" value="+ nombre: string" style="text;strokeColor=none;fillColor=none;align=left;verticalAlign=top;spacingLeft=4;spacingRight=4;overflow=hidden;rotatable=0;points=[[0,0.5],[1,0.5]];portConstraint=eastwest;whiteSpace=wrap;html=1;" parent="dkuEHb9_eLDDzL9_QjhF-78" vertex="1">
          <mxGeometry y="26" width="210" height="26" as="geometry" />
        </mxCell>
        <mxCell id="dkuEHb9_eLDDzL9_QjhF-82" value="+ pokemons: array" style="text;strokeColor=none;fillColor=none;align=left;verticalAlign=top;spacingLeft=4;spacingRight=4;overflow=hidden;rotatable=0;points=[[0,0.5],[1,0.5]];portConstraint=eastwest;whiteSpace=wrap;html=1;" parent="dkuEHb9_eLDDzL9_QjhF-78" vertex="1">
          <mxGeometry y="52" width="210" height="26" as="geometry" />
        </mxCell>
        <mxCell id="dkuEHb9_eLDDzL9_QjhF-80" value="" style="line;strokeWidth=1;fillColor=none;align=left;verticalAlign=middle;spacingTop=-1;spacingLeft=3;spacingRight=3;rotatable=0;labelPosition=right;points=[];portConstraint=eastwest;strokeColor=inherit;" parent="dkuEHb9_eLDDzL9_QjhF-78" vertex="1">
          <mxGeometry y="78" width="210" height="8" as="geometry" />
        </mxCell>
        <mxCell id="dkuEHb9_eLDDzL9_QjhF-81" value="+ agregarPokemon(pokemon): void" style="text;strokeColor=none;fillColor=none;align=left;verticalAlign=top;spacingLeft=4;spacingRight=4;overflow=hidden;rotatable=0;points=[[0,0.5],[1,0.5]];portConstraint=eastwest;whiteSpace=wrap;html=1;" parent="dkuEHb9_eLDDzL9_QjhF-78" vertex="1">
          <mxGeometry y="86" width="210" height="26" as="geometry" />
        </mxCell>
        <mxCell id="dkuEHb9_eLDDzL9_QjhF-83" value="+ eliminarPokemon(pokemon): void" style="text;strokeColor=none;fillColor=none;align=left;verticalAlign=top;spacingLeft=4;spacingRight=4;overflow=hidden;rotatable=0;points=[[0,0.5],[1,0.5]];portConstraint=eastwest;whiteSpace=wrap;html=1;" parent="dkuEHb9_eLDDzL9_QjhF-78" vertex="1">
          <mxGeometry y="112" width="210" height="26" as="geometry" />
        </mxCell>
        <mxCell id="Ck-phii_mFnEi6swG2RC-1" value="+ obtenerDetalles: string" style="text;strokeColor=none;fillColor=none;align=left;verticalAlign=top;spacingLeft=4;spacingRight=4;overflow=hidden;rotatable=0;points=[[0,0.5],[1,0.5]];portConstraint=eastwest;whiteSpace=wrap;html=1;" vertex="1" parent="dkuEHb9_eLDDzL9_QjhF-78">
          <mxGeometry y="138" width="210" height="26" as="geometry" />
        </mxCell>
        <mxCell id="Ck-phii_mFnEi6swG2RC-2" value="+ limpiarEquipo: void" style="text;strokeColor=none;fillColor=none;align=left;verticalAlign=top;spacingLeft=4;spacingRight=4;overflow=hidden;rotatable=0;points=[[0,0.5],[1,0.5]];portConstraint=eastwest;whiteSpace=wrap;html=1;" vertex="1" parent="dkuEHb9_eLDDzL9_QjhF-78">
          <mxGeometry y="164" width="210" height="26" as="geometry" />
        </mxCell>
        <mxCell id="Ck-phii_mFnEi6swG2RC-3" value="+ equipoCompleto: boolean" style="text;strokeColor=none;fillColor=none;align=left;verticalAlign=top;spacingLeft=4;spacingRight=4;overflow=hidden;rotatable=0;points=[[0,0.5],[1,0.5]];portConstraint=eastwest;whiteSpace=wrap;html=1;" vertex="1" parent="dkuEHb9_eLDDzL9_QjhF-78">
          <mxGeometry y="190" width="210" height="26" as="geometry" />
        </mxCell>
        <mxCell id="dkuEHb9_eLDDzL9_QjhF-84" value="equipo" style="html=1;whiteSpace=wrap;fillColor=#d5e8d4;strokeColor=#82b366;" parent="1" vertex="1">
          <mxGeometry x="-860" y="700" width="110" height="50" as="geometry" />
        </mxCell>
        <mxCell id="dkuEHb9_eLDDzL9_QjhF-87" value="" style="shape=image;verticalLabelPosition=bottom;labelBackgroundColor=default;verticalAlign=top;aspect=fixed;imageAspect=0;image=data:image/png,iVBORw0KGgoAAAANSUhEUgAAArsAAADgCAYAAAADta6fAAAAAXNSR0IArs4c6QAAAARnQU1BAACxjwv8YQUAAAAJcEhZcwAADsMAAA7DAcdvqGQAAIiNSURBVHhe7f19UF1Vnu+Pv/xZ1+oWIYRDQrc8RQ3JOYG0cHukTSBSY0tCTLol4diYNtTI7UT6Vhm9FnSSb3W38x2tW19BU31NMnU9CV6cjl6lQxKcjoYE9RaGaHecGdBAIA9GebI7EQ7kEDKWo97fH3vtx3MOHMgTkM+rigqstddea5+z1md/9nt9Pjs3uN3u/wuQnZ3N0aNHEQRBEARBEITpwv/PWSAIgiAIgiAI04UbrMquIAiCIAiCIEwnRNkVBEEQBEEQpi1Bym57e7vzmClJenr6tLkWQRCuHWJLBEEQpjai7AqCIAiCIAjTFnF2BUEQBEEQhGmLOLuCIAiCIAjCtEWcXUEQBEEQBGHaIs6uIAiCIAiCMG25Pp3dnz7Nq/X11KufbRu04geeeZVXn3nAefRl5jG21b/K0z8FNmwzxlBfX0/9q09zpXs3eYxt9dt4zFk8TRj/d3mZPo+fPs2rV/B7fOCZV9m2AR7bbs7bqc09vPzfn+blPGf5+Hls+6s8/dMHePpV/d/p8hkJgiAIl0Lkzu5Pn2bbMw9oTsH2S3YJrhkPPPMq9f9lJh8UFlKofk7MvnLOiZMHnllE3LE/8NQ/q4Let41xvD34A34WiYO2YRv1U/g7EK4z5nr54//j5WfO8ivKGzxV+zFxd1+ZtR36YUN3tJ3liiv8ICQIgiCEJmJn94G77oBzb8BPZ8Ngj7N6ivAY9y3083bhBrZbSrf/9inesPx95XiAH97u54Pfhu5t+4keomYmO4sFYRrzHo/8+ikeaXKWXwb++V/5hDv4YTjn8xLYfqKH5PmOB86f/pA7+IR/1R9kBUEQhEnB2P+pxIZt1P84hAM28jE1D18tJ3H8hHwR/IZt1M8/QeFjVlfX5IFnXuVn/IGHf/sGDzzzKqULo1RNj+Ygb9hG/d2Dlut+jG318zlRuIHtPMDTr5byA9Wk551CNmwzzw1K2SmGP+jtHeN5bHs9809o7ay/2+qwfh8jfPy/Huap1BBlIW641msaOfYx/oUz1dgd33O479Y2F+z9PLa9nvuSVM2xGh7+7Rva9f6XH6D1qD5D53mMvsJ8frZzhPlcQX0X96GdtYePj8Vxh/ouCTc+G9bv0nqucMejlDzHmLus33Go8ySzrX4Rg47Pzvq9B41zjHmrhQLcR6ql5ELry/xk9xnIW8//WapGcOFj/uf/V8cfgF/9ciPfGxjkP2dqdcbxKCW29AfcAkAPb/16J8+Bdi7PIP828wf851tC1On9AF2HnuKRptvZ8v88oo410fv62YMb+a+ZWqV2vOUg2/nMfn724Ebu5wyuTDW+nrf52xffszS0Y13TEyWkLbHNF40x+3Kuf0EQBOGqMLayu20DhYU1fNz7MTWFhbzdO8LH/6uQwilosB+YHcdIhKr0G7992AgvqDkWx6JnHoBtb/OxVSnaMJ/k3hPK0f0Z1OqhEW/Dj0PEf6bOJGrwnP1zS7rPiNm1Ordh2baBwnd6VPiDcpi2bTDGWviOnx8sDeoZNmyjdKGft9Vxf+AOwwkznCn9es/cETqcIkw/DzzzKvdhhmNoN/vH2PZf7uCT/6V/JhZHN1RfG+7jB4PmOUxH13qOt+HHobaJH+DpV+8j7liNOu4EM40HFdOZ1Opq+OT2n4U4h5XtbNCvs/Bt/AvvC/4ugce2l3LHGb3PUN9dqPNs5+1jcMdd+uf7GPOTejhhecCJfJwav/rlfbhaX+Zvf/0Uf3uoBy58zK7dZzSndfEg//PXT/G3v36K/3n6dv7rL+9RrW7hP89VdTUfQ+aP+RVojnPpTN5Tbf72ENxvDUFIvh12q/O1zuSeB2/Xypt2asf/+in+9tdvw9L1/IozlP9/2vkvXPjYGIfuVP9hdxV/++uneMu5JOd6+eNSeCvMGFIz9fG9TVfy3WyZ62hv4Y1z/iu0W7KdE73JzDdCGR7gh7fDJx+qhxMjFj/UfNV4bHvoeH0t3vxpttXXS7iSIAjCZWBsZxeAZGZyjjd4gNkz/ZwLoRpOBcZ343tMu9nU11O6MEq1e4N/PWM6Ko/Nj+PjQ9u1zycqih/8F/3mdR/JxDE7zE3OhorZrTk2ErwtGjFaMk59fb2mmM6cHRQX+MDsOHreMVWoN377AbqP8cDsOJvTbV6vk1D9aDd57XOwsGE+yb0fBCnMYfvqGmQk6T57UlnqTLDGNwc5ijrJzORj/mAoatt5+9iI+v0BZs+E5B/r300pP4iKYqZVBg3BA8+8OsZ3qTmp4UJSdEKd540PP4Hbf6h9RxvmE3fsbbaPNs5tG0ZRdcPzs6zbueWWH/Bf//vT/J///rShoup0va+pvJw+x4BemDefVJK5X7WxqrUA9PyJ8tPar3/YXWVXg/U2DpV53CTO5JaeE5piDNB0gq5bZhrnvND6jqrrZeCCftDVxxbKYA1hCPNQaOWx7fW2B8SaM3dQanFsoxbO5ERh4YS+d0EQBMHOmM6u5tzcR3LSfeoGnMx99fXjzHSfJHQNMpI0P6RKZ+cxtdWs37BM6clwVH76NItmWuPzegzVVPsJHUoQjjd++wc+nrkorAoUHm0rfeafVL//62N0N89K8kxT6QzFiKGKqp+gm2y4fpKZGRX8ADSaih6yr39+iocLC/kDP6Pe8oaMiPjpbOKcZTbUboSlz2AV1uSBZ16ldOYH6tgaPg71gf50NnEjg8YDQyjCnseIJX2Ap++O09RAGPc4dboGLnBL5iPKOZ3Jv+1WTqwKGTAV16dG3fI36Hnb3kaFPoTndrY8+AMw+nqbLuch05FtJ+hR9uSBu+6AM/+qdm1CPRRaeYDZM3t427LG3vjtB8a5AEaOvW3LKxAEQRAmzpjO7lMPa6pjzzuag9OjHJWwcWmTmX9+ig96k7nPlhH9AE9vd2RI/3Q2cZgO3GPzLerWPz/FB4N3cN/SO/D/SQ/l6GFwJFkLdRiNrkFGgm58Om/w1J/8/KBYG0vPoFXpfYz5Ko4zmGRmRo0wqLyLB+66w4hvtbL9RA/Jlsz0B55ZZIQxvHHOT1SYrXqTcP1o27n3ObZb3/jwE1gYvA0/Vl9v/PZhCt9RilnXoOMcj3HfQrVVbOWf/5VP+AH3GQ7yY9xnhDG8wbnBqJDqWjiSZ0aZjvpPf8gdoT5Q1WfIcA9F+PNo3/UdS+/jjkFd/R5lnKO+feN2fjQX/q1Gd06rTOW15YwlPCFCmk6MGRoQjoFzmsr7swfvDlZ2LcrsmPQNciF5vjHunz14N6kXBifkQI/20HXp6KEM1sTTcA+FgiAIwrViTGcXIHkmDHZZ3sgwhdn+mNoyNGLqfgaHHPHHulOsjpnv0O+2n/CTnOTnhKG6vcFTD7+Nf2GpsT0f8p25/3wOf9RMM1bWyba3+Vg5UJrSo2/3z4de63EnVN2rPP1TbWtfD6H42Ux/6Jvrtg28PfgD47p/xifmVW3bQM2xOON6Qyur4fvZ/lgNH880QxNefeYBTal9x28J7VAxzOH6ssY5/hhN9Qo6x33wTijFXL1myggBmM+gEcYQPD5jLGHYfuhj0L/L4pn4Q36gwd+58zMb9TzbTuBPSsZ/wtTvxjtOjTP8+TT851I9hOBp/s9/36g5q6fr2NU60wxJiOh9tu/xyKFB2/n+qMflhuUM5e/3kLpUO76EM3bH9HQd7/WYoRH6+X71S+3v+5NRbUOP+79mDvLWmOpyKCxxtFcI7SHyZ9wxeEIpseEeCq28wblB+wPiA88sUvH/giAIwuVm7LcxTFFCZ1Bfe8bM2BaEcXEPL//3+bTrb0VQTuQ9A5a3K1yvXKa3H4xuS7Q3bmB5S4jtrSe9PTBzUBuDbTz2N3lY34AiNkIQBOHyIs7uVUePBw6lUArC+PnVLzV11GCM13FdH5jhBJHEPY/G5LUlgiAIQiSIsysIgjAKYksEQRCmNhHF7AqCIAiCIAjCVEScXUEQBEEQBGHaIs6uIAiCIAiCMG0JitkVBEEQBEEQhOlCkLN77tw55zFTktmzZ0+baxEE4dohtkQQBGFqI2EMgiAIgiAIwrRFnF1BEARBEARh2iLOriAIgiAIgjBtEWdXEARBEARBmLaIsysIgiAIgiBMWyJzdlc9S92BAxw4cIADdc9S5KwXrjlZC++kMv9WspwVl504nnjgRzyR6iwXBEEQBEGYfETg7P43djw6l9M7lrN8+XIO+u9kzbNT1901nMLYW/mHB+6kNNZ5xORlxaLJ62SuWPQjKhfFQWoalQ+kscJ5gCAI1wXRniUsu8dDtLNCuAS+Q2n+j/iHhd9xVlx+xIZft/zd0zt5+hFn6eVjaflWtpYvdRZfFcZ2dp9cQHJPM5v3aX/+jwMfwdy7pra6e+FLWpxlU5yWYx+xqfHzq3Bdfl5448+80OUshy8vXHQWCYIwKksp37qTnTuv7E3mcpP0w2XcleQsnTxcvZ2uy0kcT0xqJ/MqOtwhiPYsYYlnGj5C5ZezdefOa+YE6iwt30ouzTz1srX073h650527txKeb6l+JGn2blTs1s7d+5k59ZyrKP/u6e1cuc1Hdqyn67UB4NtnX4+x3kuJ2M6u0UJcYz4e8yCfX/FHxVHsvWgqcjQl/i5yLkhvUBbyJUPWH4WxYWsM9TV2Fv5h0W3WurshmrFIrONaSC+Q2n+nZQuTAuui72Vf7D0b5SnasfeMxtuzXT2pYUVVD7woxDG3T5ucwxxPJF/K6XG+CJTuLMW3hn8GTg5P8KXF0f43FkuCNcB/+//+//ym9/8hu9973vOqtA8kot7qJn169c7bjJTl+GOwxx8r4NhZ4VwCXxJTeOf+ftjXzorLj9dp9j0xinedJYLV4SlP0hl6EgzQ6kLr5ijNyb55ax0D9H81D/ZyrbuvINP1jfzF+uxOn/R7Nb69etZ//gWDoHx8H7HmfU0h2x0iC1/7CQ252n+zlr88lOsX7+bTtzkOh3hy8SY/4Na0bN1rOE1vJv3qJL/xo4DCzi+/FH+h+3IycV4/9ejrIV38tAtPWz6wK85nXlRHFULfsWiHzH3c13NjOOJB5IJNH1EDbfyD3nJ+Fu1uhWLfkT2hY/4+2NfkrXwTgo5oYyT5uDGnPwzL3Rpv7svnNL6Io4nHnBxOsi4fIfS/Pnw4UfUKIfcPg4HsbfyD3dBvUXdtY7HPgZNQYg7Y47VuPYIGHUcgjDNGI8t2blzJwDffPMNf/zjH3nrrbf4v//3/zoPM3nkaba6mnl8i3ar0IjGc89iUr5rKepv5+C/9gbV+dsP8mEvEONhSRr0R6WoOj/tBz+kVzVP+uEy0uO13y92v8/hjmF1rkz44ktSUrQHe6MuxsOSRSncrNob5Ul3sSxdFwF09L6SuGtZOnEA/97N+zaH1z5ucwxJ3HVPNBdGUkiJB7hI9weH6Qjo7f6Op3fmEtu52/EZjUFqGpW3DjhsmrK9+kUBnFN2OFaz5Zoc4Oc9ZY+zFt7JPXxB3O2qTj8+xPk+V/cB3aYHztyM+3btjEadrR/4UtngFYs0McOG3ldqGpWZ2meuH2+i2fJb1V+2fjzw2S3JanzmNYXHej2hj79ctj/aswQ3/XwnRc0xY37jmGPmPI72LCGTVts8NOZ/mHWR9MNlfB8/cfFxXOzu5suUFOKMuWmZr9a1NOqcdKxN67hRDuLP3AwdifThdSnlW3Ppf7yZ+K0r4Y+Ps6VRL18JXUO43d8H4N/1NfDI0+y8/TydsW7c3wX4C83rn+KfUAppjnY8wF/UOP7u6Z388LxlDT3yNDv/83l2Kyd1aflWVrI/zBr7O57e+UPO/0Efm2p/+yestzrHDoL6dNTdcSb4MwpXfjkYU9kV4pjrUFR1wwLAxR7eUwv/8wu6EfoOmd/7Dt+5XVdCHQaWL+ns0A2mnxcMo2JRaYPajJfvMPuWL/msRx/Tl7T+9UviYnQz6+eoMpotAWv4gXUM127LShCmMjfeeCOFhYX8+te/JiEhwVltsNQVvKUS7ckkZaSdgwcPcvCDbi7ip13dUJN+uJhbzhzU6g62Q/oSPDGqYXyKUdfeH8dtass32rOE2y6+r9q8T/+sxZYQhJtJufkvxvm+THGTBBDo4PBBvZ/36Z+VqfXT+6E6v+YcaPW6U93Lh8aY7ST9cDHxX4QZw3dTiFfje78bUtIuQ3xEl9Up1chaOF8TGd74M5uaevgSP+/pgkNeFEff+LNW1wr3WHbJbr1drzvF57OTjV2wFYs08WCTqiPTukMWxxxOGH3FzVPnG/qcv9f7eeMjPvvefEpj4c0P1Pnx855er4+/Sxvz62ecqu53KM1Pg9YwY5idbIzvvXNxZI9pyzX1WBtHaN784NIdXZ24lFv4VM2H7qh0bT7EeFiSDu363GuHdGf8d4yHJenfofsD3TkdfV3ERV3g/XY/N6fEc+GDdvzfvYUZROO5Jx2MOexYS+HmZJLbXJsHD9od3YmQv5DUoU/4Jw5xrAtSf2DVdr+Le8YnSj1tZsida6qh30+FP2qq6u7OWH6ohwu8/JSptq5vBqWg/tPhTrAox393+/f5y7+ZauzCVOj6ONgpHZXv5xphDEFhCWPwl/P/zvdvt2m7Rnms68ro22M6u3vO+omKswQtrPoecSN+LIEN04KWwEWYrUIL8pLxt1qfai0GSBkpXW0Nz5d0NlnbjG0kVixK49Zzyhi/8RGdzjvGVUGLydXHfFW2zQRhmpKamspjjz3Gf/pP/8lRo8XChVdTQpHE9+MhLn0Zy5YtY5lFlQJNTe1U997zF3XjEU3SrJu5OWWxauNQjLlI9yn9ht3Lh4bjmsRdy/R+nG3GSzTRURfp79N13mF6v7jId6J1F8bPpx1a3fCw0978E0+tXz+Oz2gCpLq4lTju0R/ylYqq8+WZHnUvuIipC4whgljEBIY+5++NHbfLKWjcTMzNfk4b9xU/p899h5gZ6s+QQkxwuFzYkLQrzMXuTjXXLPMh5hZu7v+LsSNB71+Uc6pxc8pili2Kp9+m/o++Lvxn1A5D/6eWNjO45bt+/mJ2xF/6b+YW3dkNNycDF7gYnx4+AbNxC4+PIyRp6Q9S4by233/o4y6bQwr/TudhXTn9J57S1VuAv/yrobIe2vK4uT5U/K/mhOZiaLyNx+gilYX5AH/HHbGdNEc4xpBYneo/dBKb44jpHYNDA6EdqENbHmc/K9m50xHmcBkY09nld8fpSc7l2VXan/9t+Z1w+kP0oIbpwopb4/jceEK2OqZ+Tkf0VGzlS1r/Cm6Pc7tvbIwkr1R9+8mOqcyOxZecu/Ad5iSbcbr33P4d/AHnzUQQhCvJDTfc4CwynLj9rAxK4hge/hLi07Ub96IUvmw3wxG0bV1djTrIwYPWm344LtL9gbWNqYiFI+mH6cT16wrW+3T/u/OIqceogoYhMqifiJJ9xy+CTApBw6Yujy3CXA1m3BziZheCi93d+LE6pToTWRcTQN/xaIXMZcvCO70RsZSFqd/lu+4HNef0Z26++13dIZ0ISyn/iRs6dxvKrhk2e4gt/zakKceP3AGGqnsZaDxG1zjtw1JXLP+unHxbuQqnWG917C8TYzu7/A8ePeTnzke19+wu46Alfnf68ObnfstTuv2J980PTuE3QhJCJYIF03LsBJ23mElozuS1ULzZ0QN6P7eOBBlCW71+Pv0pPS+Z79yczEMPmIl19nFrMbqXYtj0hDszUS6yxDZBuF7p6upi27Zt/Md//IezCsIoHEkJWixisGPay18s4QmRMUzvFxMLDbh48bz2S5I7pLJrKrNjMczwyM3EJ+rHJ+FOuZkvhyNJYdMUcOcDwUQIK2h0DdjCEyJjIiKIxuiCxs3MjngcFwlcjGOuJWE6e/aXBNTXdlW5pDcKJPH9eKX8By5wMf77WigNEO25jbh/v4B5Sb18eLAd0q1vA5nIujjPhX+P4/v6OWI83BZ/kQuROsiBDg4f1EMiLKjPIaJt/fyFpNLJbiPsYD3Nf/kuMxKdB46PoQEVnFD+Q1PZBXj5E4ZSF1J+O3xiU3VDhVCMg0dycX93iH49njcCvj/ju8Y4Iym/HIyZoDZVGU9SSahksPEmbQmCMD0Zjy2xJqjV19dz8ODB8SeohUgCsyXPWLdp9WSbGA9LMqFVJYXZknmcSTVG0o9KUGsNoYJZE9T6u+mOircfZ0tgU+dzJLWBNYHHPm5bgtqy7/MXPXwi6S6WJfzFEgs5wQS1UFgSvXSMhC5HnZ4IFpxobL1P2JPDuNjD642f0xI26diRoHauh85bZgXfd1RSm56gZitThEt4s5VbEpbt1xEOx/Vgvaax0L6n7/+ledSkJZ1ozxIWp5gzxZzfzrowCWpqrmGbR8HrYsYPl/H9swf5EH1eYc43x3y1r7HQc9I5bnMeK8aRoLa0fCsPzvhX++dlJH79RUtQMxLWLIyWHGZJUPv3zk6G3DP4xKKS/t3TO8klxHeUX87Wn83gX22KqvpOrcf9eye7H98C5Vt5UMuOsyfI6X3YG9FpTW4L2ZfGlUxQE2dXEWRQIl7kgiBMZ8ZjS/7+7/+eb775hurqav761786q4MJunEFO6DRniUsvvnTS0+Gua5xOqoiaFxellK+9UFSuyJ7KLE/jAlXB/WGh1AOdDjn+7KjzZMZ/xbKoR2t7tIRZ1cQBGEUrqwt0Qy8+7vma4Kc6lHwa7yEiSCCxhVCqYnGq7EiQJzdq0mwjQnHlVRWscTkBs0TXZFWynFks2h8iLMrCIIwCmJLBEEQpjYRJKgJgiAIgiAIwtREnF1BEARBEARh2iLOriAIgiAIgjBtCYrZPfrhvziPmZJk3/U30+ZaBEG4dogtEQRBmNqIsisIgiAIgiBMW8TZFQRBEARBEKYt4uwKgiAIgiAI0xZxdgVBEARBEIRpizi7giAIgiAIwrRlHM7uk1QfOkh1hbNcmAzk5hVQ+4iHXGfFZSeRyscfpDLDWX41xyAIgiAIghAZETm75dUHaTy0ALqdNVMPwyFL8FDzeAGbE5xHTF5KCkM7mZMa43OOZvMjD1KTF+08QhCEaYQrp5iyNTm4nBXCJXAV7WfGYmofX0yJs/xqjkGYZDxJ9aGdlDuLLxtX+vwROrtb1i0jf+l6OpwVU5WhAM3OsilOc1MDxS93XIXr6mPT1t1sanOWjzaGAH1nnWWCIEARVfsO0jjFds3c969npcdZOnmYmrtMiVSGdDKnAuF3/K4Gk30+ThRv1V4aD+2lqshZczUpompfARxazxZLqTa2gzRWP2kpxWbTgsZesVOVO9v9jnWHoGBfJV5LKYbYepD6S/wQInJ2pyVnA5yzOWHaU2vt45afwsSQdcaCTvBQU+ix1NkNVUmh2cZ8Go5m8yMFbM5bHFyX4KHG0r9RnqEduzIF5tzr7EszMrWPPxjCuNvHbY4hkcpHPGw2xheZwp2bVxD8GcAYY9AZpm8Izg0MOysEYdqww/ci/7h9O8nJyc6q0FQUkDXQQP7SZax73lk5NRk4UovvtSMMOCuES2CYZ1/eTWnTVbCfbe9TvPV9djnLr+YYBKCI7LQBGg4NMO9Hl+boXQreqofJGmiw2afy6oOs5VV8rSPWQ1Xdo8w7tYP8pcvI951iXplSbIsqqV8KDUuXkb90GQ0U2B3Y59fTMJDJWodTu2XdMvJ9rZBZcEnK77j+B7Xy6oN4OqeGUR7v/3qUm1fAhpnHKK7v05zO4pm8qxZ8SeGDZJzW1cxEKh9fyGBtA8/ioaY4g3PvanUlhQ9y72ADpU3D5OYV8AuOKMOgObgz/2U3m9q037OG3tf6IpHKx1NpCzIu0Wx+JAcONPCscsjt43CQ4KFmObxkUVat47GPQVMQZn9kjtW49ggIO44QYxCEqc54bEnjoYMAfPPNN/z+97t4vbaWb7/91nmYScVO6mc3ULhxj6XQRe6a1aRbd4t7D+N7qzOoru/wTvZ3ALNyWHMX9MxYoOo+p2nHm3Sq5u7715OXpP0eaN/La0cG1Lnug+4LpKffaq+blcOaVQuIUe2Ncs8KypZox5rofblZ+egSEgGGj1Nnc3jt4zbH4GblGhdD5xeQngQQoH1fLc1f6O2epPpQAfGtOxyf0RhkLKZ2bpfDpinbq18UQLeywwmaLb8ZgD72K3ucm1fAT+hi9p2qTj8+xPk+U/cB3aYPfhRD1p3aBRt1tn7gorLBJYWamGFD7ytjMbX3asKLfryJZsvnqL9s/SyCE7EZanzmNYXHej2O40cdAyHvVxNjtPkQbg5p83vup9pacOUU403HbGeds/q8nJXDmvtiGeZWEqM/p739FtLTY8z1ZJvn5lpy5RSziF6i09XaMNYl2tj1+e8YH8p/KnC14lu1iTqjdBSKKqlf/lcKD3yP+rXwit6uYieNbj8trkyyogC6aViqqa7eqr2s5RT9mZmkAozo/RVRte9RdbylvKiS+rI4Dqv2mir7KHFHdD+viKp9D8Mrqwm1/LxVeymLO0z+ut+pkiepPrSADv18FTtpXJpC16FlNMzey1peVetYjQfH51FUab9WA8d5J8D1q+xGTCIZDkVVNywABNr4o3L6Ph3UDUA0ubdFc/OduhLqMLAM0/KBbjD72GQYFYtCGtRmvESTGDvMiU59TMM0fzrMbJd+B+3jXWWwmgcCRiv7GCQ+SxAmwo033khp6SNs37aVxET99heMd3ZwZKsr5z7Szx/Gt2Mnvn3HCfA5TeqG6r5/NbGtO7W6HYdhSTG5s1TDpAVGXVPvrWTlaOd25RSTdX6varOXnpTVli3fGNJnfGKcbzj9btwAXxzhtR16P3vpSblP66fjTXV+zdHW6nWnupP9xpjtuO9fTXJ3mDFELyBZja+uHdLvcjtaT4A2q1OqkZuXo4kMW3dTXNvGRfrYrwsOxTN5d+ture5dWGnZoZpzp173Pp+lLDR2wUoKNfGgWNVxr3WHLJH5HDH6mv036nxnOyjV+9nawInbcticALvq1fnpY79er4+/TRvzto9COZiL4d0wY0jJMMa3vzuRe8e05Zpyq43DQdgx6Azz7MuX6ugqLPPBd/gC6fdp8d+jziEdzwq86Rdo2qEc3Vk5rMkcok7N5bruJLz3q/kVfSu07qV9+FbSZ3xEXXuA6DiX1mYJNOnz/zDkWWLQE9NjaVHrpS/pTmP9uXLuJLpdH99Om6M7Ebw/SqO/83ew5ygnSSPbKnimpMErmkLqa3WxxKKGRmXG0aGrpwOZFFQA7GHjKq0sf+kyfKfSNAV1zyYOd6fg0UOoirKZRysNuqBZlM08TnE0hKMbkqLvET/ip0sPc8jx06JyvVLjoug/t0c5ro8Sd6qVIF14z1/pj3JcKwDd+EdcJASVR444u4rmgQCkqNCC4gzOvWt9CrYYIGWkxl7Uw7TUWtuEUEIdlBQuZk63MsZbG2hx3jGuClpMrj7m4Cd4QRAiJS0tjWee/gduuukmR432dhtT6YgEN3OTIHHJesoeXU+ZRUUCTbX6QCVWfHFeNx4uPCkxxKSvVm0cijEB2j/UlalO9huOq5uVj+r9ONuMFxfxMwL0nNRv/gN0dCvHAoDPaVGOwYD/gtFK43esW7psHJ/RBMhIZQ6JrNQf8pWCqXPxo2PqXhBg0LDJY4ggFjGBsx2UGrtdl1PQiGFmTB9txn2lj7buaGbqDz8hhZjgcLlrFWcbHnM+0PEJfdGxzBpzDql1sQTbjoZrXhIx0QvwqrnsTbd84MZ6sa4BID6WmN5PjHOYY9AItP9J1X3BkOVjHfBf0NaZ7kw72LJuGflBimU4ishOA/+nAHs4egp7KEP3YUNprdu42rY+RlobDPVzyzpzJ16PfW08dJCyTF3ihS2d3aS6tfhZ74/S6D8S6RjDk6orvqs2YXeVnqT60BL8vmWs+7OtQtGNP8gDRjnrr8JaZ6xv5IizqyiZm8hnxhOy1THtoy2ip2IrwzR/ClmLwis64bioW9OMhSENoanMjsUwfUPRzHebcbo/uTNaYmYF4Spzww03OIsMJ+4VHg5KvBjwX4CkJZqjuWoBw4fNm7e2paorqjvx6QrWqARo32dto7ZqR8F9/xISe5W6vGMv7dPAbIwqaBgig/qJKBRr/CLIpBA0bOry2CLMNWWWi0jveH3txwlwC/G6V6oIWNRW346dlrCDy4za9fB9eoe2dsM4vRFRlM28qCiyykznNCotOyh5K2IqdlKQ0m3Ey9pibZ9voMW1gHKKyI47Zaq6E2HPX+mPyqTACG0oIkE9j3T5R0hdugS/T4VE3BaH6XLrpBAXNcDZoGdbPZximSVkYnyIs6vYdbrP8pRuf+LdVf8+54yQhNGSsEyam47QEmsmoTmT10Kx64M20PuZOxhkCG31+vn0p/TiDG6OyWDD42ZinX3cWozupRg2PeHOTJRTW2ajjEEQrmdOnTrFb377FF999ZWzCoC6c8Fbne7bbrWECFgd005OW8ITImOAju6JhQYEzisv2nN3SGXXqqqNzgD952NInqcf72ZRegzD/uBrD0ZTwJ0PBBMhrKDR1mULT4iMiYggGqMLGjEkRjyOAIOBRDIsCdP3pgwzOObDz9VFUxQn9lop17wkpbJGMIf8R3htXy/Jq8zQnoGTvaCH5kRK/xCBpDuMNq6cO0kcHiLij7XjTS2UZ4bL9vq98uqDNIZ420AovD9Kg1aV5LV0GflLG+iKitPicCeKCi+AJymwKLuacuzCU5VNnP+oXdUNFUIxKr+joxu6OpVDWlFAVlQ3Hc9D3Z9PMTKih0QUUZWTwsgpR3+WMAg74ZzgyBlXgtpUYjxJJaGC68ebtCUIwvRkPLbEmqBW8/LL7N5dN/4EtRBJYEbijCMJxp5wA4dUUpgrp5ilvG1JRLOGIugJNypB7e0Q6rA1Qa33OO0zkuzH2RLY1PkcSW1gTeAJl7zjZuWjd3Ba33r2rKDstk8s6tsEE9RCYUmy0jESuhx1ehJWcKKx9T5hTw4j0Ma2lztoDpt07EhQ626jJTY1+L6jktr0BDVbmSJcwput3JIsbL+OcDiuB/OaGG0MY+Ct2ktZJrToit6ohJnfIerCJajp60dfM1rCmjkr+w7vZH+/vl468ag10DHPXDP2NvYENfu6MtePNQnU6MeygxJ5gpozSUzDeEEAO2l0Hw+pcGoJaqFCo6wJat20tLqYZz2uqJL6sjROhviOgpPQ9O/Urst2HdLHq61ZzTEfsX3vtnbdDUHXUF59kCX+UGv90hPUxNlVBBkUw3AJgnA9Mx5b4nvxRb7++msqKyvp7ulxVgdT4bxxBTugrpxivDM+unLbr9cFTkdVBI2rRsVOGpdivDFgdBwPP8LVIcgOWQntfF92KnbSmOMP/TAQ9NaI8SPOriAIwihcWVtiKi66MuJUooJf4yVMBBE0rjb63DZfjTU24uxeVdSrwcxXlIXj0pXV0Ql//vLqgxSkwMgl7u6IsysIgjAKYksEQRCmNpKgJgiCIAiCIExbxNkVBEEQBEEQpi3i7AqCIAiCIAjTluCY3aNHncdMSbKzs6fNtQiCcO0QWyIIgjC1EWVXEARBEARBmLaIsysIgiAIgiBMW8TZFQRBEARBEKYt4uwKgiAIgiAI0xZxdgVBEARBEIRpS0TObvlLjTQ2qp+Xyp3VwiQgN285taULyHVWXHaSqHyimMoMZ/loYwjfRhAEQRAE4UoSgbNbToLfR35+Pvn5+TRQQP1zXudBUwbDIUtYQM0Ty9mc4Dxi8lKyano5jFP5uxAEITSunDWU/TwXl7NCuARi2FxaTE1ejLPi8pORQ+0TOZQ4y0cdgwga1yve5+qvrE9YUX1ZRNYInN0tbPxVnfFXl3/EVjslGQrQ7Cyb4jQ3HaC45vhVuK5eNr1Qy6Y2Z/loYwjfZjp+F4IQOV6q6rVds+oKZ93kxb2ijJUeZ+nkIfwu02QmicqQTubU5pp+F7NyWTMtH7zKqZ4MO+0V1ZSlneQVi4+IJRrA7gSrMYeIEvA+V2+WO6/r+XWhRdaiKuobG2lsrCaST2Hc/6lE+UuNeDryWfe8s2ZyEe5F8Ll5y9kQd4zifVD5RCptLxxhF6in1uVkWR9au49QvK83qO6zd5TjlrCAmsVwInahqutlv3E+TYldmaL9frH1AKVNAXWuHDgTICszyV6XsICahxZys2pvlGfkUPtj7VgTvS/NQM4BCBxjm83ZtI/bHEMSlaUxDA4tJCsFIEDL6wd49qzRMCS5ecvZkKmdzPgMwDDSocYQvs1o34UgTB7C2ZJQ7Nixg//4j//g2Wefpaenx1kdTEU1jZ4O8n+xxVkzqXGvKGPuGR/7O5w1k4PcvOVsuL3LYQ8nO0nT0g5e0+9iVi5r8uHQ/25mwFk3lamopj6hg5NpHs4WruPaWI9yqhuX4H+xkI179DIvVfVlxDXn0+FpZInfR6HDEXYet+55zdldyythjiVMX6rmpdH6MRmfs1tRTWOuH1/hRkY/7bVnPDcobI5Xr3I6Z/KuMjolq4rJOKU7aklUPrGQwdcP8Cyac3pOOXElq4q51685lLl5y/kFRywO7nJmfljLpjblgA7pjnQ4A6ec4rdMJ9Q+DgcJC6i5H16yGBTreOxj0JzT2cr5tV17BIQdR4gx6IRtIwiTnPHYksbGRgC++eYbfv/73/P666/z7bffOg8zqaimPqHBYahd5P7cS3q0pai3Cd+bnUF1fe8ph3NWLmuyoWdGuqrro8m3n07V3L2ijDz1vBxoq+O1IwPqXEuha5j0jER73axc1qxOR3/2N8o9Kym7RzvWRO/LzcqyPBIBhtupszkY9nGbY3Cz8ufxDJ1PJz0JIED73tdo/kJvV051YwHxrWPfzGxk5FCb1uWwaaMIGjahwRQtcvOW8xO6mJ2p6gwBJPh85sO8ZtMHW2PIcj7ohxE0rMKIgd6XRewwBQsdi9Dg7GcUISY01utxHD/KGEYTNCDcdzF+XDlrWEQP0RlqXhprAm0e6XPPuS4MZ1cdM8ZacuWsYWnsMCQlEtPbTvuMdNKj9Tkebh6De8Ua4odCrCU1dm+GPvHsa5OiKup/mUX/wchFxPKX6kl4q5Cz99vFR81pPEl/ZhapACMtyl8rp7rRg781nqzMKAC69P4qqmlclmqcWy/3PldPWdxh80G8qIr6X8ZxOF8512M8qI/uhNqd17Gd3fDHhCt3EkEYg0b5S43ahU0BR/fykkRGCsz5cTG1TxRTazEsoCmZf1SL+1O/bgBiyL09hpszl6s2DgNLgJb39YXfyybDqGhxT6HbjJcYEmMDnOjUxxSg+UyA2S79pL28qwxW84DTeOpjCBefJQjCaNx4442Ulpayfft2EhOdzqGJNyHeWYQrZynp55vw+Xz49rYToI8mdVN3r/AS2+LT6nxNcM8acmephknpRl1TbyJZOdrmrStnDVlDdapNHT2pXksIQgzpsaeN8w1nLMIN8EUzr/n0furoSV2q9dOxX51fcw60ev3G3cl+Y8x23Cu8JHeFGUN0OslqfHVtkJ7tdrSeAG1Wp1QjNy9HExleqKX49WNcpJf9uuDw0EzefaFWq3sHVlq23edk6nVH+CxloZFbULJKEw+KVR0/tuYdJDEfs6/Zd6nznT1Oqd7PCwc4cXsOmxNg1z51fnrZr9fr42/TzrOt1fmpKkHknTBjSFlojG9/dxL3jmnLAzxbo4/DQdgxqPC1F2rZ3+2sUYT4LiZKYkYsLWoOtc/IU3PIRe7P88CYj451gXlMdFud4SCPtpZikqBlbzuBpHRiW+poH44mftYY85gY0lOHqFNrAH0t4WZRxjBNxnqyOLoTohyP6yRH98CWji5SPfZN/KjMODr0HKuBLAqM8KhU5vGKln/1YgvxuVV40cIE9Jys/PwGWKaFBdT96jBdKR4jRMB79zxobTBU5HJPKl0doR3dsBihBwXEt75iU2mjMstUGEM9VUXWRhp1Z/uJSsvWxuwsjzOd9XBE5OzqoQvhPPjpQPNAAFJyNCfvoYWce8f6FGwxQMpIjbXlr4UGWNuEeOJ1ULIqhzndykC+cICWYLtyFdDia/Ux21UEQRDGQ1paGs888ww33XSTo0aLX4tEkTBxMzcJEu8po6ysjDKLkgWamvqBCiv4Ykhfty48qTHEZHhVG4diTID2o/qtt5P9xo3YzcoyvR9nm/HiIn5GgJ6Tus47QEdXgOg4PZKyjxalgA34h41WGltYl58/js9oAmSkMockVuoP+Y6QsYutx9S9IMCgYQ7HEEEsYgJnj1Nq7HZdXkFjZkwvbcZ9pZe27hhm6k5eSCFGqb4WQWMqJZUF2j5Q89M6h2YRG93HaSOkppPTvTHE6s+R0el4yzQnVVdax1pLRj+WNTX2PIa+FrWb8UU/5kz+gqHhRPLKnA64Ys9GCvMjV3Wp8JA6cFYTHZ/vsDmkACMWh3TLL6zn7eKwvo72bKRQFy4NB1RzQk23cQsd3al4KgC8ZKf1m+0nirrW/HwfJ9PKjDjcul8Vmg73wX6yfhkiDvdTPyEzxp5fR36HJ6yTrDO2s1tUxRIaIv8ipiglaUl8ZjwhWx3TXtoieiq2EqD5DGQtdsbZjs1F3Shl6NtPdkxldiwC9A3FMN+tH5/ETzJjOGdTcQVBuNLccMMNziLDiXuFtUGJFwP+YUjK027Cq9MZfs+qBPVZFCIfPp91yz8cAdr3WtuMHWvrXqG2e3UVzemDTkFGFTQMkUH9hAjFCmb8IsikEDRs6vLYIsxkZVZshPfC4XbaeyEm1ulpTmQtTYQBmv+3D5/vEOSXURbO6Y2Qck8qpBRYnFPdIZ0IXqpKsqBVf+NWA12W2i1vtRDvKYeibOJOmU70pVPH0VMjoRXZ5ztsYzC4LY4o3cm3oodT5AfH81oZ29m9LY4o44NVP/VK/p5G7DrVa3lKtz/x7tp3hHNGSEJxRJmlzU1HaIlVhlU9+Y+VZbvr/WOg95M2GGQIbfX6+fSn9IcWcnPMQjY8UUztKs3Jto9bi9G9FMNWskq7lpWGoqG2zEYZQ9g2gnAdcOrUKX7zm9/w1VdfOatAbcE5cd+eaAkRsDqmnZy2hCdExgAdXRMLDQgMqTu/Z1FIZdeqaI3OAP3nY0iepx/vZlFGDMP+SFKGNAXc+UAwEcIKGm1dtvCEyJiICKIxuqARQ2LE4wgwGEgiQ1dmExZwb0qAwSvisF0BlKI4se/WzdwkXWXVlNO5ejjBrFyykgIMWZZWx5s+msijbIW+Dia2liY+jzGc3iar6oz5OUT2NpZyPCldNBhhB/n4WkeIT5jIZ2jSf1ZzIb3PLbEou8Ceo5x0eai6Ow7/n+xuZqgQisjxkp0WFTIMwvvcElJH/EEOrzchnhG/szR8uZPxJahNIcaTVBIqGWy8SVuCIExPxmNLrAlqNTU17N69e/wJaiGSwIyEG0cijpEI5sg6d+WsYSmHLIlo1lAEa7LNUmgMoWhZE9R622mfkWw/zpbAps7nSGoDaxKRfdy2BLWyuZzWwyc8Kym7/bQl8WiCCWqhCPFWGyOhylGnJ2EFJxpb7xP25DDzTTThko4dCWrdx2iJTQ2+76hkLz1BzVamCJfwZiu3JAvbryMcjuvBvCZGGUNwcl1kb/fRv9vU7oaIQiTtSV7WNeGcj+ES1NQ6QE+eDL2W0NfOSY9q24HHWCfh5rHzDSWWee1cF87kzfEkqIV6SUBRFfUl8ErhRgibrKUlqHXoyWVWLAlqI60t9GfG2Y7zPldPWdrJEC8mCP2GhPKXGimwzYcRWl4sZCPadWrpcZYEOWcbI6nOSui+GEeCmji7iiCDEvQaL0EQrkfGY0t8Ph9ff/01lZWVdHeHy9ixEJTRHOyAunLW4I1tsTiAwvhxOqoiaFx7tNdPzTsV2YOM/QFOuFqM+rrZUM73FWC0NzuMVmdFnF1BEIRRuLK2RLvhZ0WZSodTwQpSgoQJIYLGJEKpiSPjUOzF2b266GrrWN9RpMrqhAkSBBRKEY+ii4ZQirUDcXYFQRBGQWyJIAjC1GbsBDVBEARBEARBmKKIsysIgiAIgiBMW8TZFQRBEARBEKYtwTG7H/6L85gpSfZdfzNtrkUQhGuH2BJBEISpjSi7giAIgiAIwrRFnF1BEARBEARh2iLOriAIgiAIgjBtEWdXEARBEARBmLaIsysIgiAIgiBMWyJwdouo2neQxkPaT31VkfMAYRKQm1dA7SMecp0Vl51EKh9/kMoMZ7kgCIIgCMLkIwJnN4WzR5aRv3QZ+Usb6M98mKns7xpOYYKHmscL2JzgPGLyUlI4BZ1M43OOZvMjD1KTF+08QhCEaYQrp5iyNTm4nBXCJXAV7WfGYmofX0yJs1y4jnmS6kM7KXcWXzau9PkjcnZ/x5bnzd87uqOIu81+xJRjKECzs2yK09zUQPHLHVfhuvrYtHU3m9qc5aMRoO+ss0wQBOvOWXWFs27y4r5/PSs9ztLJw9Xb6bqcJFI5ZZ3Ma7vjN9nn40TxVu2l8dDeaywwFlG1rwAOrWeLpVQb20Eaq5+0lOKIBjDHbhxv/THa/o51h6BgXyVe66mA8urLE1UQgbNr5Uk8Kd10GM7vFOZsgHM2J0x7cq593PJTmBiyzljQCR5qCj2WOruhKik025hP5NFsfqSAzXmLg+sSPNRY+jfKM7RjV6bAnHudfWlGpvbxB0MYd/u4zTEkUvmIh83G+CJTuHPzCoI/A3WdNsUhwUNN0FiG6RuCcwPDtlJBmE7s8L3IP27fTnJysrMqNBUFZA00kL90Geumg10FBo7U4nvtCAPOCuESGObZl3dT2nQV7Gfb+xRvfZ9dznLhKlNEdtoADYcGmPejS3P0LgVv1cNkDTTY7FN59UHW8iq+1hHroaruUead2qFFA/hOMa9MU2zrNq5WEQLaj691hBF/t9nw+fU0DGSy1uHUblm3jHxfK2QWXJLyG9n/oFaxk8alKUA3DUvt3v1kZbz/61FuXgEbZh6juL5Pc9aKZ/KuWvAlhQ+ScVpXMxOpfHwhg7UNPIuHmuIMzr2r1ZUUPsi9gw2UNg2Tm1fALziijJPm4M78l91satN+zxp6X+uLRCofT6UtyLhEs/mRHDjQwLPKIbePw0GCh5rl8JJF3bWOxz4GTUGY/ZE5VuPaIyBoHI6+7dcuCFOb8diSxkMHAfjmm2/4/e938XptLd9++63zMJOKndTPbqBw4x5LoYvcNatJt+5Y9x7G91ZnUF3f4Z3s7wBm5bDmLuiZsUDVfU7TjjfpVM3d968nL0n7PdC+l9eODKhz3QfdF0hPv9VeNyuHNasWEKPaG+WeFZQt0Y410ftys/LRJSQCDB+nzubw2sdtjsHNyjUuhs4vID0JIED7vlqav9DbPUn1oQLiW3c4PqMxyFhM7dwuh01Ttle/KIBuZYcTNFt+MwB97Ff2ODevgJ/Qxew7VZ1+fIjzfabuA7pNH/wohqw7tQs26mz9wEVlg0sKNTHDht5XxmJq79WEF/14E82Wz1F/2fpZBCdiM9T4zGsKj/V6rMdb7nnqXhRs44PvVxNjtPkQbg5p83vup9pacOUU403HbGeds/q8nJXDmvtiGeZWEqM/p739FtLTY8z1ZJvn5lpy5RSziF6i09XaMNYl2tj1+e8YH8pBLHC14lu1iTqjdBSKKqlf/lcKD3yP+rXwit6uYieNbj8trkyyorD5Zd6qvazlFP2ZmaQCjOj9FVG171F1vKW8qJL6sjgOG36ddlzcEf3hu4iqfQ/DK6sJtfy8VXspiztM/rrfqZInqT60gA79fMp37DrkfJh3HKdTVGm/VoMwx4+DyJTd59crb/w4nim23XbpJJLhUFR1wwJAoI0/Kqfv00Fz4efeFs3Nd+pKqMPAMkzLB7rB7GOTzaiYaqu9zXiJJjF2mBOd+piGaf50mNku/Q7ax7vKUDUPBIxW9jFEGCN2tpcTpJKbgLp2LP0KwvXHjTfeSGnpI2zftpXERP32F4x3dnBkqyvnPtLPH8a3Yye+fccJ8DlN6obqvn81sa07tbodh2FJMbmzVMOkBUZdU++tZOVo53blFJN1fq9qs5eelNWWLd8Y0md8YpxvOP1u3ABfHOG1HXo/e+lJuU/rp+NNdX7N0dbqdae6k/3GmO24719NcneYMUQvIFmNr64d0u9yO1pPgDarU6qRm5ejiQxbd1Nc28ZF+tivCw7FM3l3626t7l1YadmZmnOnXvc+n6UsNHbBSgo18aBY1XGvdYcskfkcMfqa/TfqfGc7KNX72drAidty2JwAu+rV+eljv16vj79NG/O2j5w2NZrNjyyGd8OMISXDGN/+7kTuHdOWa+qxNg4rffzxI5jvNncng238MM++fKmOrsIyH3yHL5B+nxb/Peoc0vGswJt+gaYdytGdlcOazCHq1Fyu607Ce7+aX9G3Qute2odvJX3GR9S1B4iOc2ltlkCTPv8PQ54lBj0xPZYWtV76ku401p8r506i2/Xx7bQ5uhPB+6M0+jt/B3uOcpI0sq2CZ0oavKIrpC6WWNTQqMw4OpR62jCQSUEFwB42rrKoqqfSNAV1zyYOd6fg0X26omzm0UqD7pgWZTOPUxwN4eiGpOh7xI/46dLDFnL8tFjEWx1v1RLiWxuCHdc9f6U/ynGtAHTjH3GREFQeOZE5uwa/Y92hblLdzhiNqU/zQABSVGhBcQbn3rU+BVsMkDJSYy/qYVpqrW3CKLIWSgoXM6dbGeOtDbQ47xhXBS0mVx9zZOrsMM/+S0AzhglJzB86FsHnIwjTn7S0NJ55+h+46aabHDVPUn1I2wqMXLF0MzcJEpesp+zR9ZRZVCTQVKsPOrRfvzivGw8XnpQYYtJXqzYOxZgA7R/qylQn+w3H1c3KR/V+nG3Gi4v4GQF6Tuo3/wE6upVjAcDntCjHYMB/wWil8TvWLV02js9oAmSkModEVuoP+UpF1bn40TF1LwgwaNjkMUQQi5jA2Q5KjR23yyloxDAzpo82477SR1t3NDP1h5+QQkxwuFwkcbbNnV1wW5LmsCckMZ8umq+YjTfnAx2f0Bcdy6wx55BaF0uw7Wi45iURE70Ar5rL3nTLB26sF+saAOJjien9xDiHOQaNQPufVN0XDFk+1gH/BW2d6c60gy3rlpEfpFiGo4jsNPB/CrCHo6ewhzJ0HzaU1rqNq23rY8TiRG5ZZyqqeuxr46GDlGXqEi9s6TR9Ou+P0ug/EukYw5OqK76rNhE8TZ6kIBNO/jnUmu7GHxwZoZz1V2FtqBjhyBjb2a140hInUURVTgpdnbpkPX0omZvIZ8YTstUx7aMtoqdiK8M0fwpZi8IrOuG4qFvTjIUhDaGpzI7FMH1D0Zan8UR+cmf0lYuZbevi3G1JlLhTOXc6snAIQbgeuOGGG5xFhhP3Cg8HJV4M+C9A0hLN0Vy1gOHD5s1b21LVFdWd+HQFa1QCtO+ztlFbtaPgvn8Jib1KXd6xl/YrZDauJqMKGobIoH4iSvYdvwgyKQQNm7o8tggDWpt3h7Tdu1x3Kuf+JZLP5zIwy0Wkd7y+9uMEuIV43StVBCxqq2/HTkvYwWVG7Xr4Pr1DW7thnN6IKMpmXlQUWWWmcxqVlh2UvBUxFTspSOmmwRIva/B8Ay2uBZRTRHbcKVPVnQh7/kp/VCYFRmhDEQmOzStv1RJSLc66nRTiogY4G1Snh1Mss4RMjI+xnd1Pv8cSI3tOCzyeLokUVnad7rM8pdufeHfVv885IyQhVCJYMM1NR2iJNZPQnMlrodj1QRvo/cwdDDKEtnr9fPpTenEGN8dksOFxM7HOPm4tRjciwxYGPeHOTJSzbtv10TaUwco7AxalQRCub06dOsVvfvsUX331lbMKgLpzwVud7ttutYQIWB3TTk5bwhMiY4CO7omFBgTOKy/ac3dIZdeqqo3OAP3nY0iepx/vZlF6DMP+4GsPRlPAnQ8EEyGsoNHWZQtPiIyJiCAaowsaMSRGPI4Ag4FEMiwJ0/emDDM45sPPxNh1OsB8dyK5t43PxmuK4sReK+Wal6RU1gjmkP8Ir+3rJXmVGdozcLIX9NCcSOkfIpB0h9HGlXMnicNDRPyxdryphfLMcNlev1defZDGEG8bCIX3R2nQqpK81Gtfu6LitDjciaLCCzRl1VR2NeXYhacqmzj/UbuqGyqEYlR+R0c3piBaUUBWlPWlBpqq23IgjMNqCYOwE84JjpzIEtSmIONJKgkVXD/epC1BEKYn47El1gS1mpdfZvfuuvEnqIVIAjMSZxxJMPaEGzikksJcOcUs5W1LIpo1FEFPuFEJam+HUIetCWq9x2mfkWQ/zpbAps7nSGoDawJPuOQdNysfvYPT+tazZwVlt31iUd8mmKAWCkuil46R0OWo0xPBghONrfcJe3IYgTa2vdxBc9ikY0eCWncbLbGpwfcdldSmJ6jZyhThEt5s5eNOGnZcD9ZrstTbkvTGxlu1l7JMaPGFTnKyE2Z+h6gLl6Cmrx99zWgJa+as7Du8k/39+nrpxKPWQMc8c83Y29gT1Ozrylw/1iRQox/LDkrkCWrOJDGN8uqDeDqXsY6dNLqPh1Q4tQS1UKFR1gS1blpaXcyzHldUSX1ZGidDfEfBSWj6d2p1mLEkoWlrVnPMR2zfe6hzWSmvPsgSf6i1fukJauLsKoIMim2RC4JwvTIeW+J78UW+/vprKisr6e7pcVYHU+G8cQU7oK6cYrwzPrpy26/XBU5HVQSNq0bFThqXEuGbnBwPP8LVIcgOWQntfF92KnbSmOMP/TAQ9NaI8SPOriAIwihcWVtiKi66MuJUooJf4yVMBBE0rjb63B7PK0vF2b2q6K+VNV5RFo5LV1ZHJ/z5y6sPUpACI5e4uyPOriAIwiiILREEQZjajJ2gJgiCIAiCIAhTFHF2BUEQBEEQhGmLOLuCIAiCIAjCtCU4ZvfoUecxU5Ls7Oxpcy2CIFw7xJYIgiBMbUTZFQRBEARBEKYt4uwKgiAIgiAI0xZxdgVBEARBEIRpizi7giAIgiAIwrRFnF1BEARBEARh2jI+Z7eimsbGasqd5cI1JzdvObWlC8h1Vlx2kqh8opjKDGe5IAiCIAjC5GMczq6XqtxUZ+GUw3AKExZQ88RyNic4j5i8lKyagk6m8TnHsLm0mJq8GOcRgiBMI1w5ayj7eS4uZ4VwCVxF+5mRQ+0TOZQ4y4XrmHKqr6jQeaXPPx5nt6KAeada6HKWT0WGAjQ7y6Y4zU0HKK45fhWuq5dNL9Syqc1ZPhoB+s46ywRBAC9V9Y00NjZSXeGsm7y4V5Sx0uMsnTxcvZ2uy0kSlVPWyby2O36TfT5OFO9z9TQ21lNV5Ky5mnipqi+Ag+vYYi19rp7GxkYaX3K6qOVUN2o2LWjsFdWq3NluC+sOQkF9FV5LKUD5S9rx9c85a8ZHhM5uOdXL4PCvppHHcjbAOZsTpj051z5h+VmVFLLOWNAJC6hZtcBSZzdUJavMNuYTeQybS5ezOS8nuC5hATWW/o3yDO3YlSkw58fOvjQjU/tEcQjjbh+3OYYkKksXsNkYX2QKd27e8uDPwCg3r71kVaixBOgbgnMDAVupIEwnduzYwT/+4z+SnJzsrApNRQFZAw3k5+ez7nln5dRk4Mhr+P53MwPOCuESCPBsTS2lTVfBfrYdofiFI+xylgtXGS/Zaf00HOxn3t2X5uhdCt7n1pI10GCzT+UvNbKWV/C1jlgPBcD73BI4mE9+fj6+VsgqUQ5sURX1y6AhX6troMDuwD6/joaBLNY6nNotv8gn/8UWyCy4JOU3ov9BrfylRjwd+ax7vpzqRg8d+XYPfzIy3v/1KDdvORvijlG8r1dzOh+aybtqwZesKibjlK5mJlH5xEIGXz/Asyyg5qGFnHtHqytZVcy9/gOUNgXIzVvOLziijJPm4M78sJZNbdrvWUNHtL5IovKJVNqCjEsMm0tz4K0DPKsccvs4HCQsoOZ+eMmi7lrHYx+DpiDMbjXHalx7BIQah3G9nUlB4xCEqcx4bEljYyMA33zzDb///e95/fXX+fbbb52HmVRUU5/QQOGv6iyFLnJ/7iU92lLU24Tvzc6gur73fOzvAGblsiYbemakq7o+mnz76VTN3SvKyFPP7oG2Ol47MqDOtRS6hknPSLTXzcplzep09Mdjo9yzkrJ7tGNN9L7crCzLIxFguJ06m8NrH7c5Bjcrfx7P0Pl00pMAArTvfY3mL/R25VQ3FhDf6nN8RmOQkUNtWpfDpinba40E6FZ2OEGz5TcD0Mt+ZY9z85bzE7qYnanq9ONDnO8zdR/QbfpgawxZmVqlUWfrBy4qG1yyShMzbOh9ZeRQ+2Pty9OPN9Fs+Rz1l62fxXAidqEan3lN4bFej/X4UPcs8/5htrXfrybGaPMh3BzS5vfcM9pacOWswZuB2c46Z/V5OSuXNfmxDJNIYnQf7W3RpGfEmOvJNs/NteTKWcMieojOUGvDWJdoY9fnv2N8KD+qwNWCr3AjEc3koirq7z9L4VsJ1JfAK3q7imoaPX5aXFlkRQF00aB8Mu9z9azlJP2ZWaQCjOj9eamqL1PHW8qLqqj/ZRyHDZ9OOy6uWX/49lJVvxZ2FbJxjzEyA+9z9ZTFHSb/F2E8wqIqY+w8V89aXlHrWI0Hx+dhOd7+GV267zmmsut9rp4lft+0UR3GTxIZDkVVNywABI7xR+X0feo3F37u7THcnKkroQ4DS4CW93WD2csmw6hYVNqgNuMlhsTYACc69TEFaD4TYLZLP2kv7ypD1WxTW61jiDxGrLnpCCduX07tQ6mceEscXeH65sYbb6S0tJTt27eTmOh0Dk28CfHOIlw5S0k/34TP58O3t50AfTSpG6p7hZfYFp9W52uCe9aQO0s1TEo36pp6E8nK0aJmXTlryBqqU23q6En1WrZ8Y0iPPW2cbzhjEW6AL5p5zaf3U0dP6lKtn4796vyao63V6051J/uNMdtxr/CS3BVmDNHpJKvx1bVBerbb0XoCtFmdUo3cvBzNYXuhluLXj3GRXvbrzttDM3n3hVqt7h1YadmZmpOp1x3hs5SFxi5YySpNPChWdfzYukOWxHzMvmbfpc539jilej8vHODE7TlsToBd+9T56WW/Xq+Pv007z7ZW56eqHMx3wowhZaExvv3dSdw7pi3X1GNtHM7yA7TEateem7fQ4eiax1yao6uwzAffe8Ok52vx36POIR3PSrwZwzT5lKM7K5c1WUPUqblc15WMd4WaX9GJ0FJH+3Ai6bEt1LUFiI5zaW3ugSZ9/r8HeZYY9MSMWFrUeulLyjLWnysni+g2fXw+m6M7Ebx3z6O/YwvsOcpJ5pFtDQdImQe7dPU0niUWNTQqM44OXT0dyKKgAqCOjYVaWX5+Pr5T8zQFdc9GDnen4tFDqIqymUcLDbq/V5TNPE5yNISjGwneu+cRNXCWOiA1Lor+s3XKcS0j7lQLQbrwnrP0RzmuFYAu/CPxJASVR84Yzm45BZlRRGWWqTiLAlJJpcAZhzENaB4IQIoKLXhoIefesT4FWwyQMlJjL+oALa9b24RRZC2UrMphTrcykC8coMVp264KWkyuPubxbZv18lm3s0wQrl/S0tJ45plnuOmmmxw1WlybqXREgpu5SZB4TxllZWWUWVQk0FSrDzq0X78Y0tetC09qDDEZXtXGoRgToP2orkx1st9wXN2sLNP7cbYZLy7iZwToOanf/Afo6FKOBQB9tCjHYMA/bLTS2MK6/PxxfEYTICOVOSSxUn/IVyqqzsXWY+peEGDQMIdjiCAWMYGzxyk1drour6AxM6aXNuO+0ktbdwwz9YefkEJMcLhcZHG2AZ59q4v5DxWz4fYuXhrXfWG8mPOBjtP0Rccya8w5pNbFPdh2NFzzkomJTser5rI3w/KBG+vFugaA+Fhiek8b5zDHoBFo+0DVfcGQZboO+Ie1daY70w62/CKf/CDFMhxestPA/ylAHUdPYQ9l6D5sKK11vyq0rY+R1gZD/dzyCzM8So99bWxspCxTl3hhS0cXqR4tQMB79zz6myMd4xhUVFOW2U+DTfUtp7pxCf4X81n3J0uxQRf+IA8Y5ay/AiXOWN/IGcPZ1QyN/jSQn99AF1005IeWtKcyJWlJfGY8IVsd017aInoqthKg+QxkLbYbzUi4qBulDH37yY6pzI5FgL6hGOa79eOT+ElmzBWLmS1ZtZz5Z46x6f0u5j80VZMsBOHyc8MNNziLDNv6CmuDEi8G/MOQlKc5mqvTGX7PvHlrW6q6ourDpytYoxKgfa+1jdqqHQX3ijwSe5W67Kuj3emDTkFGFTQMkUH9RBSGNX4RZFIIGjZ1eWwRxkZ3r0P1vcLMiifS56y+tnYCRBOve6WKgEVt9fl8lrCDy4za9fCdmaut3TBOb0QUZTMvKoqsX5rOaVRadlDyVsRUVFOQ0mXEy9pibZ9voMXloRwv2XEnTVX3UqiopnFZPC0vmmEHXf4RUpctwf+i8h9vi8N0uXVSiYvq52yQf6mHU+SHD5kYgzGc3euHXad6LU/p9ifeXfuOcM4ISQiVfBVMc9MRWmLNJDRn8loodr1/DPR+0gaDDKGtXj+f/pT+0EJujlnIhifMxDr7uLUYq3EZNgd6wp2ZKKdtmeXmLWdl7DHtaf/scV5qjWFlBNcrCNOdU6dO8Zvf/IavvvrKWQVA3dl+ZxHu2xMtIQJWx7ST05bwhMgYoKNrYqEBgSHlRXsWhVR2rara6AzQfz6G5Hn68W4WZcQw7I9km1dTwJ0PBBMhrKDR1mULT4iMiYggGqMLGjEkRjyOAIOBJDIsCdP3pgQYHPPhZyIkUflQKifeP8Ifz6SywUjeHhtNUZzYa6Vc85KVyhrBHPI389reHpJXm6E9Ayd7QA/NiZT+IQJJc402rpwsEoeHiPhj7divhfLMiLe9fq/8pUYaQ7xtIBTeu+dBq88uNEbFaXG4E2XEr96mpe3Ym9Rx9FQ8nueyifMftau6oUIoxqKoivpl8bToTq2i7k8nGRnRQyK0V9mOnHL0V5RAvDFOK+Gc4MiJKEFtKjKepJJQwfXjTdoSBGF6Mh5bYk1Qq6mpYffu3eNPUAuRBGYkzjiSYOwJN3BIJYW5ctawlEOWRDRrKIKecKMS1BpDqMPWBLXedtpnJNuPsyWwqfM5ktrAmsATLnnHzcqyuZzWt549Kym7/bRFfZtgglooLIleOkZCl6NOTwQLTjS23ifsyWEEjrGt5jjNYZOOHQlq3cdoiU0Nvu+opDY9Qc1WpgiX8GYrtyQK268jHI7rQb+mXnJLlzP/jD3Z2UxYGx3vc/WUZRLk/IQmzPwOURcuQU1fP/qa0RLWzM+v7z0f+/v19dKBR62BjnnmmrG3sSeo2deVuX6sSaBGP5YdlMgT1JxJYhrGiwKoptHTEVLh1BLUQoVGWRPUumhpjWee9biiKup/OY+TIb6jUElo2ndq12W7Duaz7nlHIpytztGuuyHoGspfamSJP9Rav/QENXF2FUEGxTBcgiBcz4zHlvh8Pr7++msqKyvp7o4ggL3CeeMKdkBdOWvwxrZcue3X6wKnoyqCxlWjoprGZRhvDBgdx8OPcHUIskNWQjvfl52Kahpz/aEfBoLeGjF+xNkVBEEYhStrS0wlRFc/nEpU8Gu8hIkggsbVRp/b5quxxkac3atKRTWNy1ItrygLx6Urq6MT/vzlLzVSkAIjl7i7I86uIAjCKIgtEQRBmNpIgpogCIIgCIIwbRFnVxAEQRAEQZi2iLMrCIIgCIIgTFuCY3Y//BfnMVOS7Lv+ZtpciyAI1w6xJYIgCFMbUXYFQRAEQRCEaYs4u4IgCIIgCMK0RZxdQRAEQRAEYdoizq4gCIIgCIIwbRFnVxAEQRAEQZi2ROTseqv20njooPFTXeE8QrjW5OYVUPuIh1xnhSAIgiAIwnVMRM5ualwUXYeWkb9U+1n3vPOIqYPhFCZ4qHm8gM0JziMmLyWFD1KZ4SydHJQUPkhtYSJkLKb28cWUOA8QBOG6wJVTTNmaHFzOCuESiGbzIw9SkxftrBCEy0Z59ZUVM71Ve6mvKnIWXxUicnZhBP+nzrIpzFCAZmfZFKe5qYHilzuu6XVdHAw4iwRBGJUiqvZNvR0z9/3rWelxlk4epuZOVyKVk1oouLYOtyunmDU50/ARqqiS+kMHr5kTqOOt2ksBDQ4x80mqDx2k8dBebMOr2Gnb7W/cV4nXUq1fk7OubuOrnEx7NNjW6edznucyEoGzW0SCK4qsMjXw6iedB0xNzgY4R4C+s3qBtpBrH7f8FCaGrDPU1QQPNYUeS53dUJUUmm1MAxHN5kcK2Jy3OLguwUONpX+jPEM7dmUKzLnX2VcilXqbIONuH7c5hkQqH/Gw2RhfBAp3goeaENcXpDR/McjFwCDT6dlIECJlh+9F/nH7dpKTk51VoakoIGugYcrvmFkZOFKL77UjDDgrhEtgmGdf3k1p07CzQpjieH+URv+hBvrTsq+YozcmRZWszRygYd3vbGX1hxbQsbSBLuuxOt2a3cpfuoz8VZuo08uLKqkvi+NwqDr2sPGVVuKX7qTcKAOeX0/+0h20kEmB0xG+TIzzf1Aromrfo8w7tYPCjXuclZOK8f6vR7l5BWyYeYzi+j7NsSueybtb32eXcuoyTu9mUxvKuVzIYG0Dz+KhpjiDc+9qdSWFD3LvYAOlTcPk5hXwC44o46Q5uDP/ZTeb2rTfs4be1/oikcrHU2lTfZlEs/mRHDjQwLPKIbePw0GCh5rl8JJF3bWOxz4GTUGY/ZE5VuPaRyH4cwg1bkGYXozHljQeOgjAN998w+9/v4vXa2v59ttvnYeZVOykfnaDw566yF2zmnSrgNZ7GN9bnUF1fYd3sr8DmJXDmrugZ8YCVfc5TTvepFM1d9+/nrwk7fdA+15eOzKgznUfdF8gPf1We92sHNasWkCMam+Ue1ZQtkQ71kTvy83KR5eQCDB8nDqbw2sftzkGNyvXuBg6v4D0JIAA7ftqaf5Cb/ck1YcKiG8d5z0nYzG1c7scNk3ZXv2iALqVHU7QbPnNAPSxX9m13LwCfkIXs+9UdfrxIc73mboP6LZx8KMYsu7ULtios/UDF5UNLinUxAwbel8Zi6m9VxNe9ONNNFs+R/1l62cRnIjNUOMzrykcwfeBYBs/6j1oHLhyillEL9Hpao4Z8xvHHDPnsSunmKW8bZuHxvwPsy7c969nLp+TmHQrgfbjDKcvINGYm5b5al1Lo85Jx9q0jhvd0cuk/1CkD69FVO0r4OyqBhL2PQyvrEab5kVU7XsYTg2QlalNjBF9DVTspNHtp8WVSVYUQDcNS9ezBaWQLjUnUpcaR3n1QZb4LWuoYieNOX58yhH1Vu1lLa+GWWNPUn1oCX6fPjbV3n2cfKtzrCivPoinc/TrD3dMuPLLQQTKrpU9bDzSTVScc1VOZxLJcCiqumEBINDGH9XC/3RQN0LR5N4Wzc13FhjKqc3AMkzLB7pB6WOTYUwsKm1Qm/ESTWLsMCc69TEN0/zpMLNd+irt411lNJsHrOEH1jHYt6x2ne5jzlxlGjJSmdPdNarxFITrlRtvvJHS0kfYvm0riYn67TQY7+zgbVlXzn2knz+Mb8dOfPuOE+BzmtQN1X3/amJbd2p1Ow7DkmJyZ6mGSQuMuqbeW8lSW76unGKyzu9VbfbSk7LaEoIQQ/qMT4zzDaffjRvgiyO8tkPvZy89Kfdp/XS8qc6vOQdave5Ud7LfGLMd9/2rSe4OM4boBSSr8dW1Q/pdbkfrCdBmdUo1cvNyNJFh626Ka9u4SB/7dcGheCbvbt2t1b0LKy27ZHPu1Ove57OUhcYuWEmhJh4Uqzrute6QJTKfI0Zfs/9Gne9sB6V6P1sbOHFbDpsTYFe9Oj997Nfr9fG3aWPe9pFT1Y1m8yOL4d0wY0jJMMa3vzuRe8cIP2huOsZnKanm7l0IG7+r/tIdXZ3E9Fha1Hxon7FEmw+zclizBJr0uXcY8pzx37NyWLPkFtr36c7p6OsiccYQdYc/JyY9iaF9h+mLjmUWLnLXLAFjDjvWUrg56bnbXJs7dtod3YlQlM28geNsYQ9HT8G8H1ljBaLIijuu1NMG+jMLTDU0JQ1e0ZRTX6uLJXqMwfPrTbV1aQMoBXXLgVawKMfl7hS6juiKaxHZaXDyz6Ec3VFIKQjx0oIiElwj+GebYQ6hwjO6/COkuoOjBLr8I8TPDj7+cjBOZ3f60jwQgBQVWlCcwbl3rU/BFgOkjJSutoZnmJZaa5uxjURJ4WLmdCtjvLWBFucd46rQxybLmG0qQtsxWmI1Y1gyN8bisAuCEIq0tDSeefofuOmmmxw1WixceDUlFG7mJkHikvWUPbqeMosqBZqa+oG6+X9xXjceLjwpMcSkr1ZtHIoxAdo/1G/Ynew3HFc3Kx/V+3G2GS8u4mcE6Dmp67wDdHQHiI7TXZjPaTmi1Q34LxitNH7HuqXLxvEZTYCMVOaQyEr9IV+pqDoXPzqm7gUBzLSEMUQQi5jA2Q5KjR23yyloxDAzpo82477SR1t3NDN1hy2kEBMcLmeGovXR1p1Ihvq7ZG4in52+cjY+0P4nNdcs8yE+lpjeT4wdCTo+Uc6pRkz6aspWJdFjU/9HXxd9rWqHofcjS5tZxEZ/zmm1XqCT070xxMbrf4eZk/1DBJKWhE/A3LOJwnGEJHl/lAb+bgDq/nzK5pDCCC0HdOX0d6zT1VuA7sOGylq3cbW5PqyxsocKSNWP33OUk6SRXQTwJB5XKw0RjjEkVqfa10r8Uj2mN4W4KKeT/rA93heoOxc6yKlu42pe4WEaDznCHC4D43R2i6jKSaGrM1i6nuqUzE3kM+MJ2eqYagZgrKdiO8M0fwpZi8IrOuEwkrwyFoY0hKYyOxbD9A1FM99txun+5M5ozg041YHxMEzzpzFkZCSSEdtF85gOvyAIN9xwg7PIcOJe4eEg5WPAfwGSlmg37lULGD5shiNo27q6GrUT3w7rTT8cAdr3WduYilg43PcvIbFXV7D20n4pZmOSMKqgYYgM6ieiZN/xiyCTQtCwqct2EWbXB23MnpuoOfOxprN8pZk1I8TNLgSB9uP0YXVKdSayLiaAvuPxNix9dH14pzciishOiyIq81HNOS3LJCpKd0gnQhFVazOhdYfhaJqxtnvYeGRAU44rFoCh6l4G9hzl5Ij+Rzf+EbuT3tEdRdxt5uGoHa0R5eTbylU4Rb7Vsb9MRODs6tl4B2k8pMXrRvrUMpXYdbrP8pRuf+LdVf8+54yQhFCJYME0Nx2hJdZMQnMmr4Vi1wdtoPczdzDIENrq9fPpT+nFGdwck8GGx83EOvu4tRjdsdTlsWju7GL2vYuZ/WlvBDcDQbi+OXXqFL/57VN89dVXzioIo3C4b9NiEYMd005OW8ITImOAju6JhQYEzitvwXN3SGXXVGbHYoD+8zEkz9OPd7MoPYZhf/C1B6Pdf5wPBBMhrKDR1mULT4iMiYggGqMLGjEkRjyOAIMBU4klwcO9KcMMXoqTd7aXE7GplGSkjs/GX9IbBdzMTVLKf/8QgaQ7tFAawJVzJ4nDQ5iX1Mn+HYdhifVtIBNZF18wNHwrc/VzzMohKynAUL/jsHB8cYTXdughERbU5xD0toFQFGUzj1Z8RtjBMhpCOIbjpf+cpvJ6q5aYyi7A88fpT8umyg0dNh8uVAjFOKgoICtqgLN7APZwdiDKcq4n8aQEv80rNS7KGGck5ZeDcSaoTR3Gk1QSKhksOFhfEITrkfHYEmuCWs3LL7N7d934E9RCJIHZkmes27R6ss2sHNbcB4dUUpgtmceZVGMk/agEtbdDqGDWBLXe47TPSLIfZ0tgU+dzJLWBNYHHPm5bgtqjd3BaD5/wrKDstk8ssZATTFALhSXRS8dI6HLU6YlgwYnG1vuEPTmMQBvbXu6gOURil4E1Qa27jZbY1OD7jkpq0xPUbGWKcAlvtnJLwrL9OkZH6w9aasdWqk207ym1uyFk0pITV04x3nRzppjz21kXJkFNzTVs8yh4Xcy6fz1zP93JfvR5hTnfHPPVvsZCz0nnuM15rBhHgpq3ai9lcYftn5eR+NWtJagZCWsWRkkOsyaojbS20p8ZR4dFJS2vPkgBIb4j4w0KVkVVfafW40Za8a3aBFV7KcuMUoWWBDkwXmSgJc+ZSXJmdai+NK5kgpo4u4ogg2IYLkEQrmfGY0t8L77I119/TWVlJd09Pc7qYIJuXMEOqCunGO+Mjy49Gea6xumoiqBxeRnfm5rsD2PC1UG94SGUAx3O+b7saPMk7kgoh3a0uktHnF1BEIRRuLK2xFRBdAXEqR4Fv8ZLmAgiaFwhlJpovBorAsTZvZoE25hwXEllldFecaYr0ko5vmzxxBbE2RUEQRgFsSWCIAhTmwgS1ARBEARBEARhaiLOriAIgiAIgjBtEWdXEARBEARBmLYEx+wePeo8ZkqSnZ09ba5FEIRrh9gSQRCEqY0ou4IgCIIgCMK0RZxdQRAEQRAEYdoizq4gCIIgCIIwbRFnVxAEQRAEQZi2iLMrCIIgCIIgTFsidna9z9XT2NhIY2Mj9c95ndXCNSY3bzm1pQvIdVZcRSbDGARBEARBEKxE5Ox6n6unLO4w+fn55OfnU/irK/E/F18dDIcsYQE1Tyxnc4LziMlLyapiKjOcpZMc43OOYXNpMTV5Mc4jBEGYRrhy1lD281xczgrhEpgM9nMyjEG4NpRT3VhNubN4nHifq79mYmkEzm45BZn9NPxii7Ni6jIUoNlZNsVpbjpAcc3xa3pd4ccQoO+ss0wQBPBSVa/tmFVXOOsmL+4VZaz0OEsnD1NzlymJyidyKHEWTwmSqHzi2okxk30+ThRtR72eqiJnzdXES1V9ARxch+YFmjbL+mPar3KqjXL72Ot+9Qon08qCbV1FtXZ8fRVXyhUe29ktSiC+20+CcXHX+oO/TJwNcM7mhGlPrbVPWH5WJYWsMxZ0wgJqVi2w1NkNVckqs435NBzD5tLlbM7LCa5LWECNpX+jPEM7dmUKzPmxsy/NyNQ+URzCuNvHbY4hicrSBWw2xheBwp2wgJoQ16d9FqONQSdA3xCcGwg4KwRh2rBjxw7+8R//keTkZGdVaCoKyBpoID8/n3XPOyunJgNHXsP3v5sZcFYIl0CAZ2tqKW26lvZzMozhesJLdlo/DQf7mXf3lXIBx8b73FqyBhos9qmOjYXaLr/246NlZAT/p/rxS+CgVudrhawSqwNbx8ZdLcQvc6jEz6/TzkMWBU5H+DIx9v+gVlFN47JUug4qY1xRTWOuH1/hRiZzMMN4/9ej3LzlbIg7RvG+Xs2xe2gm775whF3Kqcs4VcumNpRjt5DB1w/wLAuoeWgh597R6kpWFXOv/wClTQFy85bzC44ow6A5uDM/rGVTm/Z71tARrS+SqHwilTbVl0kMm0tz4K0DPKsccvs4HCQsoOZ+eMmirFrHYx+DpiDMbjXHalz7KAR/Do5xhxiDIEx1xmNLGhsbAfjmm2/4/e9/z+uvv863337rPMykopr6hAZHaJiL3J97SY+2FPU24XuzM6iu7z0f+zuAWbmsyYaeGemqro8m3346VXP3ijLy1LN7oK2O144MqHMtha5h0jMS7XWzclmzOh398dgo96yk7B7tWBO9Lzcry/JIBBhup87m8NrHbY7BzcqfxzN0Pp30JIAA7Xtfo/kLvV051Y0FxLf6xhc+l5FDbVqXw6Yp22vdhe9WdjhBs+U3A9DLfmXXcvOW8xO6mJ2p6vTjQ5zvM3Uf0G3jYGsMWZlapVFn6wcuKhtcskoTM2zofWXkUPtj7cvTjzfRbPkc9Zetn8VwInahGp95TeEIvg9YbPyoYyDk/WpijDYfws0hbX7PPaOtBVfOGrwZmO2sc1afl7NyWZMfyzCJJEb30d4WTXpGjLmebPPcXEuunDUsoofoDLU2jHWJNnZ9/jvGB1D+UiMFrpbIfaeiKurvP0vhWwnUl8AreruKaho9flpcWWRFAXTRkK+prt7n6lnLSfozs0gFGNH781JVX6aOt5QXVVH/yzgOq/aaaltGXLP+8O2lqn4t7Cpk4x5jZHYqqmn0dJAfave/qMo+dkX5S414OoIf8MOVXw7GVnbRPpgGvfPnO+iKitM+yOuCJDIciqpuWAAIHOOPyvn81K8bgBhyb4/h5szlhnJqM7AEaHlfNyi9bDKMkEUhDWozXmJIjA1wolMfU4DmMwFmu/ST9vKuMljNNrXVOgZ7fNauU73MSVN3zIxU5nR3jWo8BeF65cYbb6S0tJTt27eTmOh0Dk28CfHOIlw5S0k/34TP58O3t50AfTSpG6p7hZfYFp9W52uCe9aQO0s1TEo36pp6E8nK0aJmXTlryBqqU23q6En1WrZ8Y0iPPW2cbzhjEW6AL5p5zaf3U0dP6lKtn4796vyao63V6051J/uNMdtxr/CS3BVmDNHpJKvx1bVBerbb0XoCtFmdUo3cvBxNZHihluLXj3GRXvbrgsNDM3n3hVqt7h1YadmhmpOp1x3hs5SFxi5YySpNPChWdfzYukOWxHzMvmbfpc539jilej8vHODE7TlsToBd+9T56WW/Xq+Pv007z7ZW56eqHMx3wowhZaExvv3dSdw7Rqxtc9MxPktJNXfvrDY+7Bh0Ajxbc6mOrsIyH3zvDZOer8V/jzqHdDwr8WYM0+RTju6sXNZkDVGn5nJdVzLeFWp+RSdCSx3tw4mkx7ZQ1xYgOs6ltbkHmvT5/x7kWWLQEzNiaVHrpS8py1h/rpwsotv08flsju5E8N49j/6OLbDnKCeZR7Z1Rz1lHuzS1dN4lljiYKMy4+hQqmvDgK6U2tVY36l5rH3OC3s2crg7FY+uphZlMw+Lv1eUzTxOcjSco4uXqtx4Wt4K4eiqa4gaOBvk3Hf5R0j1BEcAd/lHiE+4Mir22M7up35GnGXTkOaBAKSo0IKHFnLuHetTsMUAKSM19qIO0PK6tU0YRdZCyaoc5nQrA/nCAVrC2ZUrSi+bLGO2PcG3HaMlVjOGJWkxFoddEIRQpKWl8cwzz3DTTTc5arS4trW8Mg7F0s3cJEi8p4yysjLKLCoSaKrVBx3ar18M6evWhSc1hpgMr2rjUIwJ0H5UV6Y62W84rm5Wlun9ONuMFxfxMwL0nNRv/gN0dCnHAoA+WpRjMOAfNlppbGHdlU6KzkhlDkms1B/ylYKpc7H1mLoXBBg0zOEYIohFTODscUqN3a7LK2jMjOmlzbiv9NLWHcNM/eEnpBATHC5nxtn20tadRIb6uyQtic9OXQsbb84HOk7TFx3LrDHnkFoX92Db0XDNSyYmOh2vmsveDMsHbqwX6xoA4mOJ6T1tnMMcg0ag7QNV9wVDluk64B/W1pnuTDvY8ot88iNVdfGSnYYKDajj6CnsoQzdhw2lte5Xhbb1MdLaoFRarU9dJS1/yYyvLcvUJV7Y0tFlOJ7eu+fR3xzpGFUYVjhnuKKasjD5XnVn+51FoK7lFdbSeBmS4ZyM7ezuOcpJSxyF97klpHZ3GB/mdKEkLYnPjCdkq2OqGYCxnortBGg+A1mL7UYzEi7qRilD336yYyqzYxGgbyiG+W79+CR+khlziTGzAZrPxJCRkURGbBfNYzr8giDccMMNziLDiXuFtUHZyQP+YUjK0xzN1ekMv2fevLUtVV1R9eHTFaxRCdC+19pGbdWOgntFHom9Sl321dHu9EGnIKMKGobIoH4iCsUavwgyKQQNm7psF2F2vX+M2WlJmjMfazrL14xZ8UT6nNXX1k6AaOJ1r1QRsKitPp/PEnZwmVG7Hr4zc7W1G8bpjYiibOZFRZH1S9M5jUrLnnjyVkU1BSldNOjKbqtFwny+gRaXh3K8ZMedNFXdMfFSlZtKVyjnuKKaxmXxtLyoh0fY8SbEM+LvcharMIxXyDfCKi4fYzu71LGxsAGWqQ897SS+EJ76VGfXqV7LU7r9iXfXviOcM0ISRkvCMmluOkJLrJmE5kxeC8Wu94+B3k/aYJAhtNXr59Of0h9ayM0xC9nwhJlYZx+3FqM7lro8Fs2dXcz+cQ6zz/SaN4NRxiAI1zOnTp3iN7/5DV999ZWzCsIoHO7bEy0hAlbHtJPTlvCEyBigo2tioQGBIeVFexaFVHatqtroDNB/PobkefrxbhZlxDDsj2SbV1PAnQ8EEyGsoNHWZQtPiIyJiCAaowsaMSRGPI4AgwFTiSVhAfemBBgc8+FnFM72ciI2lZKMVLuNvwQ0RXFiSp1rXrJSWSOYQ/5mXtvbQ/JqM7Rn4GQP6KE5kdI/RCBprtHGlZNF4vAQEX+sHfu1UJ4Z8bbX75W/FPnbBrx3z4NWnyUJrOHSw0dH/GjuZTkFFmVXU47j8TyXTZz/qN1xDRVCoVNRQJY15EGnqIr6ZfG0vBg+zjc1Lor+s0Euctjyy8HYCWpTlPEklYQKrg8O1hcE4XpkPLbEmqBWU1PD7t27x5+gFiIJzEiccSTB2BNu4JBKCnPlrGEphyyJaNZQBD3hRiWoNYZQh60Jar3ttM9Ith9nS2BT53MktYE1gSdc8o6blWVzOa1vPXtWUnb7aYv6NsEEtVBYkqx0jIQuR52ehBWcaGy9T9iTwwgcY1vNcZpDJe/qWBPUurWwsKD7jkpq0xPUbGWKcAlvtnJLsrD9OkZH6w9aXg8zLoWZkDc63ufqKctkVOfHJMz8DlEXLkFNXz/6mtES1syx973nY3+/vl468Kg10DHPXDP2NvYENfu6MtePNQnU6MeygxJ5gpozSUzDSN4ifEKYrowGrxVrgloXLa3xzLMeV1RF/S/ncTLEd2T8Pwu2/kKP0d6PifGCA/S+rElxJlcyQU2cXUXQYjYMlyAI1zPjsSU+n4+vv/6ayspKuru7ndXBBGUyBzugrpw1eGNbrtz263WB01EVQeOqUVFN4zKMNwaMjuPhR7g6BNkhK+Ec24kw2rlGq7t0xNkVBEEYhStrS0wlRFc/nEpU8Gu8hIkggsbVRp/b5quxxkac3atKhfZqWfMVZeEop7rRQ0fE32NowirPEY9j4oizKwiCMApiSwRBEKY2ESSoCYIgCIIgCMLURJxdQRAEQRAEYdoizq4gCIIgCIIwbQmO2f3wX5zHTEmy7/qbaXMtgiBcO8SWCIIgTG1E2RUEQRAEQRCmLeLsCoIgCIIgCNMWcXYFQRAEQRCEaYs4u4IgCIIgCMK0RZxdQRAEQRAEYdoyprPrrdpL46GDjp+dlDsPFK4puXkF1D7iIddZcRUJP4ZEKh9/kMoMZ7kgCIIgCMKVZUxnt27javKXLjN+fK0jjLQ2XNL/j3wtMRyyBA81jxewOcF5xOSlpHB6OYxT+bsQBCE0rpxiytbk4HJWCJdANJsfeZCavGhnxVVktDGIoHG94q3aS31VkbN4nDxJ9RUWUcd0du08SUHmAIc37nFWTC2GAjQ7y6Y4zU0NFL/ccU2vK/wY+ti0dTeb2pzl0/O7EITIKaJqn7ZjVl3hrJu8uO9fz0qPs3TyEH6XaTKTSOXjiylxFk9xrul3MSuHNdPywetJqg8dpLH6SWfF1aViJ2Vpp3jF6hMWVVJviQSwOsLl1eEiBH7HukNQsK8Sr1Gmobe5VId6fM5uxQLip7Cqa+NsgHME6DurF2hPrbWPW34KE0PWGU+vCR5qCj2WOruhKik025hPw9FsfqSAzXmLg+sSPNRY+jfKM7RjV6bAnHudfWlP1LWPPxjCoNjHbY4hkcpHPGw2xheBqprgoSbE9WmfRfgx5OYVBH9uToK+C0GYmuzwvcg/bt9OcnKysyo0FQVkDTSQv3QZ6553Vk5NBo7U4nvtCAPOCuESGObZl3dT2jTsrLiKjDaGUQQN4fKjfLEW14IrqoaOzpNUL3XR8som6oyyIqrWZtJ/SI8GaKA/s0AbY8VOClyt+IwoARdLrA7s8+tpGMhkrcOp3bJuGfm+VtDPM0HG8T+oFVG172F4ZTVTQdgd7/96lJtXwIaZxyiu79Mcu+KZvLv1fXYppy7jtL6QE6l8fCGDtQ08i4ea4gzOvavVlRQ+yL2DDZQ2DZObV8AvOKIMg+bgzvyX3Wxq037PGnpf64tEKh9PpU31ZRLN5kdy4EADzyon0D4OBwkeapbDSxZl1Toe+xg0BWH2R+ZYjWsfheDPwTHuEGPQGXXsgjCJGY8taTx0EIBvvvmG3/9+F6/X1vLtt986DzOp2En97AYKbUbVRe6a1aRbd4t7D+N7qzOoru/wTvZ3KAXrLuiZsUDVfU7TjjfpVM3d968nL0n7PdC+l9eODKhz3QfdF0hPv9VeNyuHNasWEKPaG+WeFZQt0Y410ftys/LRJSQCDB+nzubw2sdtjsHNyjUuhs4vID0JIED7vlqav9DbPUn1oQLiW3c4PqMxyFhM7dwuh01Ttle/KIBuZYcTNFt+MwB97Fd2LTevgJ/Qxew7VZ1+fIjzfabuA7ptHPwohqw7tQs26mz9wEVlg0sKNTHDht5XxmJq79WEF/14E82Wz1F/2fpZBCdiM9T4zGsKR/B9wGLjRxlDbl4BG5zXaSXkdzF+XDnFLKKX6HQ1L401gTaP9LnnXBf3waHXjjCgHzPGWnLlFLN0xgVIupWY3uO0z1hAerQ+x8PNY3DfX0z8+RBrSY3dm65PPPvapKiS+jLNQYz0gbe8ei8JB1ZzdvlBPJ1mO2/VXtZyiv7MTFIBRlrxrdpEHU9SfWgB/lYXWZlRAHTp/VXspHGpOfn0cm/VXsriDpO/7ndaRVEl9WVxHF66XhM8K3bS6D5u1ivKqw9SQINWXrGTxhy/NoaiSurL0jjpW83GPUVU7XuUuCOOay6qpH4tvLLK6kCj7MACOvS+J0Dkym5RNvMGDk8JR/fykkiGQ1HVDQsAgTb+qBb3p4O6AYgm97Zobr5TVzUdBpZhWj7QF34fmwwjZFFIg9qMl2gSY4c50amPaZjmT4eZ7dLvoH28qwxW80DAaGUfgz0+a9fpPubMVeYkI5U53V2jGk9BuF658cYbKS19hO3btpKYqN+Cg/HODt5gdeXcR/r5w/h27MS37zgBPqdJ3dTd968mtnWnVrfjMCwpJneWapi0wKhr6r2VrBzt3K6cYrLO71Vt9tKTstoSghBD+oxPjPMNp9+NG+CLI7y2Q+9nLz0p92n9dLypzq85B1q9fuPuZL8xZjvu+1eT3B1mDNELSFbjq2uH9LvcjtYToM3qlGrk5uVoIsPW3RTXtnGRPvbrgkPxTN7dulurexdWWnao5typ173PZykLjV2wkkJNPChWddxr3SFLZD5HjL5m/40639kOSvV+tjZw4rYcNifArnp1fvrYr9fr42/TxrztI6eiGs3mRxbDu2HGkJJhjG9/dyL3hoy1NWluOsZnKanm7p3Vxocdgwpf27qb/d3OGkWI72KiJKbH0qLmUPuMJWoOuchdswSM+ehYF5jHRLfvNRzk0dZSTBK07DtOIGkBsa17aR++hfhZY8xjYkhPGaJOrQH0tYSbRekXaDLWk8XRnRBP4nGd4uge2NLZTarbHsoQlRlHh1JPGwYyKTDCo1KYx6ua4uprJT5HhQw8v96Sl9UAS7XwgrqNh+lKMZVj74/SwLKzX+5OoavT7uiilFiff4kWquA+Tr7uuO7ZROHSw8SVHaTx0MPwSgjnfs9f6Y9KIzsoYqEb/4iLhKDyyInY2fX+KI3+EBc2XWgeCECKCi0ozuDcu9anYIsBUkZKV1vDM0xLrbVNiCdeByWFi5nTrYzx1gZanHeMq4K2HaWP2aYitB2jJVYzhiVzYywOuyAIoUhLS+OZp/+Bm266yVGjxdyt5dVxKJZu5iZB4pL1lD26njKLkgWamvpBh/brF+d14+HCkxJDTPpq1cahGBOg/UP91tvJfuNG7Gblo3o/zjbjxUX8jAA9J3Wdd4CO7gDRcbqj/zktSgEb8F8wWmn8jnVLl43jM5oAGanMIZGV+kO+UjB1Ln50TN0LAgwaNnkMEcQiJnC2g1Jjt+tyChoxzIzpo824r/TR1h3NTN3JCynEBIfLmeFlfbR1J5Kh/i6Zm8hnpyeXjQ+0/0nNT+scmkVs9OecVnMfOjndG0NsvPozegHeRzUnVVdax1pLRj+WNTX2PIa+VrWb8cUA5if+BUPDt5L3qNMBV+zZROF4wpgqFpA68FfNgXz+uM0hBWwvENiyznrebjPfas8mCnUn1BZjW6ApwgD8jo7uFDwVAEVkp0WWr+Wt2ktZ2il8S5fRQAGNRhyutkvDoWXk+04xryxUnkI3/hFnGcAeNq56FdZOPE45Qme3iOw08H/qLJ8+lMxN5DPjCdnqmGoGYKynYjvDNH8KWYvCKzrhuKhb04yFIQ2hqcyOxTB9Q9HMd5txuj+5M5pzA8FP5pEzTPOnMWRkJJIR20XzmA6/IAg33HCDs8hw4l7h4aDEiwH/BUhaot2EVy1g+LBVCfrcohDtxLfDuuUfjgDt+6xt1BbvKLjvV9u9uop2KWZjkjCqoGGIDOonRChWMOMXQSaFoGFTl+0izK4P2pg9N1Fz5mNNZ3kyMmtGiBtkKIaP094LMTOcnuZE1tJEGKD5tZ34drwN962nLJzTGyHl7hRIKbA4p7pDOhG0GFtadxjKbpeldsuBVuLdT0JRNnGnIsnXepKCTIw43i3rdtCCpi57q5aQ2t2gOd97NlF4qJtUXV02SCEuaoCzQT61Hka7LChsIlIidHbDDWD6sOt0n+Up3f7Eu6v+fc4ZIQnBSVihaG46QkusmYTmTF4Lxa4P2kDvZ+5gkCG01evn05/SizO4OSaDDY+biXX2cWsxumOpy2PR3NnF7HsXM/vTXvNmMMoY9CQ9M7kugmQ4QZgmnDp1it/89im++uorZxUAdeeC07jct91qCRGwOqadnLaEJ0TGAB3dEwsNCJxXd37P3SGVXauiNToD9J+PIXmefrybRekxDPuDrz0YTQF3PhBMhLCCRluXLTwhMiYigmiMLmjEkBjxOAIMBkwllgQP96YMM3gpDtvZXk7EplKSkWq38VcCpShO7Lt1MzdJV1k15XSuHk4wK4espABD/ebRHW/tpIkllN2vr4OJraWJz2MMp7fJqjpjfg7BKmconsST0k2D43Ww8bMn8hma9J/TnDtv1RKLsgvsOcpJ1wKqfhSH/892BzBUCIWmzEYRd5v+dwpxUSP4P1W2zvU9w7n1znaBrlDrFH2P+BG/zeHWuHQfdBwJalOL8SSVhEoGCw7WFwThemQ8tsSaoFbz8svs3l03/gS1EElgRsKNIxHHSASzJeKoJBvetiSiWUMRrMk298HbIRQta4Ja73HaZyTZj7MlsKnzOZLawJpEZB+3LUHt0Ts4rYdPeFZQdtsnlsSjCSaohcKSZKVjJFQ56vQkrOBEY+t9wp4cRqCNbS930BwqeVfHmqDW3UZLbGrwfUcle+kJarYyRbiEN1u5JVnYfh2jo/UHLbVhxqXQ+wpOrhu2tQ2P9t2mdqtkpjGwJ3lZ14RzPoZLUFPrAD15MvRaQl87J92qbSceY52Em8daEujcT63rVM1r57pwJm+OJ0HNmvCll1mSuqjaGyY0apQEL0uC2khrK/2ZcbbjjLCEkEljS/D7HC8tUNejpcFZEuH05DV9rhjJcybl1QdZ4g+11kcZf4SIs6sIWsyG4RIE4XpmPLbE9+KLfP3111RWVtLd0+OsDiYooznYAXXlFOOd8ZHFARTGj9NRFUHj2qNl5M87Fcq5Ccb+ACdcLcqr7W98sBHK+Z4oo53L+SaICSDOriAIwihcWVui3fCzokwFxKlgBSlBwoQQQWMSodTEkXEo9uLsXl10FXas70h73VkoNXk8hFduIx3HWIizKwiCMApiSwRBEKY2ESaoCYIgCIIgCMLUQ5xdQRAEQRAEYdoizq4gCIIgCIIwbQmO2T161HnMlCQ7O3vaXIsgCNcOsSWCIAhTG1F2BUEQBEEQhGmLOLuCIAiCIAjCtEWcXUEQBEEQBGHaIs6uIAiCIAiCMG0RZ1cQBEEQBEGYtkTm7BZVUd/YSGNjI431VXid9cI1JzdvObWlC8h1VlxFwo8hiconiqnMcJYDGTnUPpFDibNcEARBEAThMhCBs+ulqiSL/oP55Ofn0zCQxdrnpq67azhkCQuoeWI5mxOcR0xeSlaFcRinHaZzXLKqmNpVSc4DBEGYpLhy1lD281xczgrhEohhc2kxNXkxzoqryGhjCC9ohBdBhOlO+UuNVFc4S8dJRTWNL5U7S8dNBM5uKnFRXXQ8r/21paOLqLhU50FTi6EAzc6yKU5z0wGKa45f0+sKP4ZeNr1Qy6Y2ZznQdoTiF46wy1lOgMEvnGWCMN3wUlWv7Zpd8k3hKuJeUcZKj7N08jA1HawkKq+rXa7wDvLVYLLP4QmjduLrr7Eo6X2ungIaWKd8R72sUY8ScDqw4SIInl9HAwXB12McX00krnAE/6mEl6r6MuKa81n3vOapezq03ycz4V4En5u3nA1xxyjeB5VPpNJmOFoxbC5dTpb1obX7CMX7eoPqPntHOW4JC6hZDCdiF6q6XvZbHLeSVcWsTNF+v9h6gNKmgDpXDpwJkJWpKZZGXcICah5ayM2qvVGekUPtj53qpt6XZiDnAASOsc3mbNrHbY4hicrSGAaHFpKVAhCg5fUDPHvWaBhMwgJqHprJu47ryzhVy6a28GPIzVvOhkxtAMbnBo6x2T83zQguZPD1AzS7l/MLjqhxC8LVJ5wtCcWOHTv4j//4D5599ll6enqc1cFUVNPo6SD/F1ucNZMa94oy5p7xsb/DWTM5yM1bzobbuxz2cLKT5LgnTXe0+wa2+8LVY7LP4Ynifa6egrOHITeBhsKN1DkPuBoUVVH/yzgO56/DsGwV1TTm+vGpMdl8yVDH2yinunEJ/hcL2bjHUfNSI0v8Pgp/NfqVRuDsojoqIBUYaR37pJOB8dygsDnBvUGOnenUYXPEnkVzTs+pxVqyqph7/ZpDmZtnddI0x27mh7VsalNO3pDuSIczcMopfst0Qu3jcJCwgJr74SWLcbeOxz4GzcjMVs6v7dpHIfhzcIw7xBh0wo89xHkEYRIxHlvS2NgIwDfffMPvf/97Xn/9db799lvnYSYV1dQnNDhsqovcn3tJj7YU9Tbhe7MzqK7vPXWznpXLmmzomZGu6vpo8u2nUzV3rygjTz0vB9rqeO3IgDrXUugaJj0j0V43K5c1q9PRn/2Ncs9Kyu7RjjXR+3KzsiyPRIDhdur+dzMDxjH2cZtjcLPy5/EMnU8nPQkgQPve12g2dnW0e0/8eO87GTnUpnU5bNoogoZNaDAfvnPzlvMTupidqeoMAST4fObDvGbTBltjyHI+6IcRNKzCiIHel0XsMAULHYvQ4OxnFCEmFMH3AYttHmUM4QWN8CKIRvA9bqK4V6whfijEPFZhNd4M9SVZ5qXV2dWOwZx7tvlvnd9zoTeRxKQA7W1af7a5rM//iNemvY113CjHtSyzn4awTqATL1X1BZwtbCChfi3s0p3DcqobPfhb48nKjAKg66DmaHqfq2ctJ+nPzCIVYKTF5pAWGPOyS40j2PF0OpzaOV+xrdmgMsuDfiQialD7McqdjB3GUFRFfaOHjnwtZvcV1gbLz9OaJDJSYM6Pi6l9ophai2EBbRH/US3uT/26AYgh9/YYbs5crto4DCwBWt7XDUovmwwjpG3rhG4zXmJIjA1wolMfU4DmMwFmu/ST9vKuMljNA07jqY/BHp+161Qvc9LUHTMjlTndXaMaT0G4XrnxxhspLS1l+/btJCY6nUMTb0K8swhXzlLSzzfh8/nw7W0nQB9Nb6pb4wovsS0+rc7XBPesIXeWapiUbtQ19SaSlaNFzbpy1pA1VKfa1NGT6rVs38aQHnvaON9wxiLcAF8085pP76eOntSlWj8d+9X5tZu5Vq/fuDvZb4zZjnuFl+SuMGOITidZja+uDdKz3Y7WE6DN6pRq5OblaCLDC7UUv36Mi/SyXxccHprJuy/UanXvwEpLCMScTL3uCJ+lLDTyPEpWaeJBsarjx9YckCTmY/Y1+y51vrPHKdX7eeEAJ27PYXMC7Nqnzk8v+/V6ffxt2nm2tTo/VeUsvhNmDCkLjfHt707i3pCxtibNTcf4LCXVDKOw2viwY1Dhay/Usr/bWaOFr2mfdSgCPFtz6Y6uRgzpqUPUGfNYzVfPSrypParcR11XMt4VjvnlWYk3Y5gmn/6Q5Wbl6lha9Pn/HuQZMeiJRA/V0dSr+nuvj5jYWephLg+MNRHp2swiuk1fFz6bozshirKZN9DBFuo4egrm3W3d+k9lHq+Qn59P/ostxOeaoQJRmXGGj9cwkEWBCqna8gutLD8/n/yDUPBSObCFhlbrucvxpHRx2HA2vWSnwck/BTufZgisl6pc8/cE1wj+hGojxCEoZAGoO9tPVFp20AsS6s72RxRaO6az6717HrQ2GE8Vdb86TFeKJ6IYialE80AAUnI0J++hhZx7x/oUbDFAykiNvUADtLxubRNK1bRTsiqHOd3KQL5wgJZgu3IVUAZK/dhUhLZjtMRqxrAkLcbisAuCEIq0tDSeeeYZbrrpJkdNOdWNjREpEiZu5iZB4j1llJWVUWZRhEBTrT5QW7JfDOnr1oUnNYaYDK9q41CMCdB+VNd/O9lvU5z0fpxtxouL+BkBek7qN/IBOroCRMfpKWx9tKib/IB/2GilsYV1+fnj+IwmQEYqc0hipf6Q7wgZu9h6TN0LAgwa5nAMEcQiJnD2OKWGqnl5BY2ZMb20GfeVXtq6Y5ipO1ghhRil+loEDTNmtpe27iQy1N8laUl8dmrq2Pi+Fn0noZPTvTHExoMrLppAV4exwzBwsofAjHgjeTLxnjLK7sG2C4JnLokkkqfPf9tOhjlXzf4AZhEb3cdpIyTCHAOEW5vafI/J8FLmdMAVdb8qJD9iVVf5a/4uAOr+dBJszqHFId2zkUJLiMOIxcfb8gtTYbXF2C4zHUrbuSs8xFvah6PuV6/Q4ipQ51sLp7RxanlhUWTFdSjHuoH+zLVUFTlO8KmfEUcRaDG9+R0eGhvrg9tYGNPZrTvbT1RmgencVnhIHfGjD3O6UJKWxGfGE7LVMdUMwFhPxXYCNJ+BrMXOONuxuagbpQx9+8mOqcyORYC+oRjmu/Xjk/hJZgznbCrueAnQfCaGjIwkMmK7aB7T4RcE4YYbbnAWGU7cK6wNUjEG/MOQlKfdaFenM/ye5UZMH02G4urDZ6hRoxGgfa+1zdhxiu4VeST2KnXZV0e70wedgowqaBgig/oJ2nIPxfhFkEkhaNjUZbsIs+v9Y8xOS9Kc+VjTWZ5auIif4SwLTV9bOwGiidcfEHSMua9+bCE5lxG1U+I7M1db72Gc3sjwkp0WRVRmmeZQ/jKLqKh5ZI/iAI5KURVrM6HlRV3ZtXh9ezZyeEA7d7kHi6o7GnVsLNSV4kKOEs+Ivwvowj8yQstbhrtNR3cUcbc5mt8WR9TA2eAYZD0cIj84ntfKmM4uz6/D1xpPgeHdc+2Cnq8gu071Wp7S7U+8u/Yd4ZwRklAcUZZvc9MRWmKVYVVP/mNl2e56/xjo/aQNBhlCW71+Pv0p/aGF3ByzkA1PmK/qso9bi9EdS10ei+bOLmb/OIfZZ3rNm8EoYyhZpV3/SkMF0bfZdIUjx1RVIvhcBWEqcerUKX7zm9/w1VdfOatAiQlO3LcnWkIErI5pJ6ctW6CRMUBH18RCAwJDyov2LAqp7JrK7FgM0H8+huR5+vFuFmXEMOyPxH3QFHDnA8FECCtotHXZwhMiYyIiiMbogkYMiRGPI8BgwFRiSVjAvSmX+Babs72ciE2lJCPVbuOvMpqiOLpSF5ZZHpKVyjrgHyYm1WMoue7sdGLO95uOq7+Z1/b2kLzaEnLQcZq+pCzz74j4gqHhRObqoTmzcslKCjAUvLxD07FfC/+xqM4Yn0NkbxugKJt5tODTww7y82kI5TSOi37O7sERdqCxpaOfeXdX4aHDoeqGCqFwUFTF2sx+5STXcXYgyhEWMYL/U3sTb4LuHEdW7iTCBLWpx3iSSkIFygcH6wuCcD0yHltiTVCrqalh9+7d409QC5EEZiS7OBJajISbWbmsyYdDSoFy5axhKYcsiWjWUAQ9QUYlqDWGUIetCTq97bTPSLYfFyqBx5HUBtbEunCJOFrSz2l9G9mzkrLbT6s2TDxBLRQh3mpjJFQ56vQkrOBEY+t9wp4cZiZhjZJ0a01Q69bCwoLuOyrZS09Qs5UpwiW82cotycL26xgdrT9sb+gZbQzByXXq7T4qgVsfGzgT/EahoprGZalGEtVYWBMwnUmOtrowCWr6mjPWmWMNavN1ljFX0dtima+O+W9LUAuzNu3jtq5zjfEkqHmfq6cs7rD9zS5GEhhUN3roCHGe0RK8zAS1EVpa+7VQA+P82tok1HcU8u0K5osOzGQ3He2tX1la7lyI7z04KU5ntPFbEWdXEbSYQ2aPCoJwvTEeW+Lz+fj666+prKykuzsoYyeYoFePBTugrpw1eGNbLA6gMH6cjqoIGpOaoirqfzmPkyGcm1BM19eITWqKqqgvgVfC7PSHdL4niPNtD5HWWRFnVxAEYRSurC0xFQ1dzbC9KolQr/ESJoIIGlMDTU0coSVCRxdxdq8uRVXU/zKLqCB1NphIXik2JkGCgGIc40CcXUEQhNERWyIIgjC1GTtBTRAEQRAEQRCmKOLsCoIgCIIgCNMWcXYFQRAEQRCEacv/HzLCTCTJLZYeAAAAAElFTkSuQmCC;imageBorder=default;" parent="1" vertex="1">
          <mxGeometry x="-1600" y="700" width="468.08" height="150" as="geometry" />
        </mxCell>
        <mxCell id="Ck-phii_mFnEi6swG2RC-4" value="indexedDB.js" style="html=1;whiteSpace=wrap;fillColor=#f8cecc;strokeColor=#b85450;" vertex="1" parent="1">
          <mxGeometry x="-1039" y="410" width="110" height="50" as="geometry" />
        </mxCell>
        <mxCell id="Ck-phii_mFnEi6swG2RC-5" value="localStorage.js" style="html=1;whiteSpace=wrap;fillColor=#f8cecc;strokeColor=#b85450;" vertex="1" parent="1">
          <mxGeometry x="-869" y="410" width="110" height="50" as="geometry" />
        </mxCell>
        <mxCell id="m28JvNQTBr0kOilScQr_-5" style="edgeStyle=orthogonalEdgeStyle;rounded=0;orthogonalLoop=1;jettySize=auto;html=1;exitX=0.5;exitY=0;exitDx=0;exitDy=0;entryX=0.5;entryY=1;entryDx=0;entryDy=0;startArrow=classic;startFill=1;" edge="1" parent="1" source="Ck-phii_mFnEi6swG2RC-6" target="dkuEHb9_eLDDzL9_QjhF-36">
          <mxGeometry relative="1" as="geometry" />
        </mxCell>
        <mxCell id="Ck-phii_mFnEi6swG2RC-6" value="ui.js" style="html=1;whiteSpace=wrap;fillColor=#f8cecc;strokeColor=#b85450;" vertex="1" parent="1">
          <mxGeometry x="-695" y="370" width="110" height="50" as="geometry" />
        </mxCell>
        <mxCell id="m28JvNQTBr0kOilScQr_-1" value="" style="shape=image;verticalLabelPosition=bottom;labelBackgroundColor=default;verticalAlign=top;aspect=fixed;imageAspect=0;image=data:image/png,iVBORw0KGgoAAAANSUhEUgAAAqIAAAEeCAYAAABR4XdgAAAAAXNSR0IArs4c6QAAAARnQU1BAACxjwv8YQUAAAAJcEhZcwAADsMAAA7DAcdvqGQAAF97SURBVHhe7f19UFx3nuf5vn1nZ1GCZSDByIgHFUIqQC2lkAsWe9HiVZSA8Kgt8K2xuiu0dwQTUNsTQYXqDu5xOXpMKNB2uDTXmttEETM3CmIkxwzhanu6C+RSO5BU4S5CDhUNZUspjQRlIdk8SBaGBIQgYXY3+v5xzsk8ecjkSUgI8XlFELZ+v/PwywQO3/z+np7ZuXPnP7744ov8wz/8AyIiIiIij8szViAqIiIiIvI4/T+cBSIiIiIij0NIRvS//bf/5qxfk/7oj/7oqXktIvLo6FkhIrK6lBEVERERkVWhQFREREREVoUCURERERFZFQpERURERGRVKBAVERERkVWx/gLRg/W0tLbSan41/tgoLjveQsvxMufRK6yGxtYW6g8CP24MtKG1tZXWlnoe9d2DamhsbaTGWfyUWPr3coXej4P1tDzC72PZ8RYafww1jcGf27XtFU7/ZT2nX3GWL11NYwv1B8uob7H++7S8RyIiT7fFBaIH62k8Xmb8wW586D/Xq6bseAut/9LNpfJyys2vnqRHFzg4lR1/mfirH1J3xiwYvBBox4UxD4cWEzz9uJHWNfw9kHXmu/+cj3/6zznkLH+k2qj7ay/xLy3vdzt8oG8Fuc5y0yP+ECIi8rRaVCBalp8Jw21wMAnGBpzVa0QNxbvGuFBeQ6OttPGdOtps/350yvje1jEuvRP+bo29g8TEpzmLRZ5iv6XiL+qo+K2zfAWc+T19ZPK9SIHjPBp7B0nNcnzYO/g9Munj99aHSBERWRHzL2j/40Zav58aWgYw5eXU4ccVwC1d2EWqf9xIa1YP5TX2MDSo7HgLh/iQw++0UXa8hcpdMWbNoBG8/riR1pd8ttddQ2NrNj3lNTRSRn1LJR7zlMHflFPz8+C1wcyY/Al8aJ3vaE9NYyvZvcZ59v8PqcP+/ZjC+58OU7clTFmYP5b21zR11cvYLrfZdsf3OdL3NuRnIfQ+NY2t7LdOv3qKw++0Ga/3X3ow7mi+h87rBO4V4f0LuUaE9xXM78V+jKsO4r0aT6b5vSRS+0LYv5f2a0U6HjND5mjz1/bvcbjrpNHY+jI+x3tn/77PaecCP7dG9/b32WIreeD9L7z213+AV6r5tMT8cDPp5T/+7L/yIfDnf/ZvSB4bY4/HqAscj5nBPOLhWQAG+Lu/aOL/A8a1csb4Is7Dno1h6qz7AF+fq6Pit9/l3//0fzOPDbLudehP/g3/ymPcxTjedlDI9YL3OfQn/4Z/xi0SPGb7Bn7Dvv9f5CjW/jsdSdhnRcjPg2HBazl/v0VEZFHmz4j+vIby8lN4B72cKi/nwuAU3v9UTvkafNiWJcUztchsbts7hwNd5qeuxvPy8TL4+Xm89gzLj7NJHewxg9BD8NdWd/8F+H6Y8YZb3MSMDYe+b6n7A2NE7YFnRD+vofw3g2aXvhnM/Lwm0Nby34zhKZlzZ/hxI5W7xrhgHvchmYEAKRDoWK/3Vmb4IQIR7lN2vIX9BIcYGH+oa2j8l5n0/SfrPbEFoeHu9eNiPGPBawSDUPs1LsD3w3WNllHfsp/4q6fM43pwBz5EBAM9o+4UfVsPhbmGXSM11ussv8DYruK530ugprGSzFvWPcN978Jdp5HzVyEz33p/a8hOHaTH9uFj8e00/PmffZ8E739h31/Use/cAEx6+c9//QcjoHx5jP/4F3Xs+4s6/uPtrfyrP7MGYz7Lngyz7n0veF7hz8EIao/E02Ges+8c/DN7t3raVvhb83reeIr+5LtG+W+bjOP/oo59f/EbKKnmz/kD//pnxvUfTHoD7bAC3g//+t+x7y/q+Dvnr+R3/zkfl8DfRWjDFo/Vvt/wdVoB/95sQjhtw2PL7GVopGcwlexA93wZ39sKfV3mB4PA2O5wP4+Gmsbw47+N8cv1NLa2aoiNiMiCgSgAabgZpo0ykuLHGA6TbVsLlvZHqcb4Q9HaSuWuGPO8Nn5/KxhE1GTF4z3XaLw/MTF4/qX1h2c/qcSTFOEPVAhzjOipq1NzuwIXzZiY0draamQa45PmjFMrS4pn8DfB7E7bO5cYtNXZA+Lg63UKdx/jD7TxPtj8OJvUwUtzMrMR7/W1j6nU/aETjLa4wT6edk4QZ0nDjZcPA5mqRs5fnTL/v4ykeEj9vvW9qcQTE4Pbnj4Mo+x4ywLfSyOAjDTMwhLuOm1dfbD1e8b36MfZxF89T+N87fx5zTzZ0MgO7dnKsxs9/Ku/rOfTv6wPZB8tX18ysqP84VtGrcJXvssW0vhn5jn2LCcAA538azNx+uFf/7vQLKp1jiM7u2TJ8Tw78Acj0wrw2z/w9cb4wDUfeH9r1t3FN2kdtPJCuuft3fIRPpDZ1TS2hnw4O3Urk0pb0Bmzy01Pefmyvq8iIk+beQNRI/DYT2rqfvOPYyr7W1uXOCP5CfG1j6nU7LDZrVA1Zvep9cfGCtlsQcTBel6Ot48XGwxkG42v8N3jkbS98yHe+JcjZlciM7qH3b8z7/ufvFghmF1afDBDGM5UIJtofs35AxnpPmm4Y+Z+OJkv+xz2XmfqOFxezoccotW2ksGiHEwi3lkWwszi2+45N3sZVHa8hcr4S+axp/CGe0MPJhE/5SP8KzREvE5g7GIZ9S/FG1k2WHI7LV+PPeBZz/9mBo7xfPG3ZoBpdoMHM5V183ZjBwz8JvQcszs/su/y7/+fHgjc6zd87TxkLfp5D4Pm86IsPxNu/d7szQj3gcyujKT4QS7Yfofa3rkUuBbA1NXzIePURUTWs3kD0brDRrZu8DdG8DFoBhERx0k9yc7UcWkwlf0hM1vLqG90zHQ9mEQ8weCqJss2RvZMHZfGMikuyWTsd9bwhAF8U6lG9/18vvYxNeePlqWNut+N4fkToy0DY/YMaQ3ZYYbpGtJwx0zhM//yl+VnBsZT2jX2DpJqm0FcdvzlQNd82/AYMRG6n4Mi3cfowtzv6GJs6+qDXXO7lhe6V9s7hyn/jZmJ+trnuEYNxbvM7lG7M7+nDw/FgeC1huJA13wbw2MxYbNWkaTFxwSD6IPfIzPcG2reM+wQBlPk6xjf68ySYjLHrKzxPO2cd5WE7/JSBnzxvhU4/rtgxvKLW7Yu90X67R8W7O6OZPQb48aH/qRgbkbUltFc0N0xHqR9N9DuQ39SwJbJsWUFt/N9IFqY1T1vn2QY6QOZiIgs17yBKEBaPPi+ts2cX8Maa8xuMmvsVushOOcY72oFrOYx2YFObENj7xipqWP0BLJVbdQdvsDYrspAl3PYNUHPDDMW4yZcpzdgjkE1ghsjg2J1YWcT0oSf95h1LdQfNLqrrWEBh+LHwv9h/HkNF8Y8gdd9iL7gJX9ew6mr8YHXGz4jGfk+jTWn8MYHu9tbjpcZGc7fjNmGK5hjZiPdyz7u7vsY2aQ519gPvwmXaTaX6gl0a2fjC3TNz21foC0RNJ7zgvW9/BM3Y2Hf0Lnfc+d7Nu91ft7DWGoqY73BvNhS22n4A7+7DXuOWN3i9Xz6l//GCCT/8F/5z974YDf7otbr/C0V58ZCrvexNQ40oj/wry8NsKXEOP7/xa3QoPEP/5WOgWB3v3W9P/8z49//LA3z3PDt/leeMf5uwaxsOLZxnctkfIA7ROZYj5nBjPSBzK6N4bHQD2dlx182x5OLiIjT/LPm16jwM2FX34Izb0WW5BVO/+V3+W/W7HUzwCsas82CX68WOYt9/meFsfIBttUaQlafGByEeJ9xj5D7ha6oYF+JQs8AEZFQCkQfK2v8abjMnsjS/fmfGVnFgAWWNFofgl3oC42zfXKfFSIi64MCURFZt/SsEBFZXQuOERUREREReRQUiIqIiIjIqlAgKiIiIiKrImSMqIiIiIjI4xISiA4PDzvr16SkpKSn5rWIyKOjZ4WIyOpS17yIiIiIrAoFoiIiIiKyKhSIioiIiMiqUCAqIiIiIqtCgaiIiIiIrIqFA9HXf8ZHn3zCJ598wicf/YwfOOtl1eV6cjlRnEqus2LFJXC0rICjGc5yERERkaVbIBD9Cb/4USZ9v3iVV199lfax3fzpz9ZuKBoI2OJTOVaWS2W884gn14HCJzcAPFBYwInCBMjI4kRZFgecB4jIUyFuRxGlRTnEOSvkIbioLC7gmMflrFh5ekavW0eON1Ff4SxdOSW1DTTUljiLF2X+QPT/vYO0gc/46a+Mf/7VJ1cgM39tZ0Wn/Vx2lq1xl72Xeev84GN4XaM0tHXScNtZDv7JaWeRyDpXQm1DE01Nj/YPwEpLzy8lP81Z+uR4fD1AKymBo090APgYg+Ew4nYUUbTjKfx4U1xLQ1PTsgO0lVJS28BeLlJ32l56hPqmJpqaGqgtthVX1NPUZDy3mpqaaGqoxd76I8eNcudrOnfyLP3pb8x91lnXc1zHbt5A9Aeb4nngGwgW/Oobxp518wQ/oxZnzM8YfobHrALjl/BEme2rMCFsXSArGZ/KscJUW13oQ+ZAYfCc4C+3i8riXCo9WXPr4lM5Zrt/oDzDOLYoETZ7nPcyuspPlBWEeTCHtjvYhgSOFqdSGWjf4jLDuZ7cue+B0/gU/ukphpzlIutRxV6y71+kurra8Qdg7Rq/3kF7xw3GnRXyEPycOt/JMa/fWbHybvfyVlsvZ53l8kiUeNKZ+OwiE+m7IgZhj1xxLQeyJ7j4zvshZQ1NmfRVX+Su/VjLN8Zzq7q6muqjJzkHgQ/WmX3VXPzGeQLAOU7+uofYwnqO2ItP11Fd/RE9ZLPXGaSa5t1Z6Qc/+4g/5Ze88dO/MUt+wi8+2cH1V3/EX4Uc+WRZ6m4puZ5cfrhxgLc+GzUCwqIYusxf1gOFBWy7Y2UBEzhalsb9jsucIpVjRSmMeY26A4UF5E96Oeb1k+vJpZxe88HiorLYw3M3O2m4bfx/9vRN414kcLQskZtzHgwuKouzoPsyp8xgObQdDvGpHMuDVltW1N6e0DYkcLRsG/G3g20NvPZFmLcdImvMUp8VS1JRT0PCRY6eNB7jhjhyigpItyeefDdo7+qfU+e73k7XABCXQ9F2+NaVbtb5uNHeRb95enp+KTlu4//9A510XB83r+WBET/paUZloC4uh6KCdKwmBMrT8indYV4owLpXOvmlObgB/P10hgSjoe0OtiGd/KIYHvjTSTdOpL+zgxuBE49Q37SX2J6PHO/RAjKyOLF5xPHMMp+t0baiEfM5G288q43mjdNhPm9zPbm8wgjxGWaddXyY690xn/PWM/v+bRfZGVGhdSH3Ab/5jD1QaCQSQlj3ysjihMfIBFrHBxnP6s3mv0LuswO+jk4x2xd8TZHZX0/441fq2R63o4jtfIsrzfwZC/x84/gZC/4cx+0owoM35Ocw8PMf4fciPb+UTfhwu934B/rxp6XjDvxs2n5e7b9L8/5MOn437e3GDN4OZTPx2WI/WJZQ27CXkaMXSWw4AL8+ysnzVvkB6J8gOzsZgGnrd6CinqbMCXqeyza/V3e5WF3H+5iZxULjeIC7ZjuOHG/ixXHb71BFPU17JvjIDCBLahs4wNkIv2NHqG96kYkPrbaZ52f2UW0PXB3m3NNRl9k39z2KVM5CGVFJYFtIJjL4UABgeojfmr+0Q5OzZqGLPZuicGV4zHMcD0dm6bluPexGaQg8EGzZzTnnLJWLpOhZvh6wHmp+vrg3S/xG6zdsnC7zgXd50vngC5dFFVl/KioqQruobF8VFRE+2tuUJMQ6i4jb4SHdf4P29nbaO/vx4+OG+ccuPb+AZ2+3G3XtN2BHETlWb6U7PVB3w+fmO2Y3ZtyOIr4z1Wme08m3iQW2bnUX6TH3Atfzp20nHWD8Bh3t1n06+TbRY9xnoMu8vvGH26i3At5+ugJtDpWeX8DzIxHa4ErnebN9nQOQvj3dcfYy3O6d88E515NlfMBv6+StjiH8jNNhfdgviqGrrdOo80KRrfdoc4ZVd5M7iWmB3qEDhcYH97fMOjz2nqM4ttAbuFf8NvN6Y4Mcs+7T5uXrTVlUxsPZz8zrM06HVW+1/7ZxnQ9uW38/LC4qi7eBN0IbElMC7esYiSN/wWe1kXU12hHe2c8ePgi1uNOe5Svz56HflWP8PMTlULQDblg/e9chxzneOC6Hoh0u+jutwHH+3wu36wGd13240p7nQecNfK5neY44copyIPAz7PhdivQzmbY9+LvZ3h4ahC5H8S7S7/fxPue42g/pHntONJrsuD4z63iRiey9wSziC+nwayMb+VFPLC9aXeCn64JZyuqLYGYe3+/oAVvG9UhmMne/CGYxd6VDv3duwDivF/YGnnVzutoXcHd8muTMkJxooDw2IXxeeN5A9G/ujfGs29YR//oLxD/wYeusfypcnvRD4jYjACtKYcxr/7Roe3i0dfJWWzBLGdksPR32cxb+BT9QuI3NI+aDtM1Lz6oMuTTGgFptfixdRSJPqKysLGdRwHx11tiryFmIcNLZ5Ab3jlJKS0sptWVzwMhCfmk+eO9PWb+XcSQnunClFZjnODKt+On/0vpj2k9XIKhMJ7/Uuo/znKWKI8bl59s7VppznLsjflwbrb/6Pr66btSNh3zoBXifuurqJbxHy5CRyGbiKLI+YJvZR4v/dr/5rJ/mfuCZu0ACwvZBnrFBjgV6olYymRDNc9Hj3Az83Rjl5kgUz1nND5sEmTvEK+IwqkfMP/Cl+bNm+3nY+Cwu371AJp+Be2bgaHClFVBa8DzfhmTN5/+98N02M/O+r2znPMezLh/3AoFKP/d8Lp7dGDgr/M/k5AP87pzIk/HOn+ToEobZlHjSYdzo+D7n7Q8JFmGang4r4/g+dVbWE+CbzwPZyXMnjwZ/P8zxpkaAuJdAbvT8VfpJZ1cxwBEyn+vh4iLbGJY94P2wh9hCxxjSBZwbnXAWgflaznKApiZH1/1CgSj/3+sMpBXys9eNf/7k1d3Q14XVUf+0OLA5jjuBT572oHGUm4v6tGnn54t7kL3DGmO6eIEJPxnpYR9iwYzmQvwMT0exJc06PoFXMqIYm/OHQEQiOX36NCMjI85iMOsiMwKssxyYM6B/fNIP7hzjj2pBOv7rwS52o6vSyuK0095u/4MciZ/+Tvs5wUxSJOn5Obh9Vuank/6n4LEwbzIh8AHf/FrUxM6lJyCeiGRCSFZ24QTI4/BczOL+bvkH+vFhDxgty/m9WAarp8ALntLSyAHpopSwKz2a6Ow3jMDxUDbR0VawuBwl1P5xNvR8FMiIBsd2nuPkFxNGxrUiEwLZ0BVw/ir9S/w5LkmIZdoMwEPKzSEC1fag2zR/IMpf8aNzY+z+kbGOaCnttvGiT4+zd8Ztn35DP0me/ewmY4Fu9nCTgua67O2lJ9p8KJYVzJnIFM7Z60Ng3Wfz1JyHWEi9dT3r029RCq7oFH5YFpxkFdpuY0zowzyUrMlXwUlTi5vkJLJW9fb2cunSJWcxH3/8Mb29vc7iOcJlBtJfMMa+zQ0a+7ln63JfnHHujiyvu9s/dd/4n7TtYTOiwYzmQsaZ8rt4frN1fDrb01z4JxcTKRiZY2ewvhwRkwm3R0K63BdnOQkIw/zJBBdJi27HNPen49hmmxybnzjL/cW8rSvtoWZ+p7PJbWbMJx/gd28yhocAcTu+g9v/APMnEbhLV/sN2GFftWE5vxf3eeB3s8m6RlwO33H7eTDpOCyS8Rt0tFvd/Dbm+7CoruriXaTTw0eBrvRqLn4TTWyK88ClmRg1O9xrXwxmRAFO9zGRvovaTOgL+YwcbljAElTsJTt6ghFr/OgiJMdFB9q5mHIWmqy0Vi1tAsLciUFLncAjImvTYp4V7777LomJxmyTkZER3n77bech4YWbrBRmQlDIRAp716M18SIuhyIPeM0JQiETO5wTLAITQMzJSt4w2SP7ZCVfP/2u50OPC5nMZF7PMcHJqLImc4S2O2SyUukm7llDAtLyKX3hnm3s3TInK4Vjm/RjCUzucdRZk4LmTiq1/x0InSjE9BAfnB/kcsQJpo7JSiND9EQnzv27Yk5wsiYrhZSZIk1+Cim3TU4NfR2ROF4P9te0EOP7lPzNxXknsFjidhRREOiNs/98O+siTFYyf9YI+Tma+3vxXH4pm75ppwvr54rgz5vj5zX0dyz8z6Sz3cGfY9MSJiuV1DbwRtznoe9XYBLQXWOyUmDyks18E4Vsk5Wme3qYyI6lz5ZdPHK8ib2E+R4V19JwKJbPQzKR5vfUftx0Dx8dPQm1DbwR+BRlmyxl3eMF2zlM02Of6BT2Xob5JispEHU+IFjKL6iIrGWLeVYkJCTw5ptvAvDee+8xOrrID6hz/qjMDQ7jdhRREPPVw0+MWNecQaSSCSurhNqGN0jvX9wHhtAPSvJ4mDPxwwW3kQLjFWf8nMR+ES7YnK9OgaiIrGOP9llhPHyzo4NLrTizLnOXQpLlUDLhETGzcIHlhRZBgejjNPcZE8l8GcmVEHGZKCuTa2Zcw/0UKRAVkXVLzwoRkdW1wGQlEREREZFHQ4GoiIiIiKwKBaIiIiIisioUiIqIiIjIqlAgKiIiIiKrQoGoiIgsX1o9u6payTtY46yRh5GRtahd+R5eAkdXcV96EQWiIiIyrw37WsiragzubvMkiU/lWFkulfEuKosLOLaMrTlXy4HCJzcAzPXkGltaB95f5xEiK0OBqIiILN9AHVeby+k+0+iseYz8DJu7Kj01bvfyVritRFfcKA1t5vahTtN+bQogj5wWtBeRdetJeVZs2NfCzsyYkLKJrnK+vALug61sTTILhy+YAV8ZKYcrcU8OQlIqUSF1wO5G8vJTzZMGudVcgy9wnzEmhlOJTQKY4m77YYYGathetZ9Y84xAOfXsKvUY17eZv22G0NcUbIP7YCtbGWQiKdW4n9/LtZY6ZswjS2obeCN7ImSP63nFp3KsKIautl4oLGDbnWBQNWfHJcbpMIO7A4UFFCUapdb+85DA0WIX96dTyE4EmKWnI7h1aPhzrP3eRxjLSDH2cw/s7OSisthDYOtuqzwjixOeOLPQYrXNfk6wvYbQ69nbcKAwl6RJP9kZxnXtdZHY35/AXvb2uo0DvPUZHC1L5OZjCYplPfonSUlJx5KTkwGYmppy1q9JMTExT81rEZFH54l4VqTVk5OfxlRXOdc+8fNMzh7+x/5T3PhdLxv2tZCV2MO19/93+j9PJOZ/2U9KrJ/hr+A5zx7i4v4J37YfondsL5u/u51nvv1bJmPr2VW02Sj/+18yk/ojtubtwHf1U8j4AUnuRJ755hSX//Yyz+T8TyS7E7nT24jv819yx/yaSf0XpH93B76Lddz5/Jf4Yl8jyT3MreZ/Qd/nv8R3z2i6v/eX3Pk8kZgXt7Jh6hZ3ev/BqNjdSO5OF3fbD9H7936eyXmFdI/Rhn+a9afEJz3HbFc5167tICHbQ8z/Hbxm5v/8Kn+UOEv/x59yJfguRTZzn7/vHeVL4MuBITqtnSXjU/mz3Ge41HaF/9DrIy19E//9xhX+87gRZH3/v1/n33Z8xYVeHxkeD6/84xCd49G8tOs7vHDPy7/t+IqRqBfYl/p/cmHAP8858MKmF9iT8QxftF3hP/QOEZWcw4v/wxCd4/8Xl28NcaHX+Bp5divlmyb4+95vuNA7RFRiKv/0Zif/x++GuGC+BrDOmeGPsqPxBcrhQOH32OEz2uZsw3fTt/C9+FE++Lsb/JfhZ/hfc58nxnZuON/cC7bDPWl776y6AT/gp3OB64g8DHXNi4isuimmfc6yMhI2x4DLw86qVvJCMpam4UsMDYQWbdiWSRQxJJe2kldly1gGDDL0aRvQxlBLsEvdGAca6ZylcW9JBX8fowMAbYzemQKXGysxiN/LQIQo89zJo1QvNhu6LC72bIrCleHhRFkBJ8psGUsAxukyM4mXJ62M4kLngP92fyBjePazYHbxQGGBeU6BIzu7VC6Somf5esBqk58v7s0SvzE4JvbOzUGjK33Mj32kgr0NJ4pTybXViaw2BaIiIqtp4Pf4/FbgWEmyywoUTcMX6G4uD3xdtddFNMgt2zndtq7vsHY3sjMzhoku4/hbqz9a4eGN+RkjjiIrcJy+aet6nqWno5O32oJfYcdIhljGORlZFCWO02Ee/8HtWecRj8XZz2ztPm8GqyJPCAWiIiKraXcxyS574GiMpYQ2/JNA0sukpDlPimzGNwakkrKvzFm1ADMrm1ZPykNmRKcnp8CVSUIawczucI/5uuZXUttAU1M9R5wVS5WRyOaRm8EA7LNRs8LPF/cge0eC44T5LOcc0/QUQwAk8EqYjKg9ozk/P8PTUWxJs443rjcWyNqKrE0KREVEVtOV89z1p7LV7BbPq2ol73A9GwDfmVPcDWRLja/tu50XcLhSw7W+KaIyK4PXW2iNzyvng/cpdePrCx03O/PpJSYIttFoQxkph21DBpL2B+pmPj3MrWFblhcv1x73rPrbI9xJ3Bbski4r4EShEUhe9vbSE22vW3i9zuWcw+1+ekjhh2UFnChL5L4jI3r2+hAEuvut6xnrep4o28ZmK6Nrdqef/ewmY4HjtxF/27twVnYeVpd9USJs9hRwQss0ySrQrHkRWbeehGeFNZPdmlVuzHiPN2ezO4+WxTJmsvcGZ47bZtdr9rfIk0OBqIisW0/EsyJt7hJJs32nFjkWVCKKT+VYUQrBju/QpZhE5MmgQFRE1i09K0REVpfGiIqIiIjIqlAgKiIiIiKrQoGoiIiIiKwKBaIiIiIisioUiIqIiMxxhPqVWFg/okd9fZG1QYGoiMiaYy4mv9BC9WuQsbNSA7XFzprHqYTahr3wWeie90bbmmg6Hho+BsqtL3t9cS0NTU1hdot6n7rPYG9DLSUh5SLriwJRERF5QpSwK32Ci59NkO5ZvfCspPYA2fcvUnc6WHbkeBMHOMtHPdP2QwOmez6iurra+HrHDF8r6mn6Yzj7YQ9hzzpdx8X72RyoXb3XKrLatI6oiKxbT8SzIq2eXaWZzAxDbFIMABNd5Xx5BTPzWUmytSr78AW6zzQGyyeNf7sPtrI1yXbe7kby8lPNkwaNXZvM++CPIco1xYR5v8Di+SHnTAV2dnIfbGUrg0wkpRpbefq9XGupYwaAGrZbW3yGtM9w5HgTe5/r4aOjJzkXKJ1HcS0NRSMc7Uik4Y/hrHVeRT1NmRP0PJdNdjTAXS5WG9nKktoGDtDPRHY2yQDT1v1KqG14wzzeXn6E+qYXmfjwKCfPG1VHjjfx4vhHHD15zsyGHoBfB+vtSmobeCPu82CwGWjDWfP8MIpraTgUy+dmm+fU2V+ryDqjjKiIyAqoqKgI7Z61fVVUVDgPd4ghdmMf15rLudY3RWx+I27AfdDcp725nO52L7NJ+9m1ryz01N2NoUFoWj278uO5215Od3M5t4ZT2WruXQ8xzFwz9q+P5ZKxJ/3GNPOcVCa6rHNiSC412gBAUip0mW1weUgz97t3H9xPrN9sX3N5SBC6HCWedCb63ofzV+knnV327vkX0uHXRsbxo55YXrRlEaOzY+kzs5EX72eztwLgHCePmhnK6mo+6k83M4/vc7EHW8b1CJkv3OVzK4gs3kU6/VwNE4TOJzr7DfP7vcRhBedHmIh2vFaRdUSBqIjICsjKynIWBcxXZ5m4ZmQZZ3xjQDyutBoSkmD2zu+N7OPA7/H5MQJHS9J+8vJTme07ZWZQYcO2TKKIIbm0lbwqI1MaNMW0z/i/2UlzI/uNScRuyySKQUbNa/i+HjTbYJ7m9zJg1tlNT06By8POqta5ATLw/jvVVC8601fCrnSYGAI4x9V+e7AIfPN5IEN57uTRkOzjdM/FQKbx/XeqA13qR44HPwy8EUiNwjlvP6TvMsZmVmQSazt/Oc6dPBrslv9sguxDzvGg87nLRNh+e5H1QYGoiMgKOH36NCMjI85iMOseieFBJoCozd8zM56WQW5ZWcrmcroDXekra+bTw3Q3n+KuH6IyK8mrsmVRl6p4F+nR0WQfCgaO0VawuBwV9ex94S4XrYyofWzn+ZN8ft/IQh7JJJgNXQmn+7jrLJtXMrHRE4wsMQMr8rRQICoisgJ6e3u5dOmSs5iPP/6Y3t5eZ3EEZaTsTAV/H6MDA0z7bUFm2vdwu2Dia3v3dw9fdg2Cy8N2MyNpZFRTSQmToYxk1jwnwepy32K1wXlkOG0MtRhDCkKyqFZGcpGzwks86WCf8FN9kbvRsca4z+WanjCDwiPstWVEAd7vmyDdU0smfaHZ0HDDApagpPZFkgP3XYTiRGKXcrzIU0aBqIjICjlz5kxIVnRkZIQzZ86EHBNJbH4reVWVJLsGudVSxwxtDLVcYMLs+s4r9YCtCz7gSo0x1jOz0uget/07r8ronl9wmSfzHKMNrWxNstowP/dB8/pVrezMjGG270OGFhW8OpWwKz2aiVF7ZvJ9+r5JJnOh4bWRnL5ID9m80dREU1MmE87Z7qf7mMjOhj5np7wxLCC7KPwSTW9kR8MLe2lqaqLebFvIEID0/uDkLGvppkPZRJPMXufSTsCRomzov7rI4QsiTx/NmheRdetRPCsSEhJ48803AXjvvfcYHR11HhIqrZ5dpR5mAjPl5bGYd7a6MeM+9ovgeNNHoqKepj0Ti19VQOQppIyoiMgKGh0d5e233+btt99eOAiVxy+QpYzl84gB4DlOHr0IhUuZdLRUR6gvhIsR2yCyPigjKiLrlp4VIiKrSxlREREREVkVCkRFREREZFUoEBURERGRVaFAVERERERWhQJREREREVkVCkRFREREZFVo+SYRWbfW7rPiCPVNe83tL+9ysbousE3lkeNN7H3B+P+7nz3CBdkr6mkqNDfgnO6xLcpuLAZv7agZ2obI7RaR9UkZURGRNekuF6urqbYFcyW1DezlYmCvdgobqF3mnunzKq6loRDz/tV81J/OgVpjR/kjx98gvd/aM965KPz71Fn7yNsuJyLrlwJREZGnQgm70qGnwwxLixOJJZp0jxEgrqiUWKK/6QsEwOe8/ZC+ixJKSHxumn6vtVfQQ+4XLyJPPQWiIiKroKKigqamprBfFRXLidySiY2eYOS82W1+KJb+nmnnQSvnuUSsEPdIUTZmTzwQTWyK+b/FtbxoDhMQEQlHgaiIyCrIyspyFgXMV7eginqa9kzwUXUdV511K+V0HRfvZ/OGGThnjvdghLznOPnrHmILzaD6j6H/G+fJIiJBCkRFRFbB6dOnGRkZcRaDWbd0d5mYTmbvnonAxKHkuGCecqW9/44xPrS6upq60Vii748Yk5XOn+SoWV599Co8N83EkPNsERGDAlERkVXQ29vLpUuXnMV8/PHH9Pb2OosX4RxX+6eZ7r9qBITFtbz4gn28ZnhHjjfRUFtCSW0DTQ21lBTX0tBkn2C0kCPUF8YGx6balNQeIPv+55w876wRETEoEBURWSVnzpwJyYqOjIxw5syZkGOW4tzJs/Snv2F0ix/KZuKzo48oCCyhtsEa0/oiEx/a7lNRHxjr+kbc51S/MzdAFRGxaB1REVm3noRnRUJCAm+++SYA7733HqOjo85DwjhCfVMmfWt2Hc613n4RWSkKREVk3Vq7z4q1ujD8Wm23iDwqCkRFZN3Ss0JEZHVpjKiIiIiIrAoFoiIiIiKyKhSIioiIiMiqUCAqIiIiIqtCgaiIiIiIrAoFoiIiIiKyKhSIiog87XY3klfVan61kJLmPEBEZHUoEBUReZql1bMrP5WJrnK6m8u5NRxDclE9G5zHiYisAgWiIiJPsQ3bMolikNErAGW4NgKuTBICWdEj1Dc10VBbEnKeiMjjoEBURGQNqKiooKmpKexXRUWF8/CA6I0x4PcxTRkphyuJvuNllhii3c4jRUQePwWiIiJrQFZWlrMoYL46S8LBStx3TvHlTWfN+9RVV3P05DlnhYjII6dAVERkDTh9+jQjIyPOYjDrIpmenAKXB/fkKa5+2gZuN1FMMe1zHiki8vgpEBURWQN6e3u5dOmSs5iPP/6Y3t5eZ3HAzM0+ZoEZXxsA7i2p4O9jdMA6QmNERWT1KBAVEVkjzpw5E5IVHRkZ4cyZMyHHzDFQx9WuQWLzjeWbtiYNcquljhnncSIiq+CZnTt3/uOLL74IwPDwsLN+TUpKSnpqXouIPDpr8VmRkJDAm2++CcB7773H6Oio8xARkTVDgaiIrFt6VoiIrC51zYuIiIjIqlAgKiIiIiKrQoGoiIiIiKwKBaIiIiIisioUiIqIiIjIqlAgKiIiKyOtnl1VreQdrHHWzKOG7VWt5B2uZ4OzKqLlnPNoxO0oomhHnLM4rKUcK7JeKBAVEZFFcR9cRvBnBadVreRVtZCS5jwgEiPY3LWvzFnx5EjLpyDxW7zXx22F6eSXllJaWkppaRE5trhz/LqXbxMLyF/0e0Bg56umpiaamuo54qyuqDfqGmpZeG+sEmobjGvVVzjrHsKKtSFY19TUQG2xs16eRlpHVETWrfX0rKioqCArK4vTp0/PuyXofNwHW9m60cu1ZezMtGFfCzsz4W77YYYC24vOp4btVfvZ0HeKq58a25M+WdLJL/0ODzo7uGGLQ+N2FLF9soOuAeP/CxK/pbPjBoFD4nIoKniWr9q76A+eNo8j1Ddl0lddx/vOKkqobTgAvz7KyfPOunlU1NO0Z4KPjp7knLNuyR5FG5Z5TVmTlBEVEVkHCgsLSUxMpKKigoMHDzqrbcxu74hZTDdph806W3bUfdB2ziK75jfsawmeM+da+4kFojIrQ+ojnWMoI8VqmyObGnLenNdkZB0bahfO5wWkbcLt+yokCAUYv24EoQDjd77FH1oN4zf4yudm05KyovOZYGSpwdrQBNPOsofyJLRB1ioFoiIi60hiYiKvvfYa7777LgkJCc5qoJEvm8vpNr9uDceQXGQL+FypcK2c7uYLTLg8bDeDPd8Zs8x+qQXMfHqY7uZT3HVEa/ZrzfadMtpiZmEjnQPgPlhJ8uQF4/h2L2RWsn23MTxge2YME13W61psVjay9Bfc+L6ZP6cZt/l5XP6pYDbUdH/Kj/uFdEfpciQTG+0sW4TzI0xEx5LsLF+WJ6ENspYpEBURWYcSExMDe9Y72bOHW5MclX4vA1cABpj2Q9TGFUvtPaQaEpKApP1G20s9RFlVA8PMALH5reRVNeIOPRF4n7rqao6enNtJvGxp+RSk+bnRNTdYHZ8ME0UvUUltA00Ru+wX8j511X1kLjUL7PAktEHWPgWiIiIStLuRnbbs4a01NoQ2kEE1v768QjDL2zUIpLL1UU+CSsundIeL/s7w40DjNrrwT913Fi/JuZNHqa7uIzPcBKYFWeNOHy74fhLaIGufAlERkXVoZGSE9957z1lsmmLaZ3RppzgzopbdxSS7YOLrRmfNKjEztJnFYTKepis1gS7/0Ezu0seI9n/jC9+9HpdD0Q4X/Y5JTHbPxbjwT0aoXJK7TDgHWhbX0tBUzxHzNdVXwJHjjtdWnEjs9AR37edBcIb+8aWElSvdBllvFIiKiKwzH3/8MW+//Tajo6POKrhynrv+GJJLW8krdePrmwqtd3nYWdVKXn4qs32nzIyjNUnImGBkdY9v321kWPOqWtmZGQOY1zUnGRmTkipJdgWvG8xUNjLQNzVnslLkc9oYarnAhJnxDJmUFLKE1H5iGeTWmYcMoAfu4XN/J2R5Jogjx5OOCxfpBdYSTqWhyzXF5fAdt497DzlG9dEwg8rnEhexDJPIytDyTSKybq2nZ8VKLN8kDmn5lGY8CF2eaV5x5BQV8Ozt9sDM+oU93uWbjhxvYi8XqX5n7t3CW/k2LPuasiYpEBWRdUvPCnlYcTuK8OClI2RR+/CWcmzQEeqb9pqzy+9y0RmQVtTTVJgM0z0Rgjq7Emob3iA7Gu5+Vk3daVtVcS0Nh7KJ/mYpQahppdpgq4Npej5UILoeKBAVkXVLzwoRkdWlMaIiIiIisioUiIqIiIjIqlAgKiIiIiKrQoGoiIiIiKwKBaIiIiIisio0a15E1i09K4RNv+D1DNuK87NX+O0XP8XHD9i9p4qt1ob1gXIRWUkKREVk3dKzQtj0C15PuM6vrv+VsybE1h2fsM3fzLnbf+OsEpGHoEBURNYtPSvCqWG7tVUnAFPcbT/MEPXsKvUw01VubutpbLe5daOXay11zFBGymFz601gtu8UVz9tM7bXLPUwMzxIbFJqSN2GfS3m1p+m4Qt0m1tvzqkDJsx7uw+2sjVp7jkQXJh9Ys5i6REsKhA1sqMb77zKxXvOOhF5GBojKiIiNo182VxOt/l1aziG5KJ6Ngz8Hp8fYrfUmMfVkJAEE9fqmAHcBytJnrxgnNfuhcxKY695U+xGH9eay7nWN0VUZjFuYObTw4H7dLd7mU3ab5yTVs/2zBgmusrpbj7FXb8RvH55xQhQt270cq25nO7mC0wk7bftT79Mz5Xy+kuf8PpLn7B3k73iJ+x96RNef6mKrbPtCkJFHgEFoiIiEmLDvhbyqlrJq7JlHmlj6NogJGXjBtidTSyDjF4hEJSStN84r9SDNbTSYgWsRvBZY461rGG7eZ+550wxPWdAZhkJm2PA5WFnVSt5IZlb0/mTHK1eZDYU4N6P+NXvXjW+rl0hOuMjdj9rVf4VF826K5Ty+o6fhJ4rIg9NgaiIiATtbmRnIBtZzi37yIUrPUyQSsJucG9JheGekMk7s32nghnO5mAXfnhlpBzeT6zfzG62e5m1qgZ+j88fQ3JpK3lVlSS7Bhn6tC146rCZeTW/rtrrHsaDLu4FGhHq1ugARL1gBOEismIUiIqIiIOZjUyrJyWQEQVoZKBvitgtjSQkTXH3C2ts5gDTfgJd7ksyOWx07e+xZUR3F5PsGuRWINi0Mqht+CeBpJdJsU10D1FcS0NTE/UVzopF2FTK1qgxJh84K2BrQhpT412aNS+ywhSIiohI0JXz3LWykaVufH1TIdUzN/uYTUol1t/H6IBV2sZQywUmSGWr1dVe1RI5WARbV7/RnZ8y6WXCqrpynrt++7VayTtczwbAd+ZUsH1mnX0s6lK5Mz4KjA99PQOu/O5H3ALb+FDjSzPmRR4NzZoXkXVLz4onkzFjfoxbViZ0dyN5+fHG7P1A8CsiTwNlREVE5Ikyc7OPWXt2NT+V2b4PFYSKPIWUERWRdUvPChGR1aWMqIiIiIisCgWiIiIiIrIqFIiKiIiIyKpQICoiIiIiq0KBqIiIrDHm1qDm2qJrifvgYtZYFVkOF5XFBRzzuJwVTzQFoiIi8uik1bNr0Yvc2xnB5q59Zc6KVec+uDaD4OV/LyJJ4GhZAUcz4EBhAScKEwI1BwqN8rDiUzlWnEqus3yh8x6RiPecp52LFfHaT4lcT+5DB74KREVE5NEZqONqcznXHDs0PZxGvmwup7uljhln1RPOd6ac7uZVWpj/kXwvZrk/7ixbQ+JTyY8e4re3nRVwYEcKYzcHueyseGL5OXW+k2Nev7PiEUnglQw/XQ95P60jKiLrlp4VEaTVs6vU2vt9ytjRCKNspqucL68Yh7kPtrJ1o5drLXXMUMP2qv3EmpeY7TvF1U/bApc0dksiZHekkPPNe850lTO6pZWtIXvcA37jOPa1sDMzJqQsGIxGaMPuRvLyYWI4ldgkgq9pwWCwjJTDlSRbCZ/hC3SfaTTbPcgEqcS6QtvhPhja9kAbwr2nA8F7uCcHISnVqDfvM59I792XV6w6W/sYDO5SFeF7AUBxLQ2Hspn4rJq607byiBI4WpbG/Y7LfJGWSzm9gSDoQGEB2yaHiM9IwQX4b3s55oXKYg/Z0aFX8d/2cmwynROeuNAKxulo6+UsCRwtdnF/OoXsRIBZejouc2oMszvads2Rm7z12WjwEvGpHCtKYczbSUO4YLOwgG13wtTFp3IsD1rPW4Ho4ttgvFbb+2BeP9eTyw8zCJ6XkRV8zdNDfGDdy14O3Am0fZ422M6x339hCRwt28Zm818h9wpbHpTrCf2eW++19esSbMc87SZBGVEREbGrYbsZ1HQ3l3OtD5JLG3EP/B6fH2K31ASOS0iCiWt1zFBGyuH9xA5foLu5nO6uQaIyK5e9B7yRNbzAhBnIdduynzOfHqa7+RR35/ydXagNqcRywTw3huQ91uuIxAxC8XKt2XgvQoJDVypcK6e73cusy0OaeR+j7eZX1yBRmYeMLvAFspFRSfH42o1zSHr54bvNrfY1X2CCVFIeyRCHURrajIDisvfynOBnc0YMXW2dvNUxBBnpHDAzdm91DOGfHuKDtk7eajMzeLd7eautk44RI+h5q62Tt9p6OWtdLDqFLZNeo9zrJzvP7DLPSCd7+qZ5fGdoELqgBLYljnPTGYQCuWmJcG80NBsaoQ0HCj1suWeWt3n5epNnbnd8RhY/zPDTYb5fxKdybNtU4D344F4iP7SGNpjvhfF1EzxZHLCuE6EN1jkf3J4N3nNBLiqLt0Hg/baCTWf5TfDkUhkfeu6eTfD1gO17PjbIsUC7vXy9KSt4TqR2M6pAVEREbHZnEwvE5htjCQPZR9oYujYISdm4A8cNMnoFSPsebhdMfG0Gald6mAA2uB9F8BPBgm2Y4u4X82cZQ1jXuxah+9/vZcDMDIewj8PMT3XWRjZ8aREZ2iUItM8YxmDPTkd0/iRHqxebDV3YHa8ZSI75GXNWLtl4sAv49gh3omNIARifwp+4jRORxnKawZEzmweQ60kj/nZ/MNgNiNTlHK4NLpKiZ20BmZ8v7s0SvzE4bnKzp4ATHszsriE3LRFXdAo/LCvgRFkBP8wwcuVgBqlm+QlbVtIQrg3LFJ/AFsINS4jmuWh7gD7KzZEonrMnrDPSyZ4eMLOaFmPMsNFuZ+Y7crsViIqIiMMUd9ttmT2rW/dKDxOkkrAb3FtSYbgn0N0rBLLJUbasrDwC8S4CyTkrC9cN5WUFkQPSOSIFm/MFqDb2Nizgzu0h/LhIcpzgv21lUe3ZXBeVeSkQqLvJndDTgpbQhpXlonKbi57rodnnA4Xb2DxiZae99EyHVAc52q1AVEREgnw+ZonUdd3IQN8UsVsaSUiyZRgHhpnB1m2/O5tYpvDdXEQWzuTeY42fXKYVaEMIayjCzqXPjp+dHDC69ncuISP6EB76vbMU19LQ1ER9hbPiEZgnk2fPJoaTm5aIa2QkNFAcG+RY2825GUIzuzi3qzyRzc5rQPgu5zCCbfAzPB3FljSrzQm8khHF2KTt/MlBjnWMsKUo2L19eWDEHK4QnnV+rifNkRENCvs+RGK+DyEz3Mf8jEWn8IrzvWGa+9NxbLPK41PJT7RNSotPYAsjfBEmze2fNKPPjPQ5Y4EtznYrEBURkaCBOq52DULSfnOZn9ClimZu9jGblEqsv4/RQFdyI1+2e5m1zslPZaLLnAizu9HWxR9Dcmnwer4vjPGVO6ta2cogE8FWBILeqMzKkDYY63CaE4jMc40lnuZpw7K0MdRygQnzHnlVreQdDBec29nbXEn0HS+BEXvzvA/LMf97F8EKt2HZxgbpGomjyOzGtQdHZ68PQYbH7N61jY0kePwPN43wgTkWNNeTax5rdGMvmMmEiBk9iNTlbAnfhrOf3WQs0OZtxN/2zh0KMDbIMa+f7CIzKB4bpPW2K3C9E4Fg2c+pm+NGd35ZAeWMODKi4dtgvQ8/zIjCZbZlTvA9xygNHUPEm/cKaUO3rbwohTGvNbko8moCId+7zVOOjGj4dhOfqlnzIrJ+6VkhshYkcLQskZv2yUsPIyOLE5tHwkxsclFZnAXdwaAraIXbsCxPQBvmrCawGPO3W4GoiKxbelasb8YyRtZkLLvFLu/0KIUuRRViEcs7PV3mD2QeD7Vh+eZvtwJREVm39KwQEVldGiMqIiIiIqtCgaiIiIiIrAoFoiIiIiKyKhSIioiIiMiqUCAqIiJPD2uLzQXX/JQlychyrOv5qBjbRC68BqY8LRSIiojImrJhXwt5VY3GnvdPmvhUjpXlUhnvorLYsZPNE+5A4ZMbAOZ6co3tOwPvr/MIWasUiIqIyNNjoI6rzeWrvM6mn+E5C6Kvcbd7eSvCOpAra5SGts65OxMBTPuXsIi6rBVaR1RE1i09K8ILt9D7RFc5X14xttjcmmQWBhZWLyPlcCXuyUFISjX2Pbcvur67kbx8a9/1QW411+AL3GeMieFUYpOwLSTvXMzdLKeeXaVz91Wfv22G0NcUbIP7oLlFZlKqcT+/l2stdcyYR5bUNvBG9gQXq+t4P3C1ecSncqwohq62XigsYNudYFCV68nlhxn21o/TYQZ3BwoLKEo0Sv23vRzz+o1u6mIX96dTyE4EmKWnw7bVYthzjPuUM8JYRoqxT/n0EB+cH+QyLiqLPcE9wK3yjCxOeOLMQovVNvs5wfYaQq9nb8OBwlySJv1kZxjXtddFYn9/7nhDg9FcTy4/3DjAW58x7+Losvb8k6SkpGPJyckATE1NOevXpJiYmKfmtYjIo6NnRRhp9eTkpzHVVc61T/w8k7OH/7H/FDd+18uGfS1kJfZw7f3/nf7PE4n5X/aTEutn+Ct4zrOHuLh/wrfth+gd28vm727nmW//lsnYenYVbTbK//6XzKT+iK15O/Bd/RQyfkCSO5FnvjnF5b+9zDM5/xPJ7kTu9Dbi+/yX3DG/ZlL/Benf3YHvYh13Pv8lvtjXSHIPc6v5X9D3+S/x3TOa7u/9JXc+TyTmxa1smLrFnd5/MCp2N5K708Xd9kP0/r2fZ3JeId1jtOGfZv0p8UnPMdtVzrVrO0jI9hDzfwevmfk/v8ofJc7S//GnXAm+S5HN3Ofve0f5EvhyYIjOcbM8PpU/y32GS21X+A+9PtLSN/Hfb1zhP48bQdb3//t1/m3HV1zo9ZHh8fDKPw7ROR7NS7u+wwv3vPzbjq8YiXqBfan/JxcG/POcAy9seoE9Gc/wRdsV/kPvEFHJObz4PwzROf5/cfnWEBd6ja+RZ7dSvmmCv+/9hgu9Q0QlpvJPb3byf/xuiAvmawDrnBn+KDsaX6AcDhR+jx0+o23ONnw3fQvfix/lg7+7wX8Zfob/Nfd5YmznhvPNvWA73JO2986qG/ADfjoXuI6sLeqaFxERhymmfc6yMhI2x4DLw86qVvLCbT85fGnOtpgbtmUSRQzJpa3kVdkylgGDDH3aBrQx1BLsUjfGgUY6Z2ncW1LB38foAEAbo3emwOXGSgzi9zIQIco8d/Io1YvNhi6Liz2bonBleDhRVsCJMlvGEoBxusxM4uVJK6O40Dngv90fyBie/SyYXTxQWGCeU+DIzi6Vi6ToWb4esNrk54t7s8RvDI6JvXPT3I98zI99pIK9DSeKU8m11cn6o0BURESCBn6Pz28FjpUku6xA0TR8ge7m8sDXVXtdRIPcsp3Tbev6Dmt3IzszY5joMo6/9TSMnhjzM0YcRVbgOH3T1vU8S09HJ2+1Bb/CjpEMsYxzMrIoShynwzz+g9uzziMei7Of2dp93gxWZd1SICoiIkG7i0l22QNHYywltOGfBJJeJiXNeVJkM74xIJWUfWXOqgWYWdm0elIeMiM6PTkFrkwS0ghmdod7zNc1v5LaBpqa6jnirFiqjEQ2j9wMBmCfjZoVfr64B9k7EhwnzGc555impxgCIIFXwmRE7RnN+fkZno5iS5p1vHG9sUDWVmRxFIiKiEjQlfPc9aey1ewWz6tqJe9wPRsA35lT3A1kS42v7budF3C4UsO1vimiMiuD11tojc8r54P3KXXj6wsdxzvz6SUmCLbRaEMZKYdtQwaS9gfqZj49zK1hW5YXL9ce96z62yPcSdwW7JIuK+BEoRFIXvb20hNtr1t4vc7lnMPtfnpI4YdlBZwoS+S+IyN69voQBLr7resZ63qeKNvGZiuja3ann/3sJmOB47cRf9u7cFZ2HlaXfVEibPYUcELLNK0LmjUvIuuWnhVzWTPZrVnlxoz3eHM2u/NoWSxjJntvcOa4bXa9Zn/LeqZAVETWLT0rwkibu0TSbN+pRY4FlYjiUzlWlEKw4zt0KSaR9UqBqIisW3pWiIisLo0RFREREZFVoUBURERERFaFAlERERERWRUKREVERERkVSgQFRGRlZFWz67FrBMqImJSICoiIkFmMLngQvUrwH0wuFj+XDVsr2pl15J3ZIpg0y94/aVPjK8dP3HWzmU/3vra8zPczuNE5KEoEBURkZUxUMfV5nK6H/euRQt59meUZMCV373Kr373KlcopSTjB86jQt37Eb8yj//V717lV7cHYPabRW0LKiKLp3VERWTd0rMiDHNB+5nhQWKTUgGY6CrnyytGtftgK1utvd+HLwSCzkjlc+oAmOJu+2H8e1rZunGQCVKJdQF+L9da6oiec3ywbgaAI9Q37SW25yOOnjznOHAud8ZH5PFLzt3+G+AH7N5TxVau8NsvfrrIwPIH7N7zp/DlG1x54KwTkYehjKiIiMwRu9HHteZybg1D7E6j+3zDvha2bvRyrbmc7uYLTCTtD3Sd+86YZc4L7W5ka9IUd9uD9RNdtu1CXalwrZzudi+zLg9pu0OvNdt3iu7mcroDQejSxbmeZXr6b4CfsPelKjaOXyF09/oFbCpl6+xnCkJFHgEFoiIiMsfENWfgV0bC5hhwedhZ1Upe1X5iQ+rnM4Y/0j71fi8DZrZ18d6nrrp6UdnQoJ+w96VCJq+9ysVvnXXz+QG7N6fx7ehfOStEZAUoEBURkcUbvmBkKM2vBfegv9LDBKlstYLXZQWeD2fc/4DnMwqZvGZ2rce4iXEeFMmmUrZyhev3nBUishIUiIqIyCK04Z8Ekl4mJc1ZF9mGfS8T67e68x+uiz3oCPVNTTTUljgrwvJ928fUbB8DDwhkOKfGu2zjQ3/C3rCz6c1s6J3FjiUVkaVSICoiIoviO3OKu/4YkktbyasyvoxlnspIOWzrrk/aH6ib+fQSE4HufPNrUeuMNjLQN0VUZqVxTsRlnhbhwU/pHs/klZc+4fWXqtg6225OXFqAsqEij5xmzYvIuqVnxaPnPthqTHAyM6Eb9rWwM3OMW801yjKKiDKiIiLy6Pi+HrRNcGplZ2YME10KQkXEoIyoiKxbelaIiKwuZURFREREZFUoEBURERGRVaFAVERERERWhQJREREREVkVCkRFRGSODftabOuEiog8GgpERURk6dLq2bUCgao74yNeD7urkYisBwpERURkjplPD9PdXM6Xj3Bf+K07PiGPX/Lbew+cVSKyTigQFRERmxq227bjDM14Wlt5tpJX6iHKXgVQXEtDUxP1Fc6K8G5df3VxW22KyFNLgaiIiNg08mVzOd1dg84K3AcrScbLteZyutu9zDoPEBFZIgWiIiKyCDUkJMHsnd8z46yynD/J0epq6k47K0REwlMgKiIiIiKrQoGoiIgswgDTfojamAaAe8/DjxEVEVEgKiIiQeayTHn5qQDE5reSV9WImzaGOrzMJu0nr6qVrQwy4Tx3iaylm17Z9Cw8V8rrL33C3k3Oo0TkafbMzp07//HFF18EYHh42Fm/JiUlJT01r0VEHh09K0REVpcyoiIiIiKyKhSIioiIiMiqUCAqIiIiIqtCgaiIiIiIrAoFoiIiIiKyKhSIioiIiMiqUCAqIiIiIqtCgaiIiKwhCRwtK+BoBhwoLOBEYUKg5kChUb4kGVmcKCvgRFkBxzwuW0UCR8uyOGArebJEfh9E1hIFoiIissbMcn/cWbZMt3t5q62TD27POmvWgBV8H0RWiXZWEpF1S8+KMNLq2VWaycwwxCbFADDRVc6XV2DDvhZ2ZhplAAxfoPtMI+xuJG9nPLOuGKIYZGI4ldik4HnsbgxsGQqD3GquwRe4yBHqm/YS2/MRR0+eC5RGlsDRsjTud1zmi7RcyunlmNcPZkZ02+QQ8RkpuAD/ba9RF5/KsTxoPT/IZSDXE3oeYcsSOFqWyP3bLrIzooBZejouc2oM43pFxj2w3ydw3jY2z6lzUVnsITvarJge4oOw7XFRWZwF3Zc5NWb+/z0/2RlxjutFfh9E1hJlREVExCGG2I19XGsu59YwxO6sZwMw8+lhupvLja92Y9/57bvNU1zga7/ABKlsmDzFrWHY4C4zAtv8eO62G+fdGk5l62HjesszSkObERBe9l6eE3xt3gStbZ281XaTsYwsKuNDqpcoji0YGdO3vH6y81LJBRgb5Fhbp1He5uXrTcH75HrSiL/tNes6be3zc+q8dU4nH9xLpDxkKEAkUWRvHDHPu8lYRro5XGD+90FkrVAgKiIic0xcq2PGWUgN26tayatqJa/UQ1RI3Rj+AeP/ZnxtAERtTGPDtkyiiCG51Dhva1LIScD71FVXLzIburA7N40sI4xycySK54xE4jKN02UFeLdHuBMdQwoExmcaY0ttWU7g8qQfV4Yn7JjNA4XWOQX8MCP03Ytslp7ro+b/j9LQ1stZxxEia5kCURERWYQyUg7vJ9bv5ZqVEXUeEtEgt6xManM53S3hgtyV5iIpegXHUMa7iJ+eYgg4ULiNzSM3AxnRnmnbceaY07fuJBpBpxWQZmRRlDhOh5URXZNjUkVWngJRERFZvMlhZgD3HmdGNLwZ3xiQSsq+MmeV6Qj1TU001JY4Kx5OfAJbov0Mj5n/trKZ8amULzobGZSblohr2m9mW8E/aUafGekhGdGA27281TGEP9pldOcDmIEsJPCKow2ujcZFcj1Z4a8n8pRSICoiIovQxtC1QUjaT15VKymTXiach4RzpYZrfVNEZVYaXfpVreQdrHEetWI2e8zu76JEvu4wu7HHBukaiaOorIATRTF8bctG5npyA13lrgwPJ8wlkQzmOWUF/HDTCB98ZnSRn70+BOaxJzZPhWRE7d3vJ4pSGLOGCtzup4cUflhWwImyRO7b2nDZO8CdxG3GfTaOhGZYRZ5ymjUvIuuWnhUiIqtLGVERERERWRUKREVERERkVSgQFREREZFVoUBURERERFaFAlERERERWRUKREVERERkVSgQFRGRR2rDvhbyqlqD+9KLyJMhI4sTZVkccJY/RgpERURkVRgBaiNuZ8XjVlFPU1MTTQ21WPs7peeXkp/mOG7Z0skvzSfdWbwkS7tG3I4iSktLja/8xZ41l/06c96PuByKinKIcxQvn4vK4gKOeVwhpQcK7ZsMOMSncqw4Nbh7lc285z0iEe85TzufRLme3DnfB+Z7ffNY6BwFoiIi60BFRQXvvvsuCQnm3ueP0cynh+luLufLK86aJ0EJtXti6fmwmuqjJznnrF6T0tme5udGezvt7e20d/U7D1i08esdtLe3c8PnrJE54lPJjx7it7edFXBgh22XrSfJ7V7eajN3IFsl2llJRNat9fKsSEhI4Gc/+xkAIyMjXLp0iTNnzjgPM9WwvWo/sdY/hy/QfaYRdjeSlw8Tw6nEJgFMcbf9MEMDRmZzZ+ZYmLrQa010mcFoWj27SufuVR+op4yUw5UkmwmZ2b5TXP20Dcws6s7MGPOMYBsMR6hv2ktsz0ccPbnYkLKE2oa9jByt431baXp+KZum+nGlpeMC/AOddFwfB+LIKSog3UoW+fvp7LjBuHViWj6lO6wcr48b7V30k05+6SbutXfRb52P47ywHPcKXM9xH2cb4nIo8oDXcf30/FJyAunn4LXidhThwWt7fR7wdnDDdnJ6fimbvmmna4Aw7TIE3yOW+b0wsmfb7nTSYAvmDhQWsG1yiPiMFON7cdvLMS9UFnvIjrafbdZNpnPC48zTjtPR1stZEjha7OL+dArZiQCz9HRc5tQYZkbWds2Rm7xlbusKZlazKIUxb2j7LOHaDuZ5edB63gpEXVQWZ8E9P9kZRjuN1+QP3CPw42WVZ2RxYvNIaHvClc2RwNGybWy2lcx9/6z3JvgaQ7+1wfco/PfCbLftNeZ6cimnl2Nef+RzSOBoWaIyoiIi60liYiKvvfYab775ZtjsqPvgfmL9Xq41l9PdXG4EoQGpxHKB7uZybg3HkFxUzwZb3YbJU3Q3n+KuP4bkPTVAI182l9PdNWi7BjBQx9Xmcq71TQGD3DLvZWVM3QcrSZ407tPd7oXMSmN8aVo92zNjmOgy29ZsD0KXK5lYRzBjcSeCt72d9vYb+NM85MQBjHOjw8w0trfTOfI8nh1m0BOXQ9EOgplIK2i0Sc8vIN1/g/YFg1Dj2OdHOs1r3SCQlIzLoSjjAZ22NhTkp5vd96WUFqTjcqVTUFpKaWmR2W7o7wq2u/065Cy7y958Dzr78fv7A+0IBqHLd/azMIEcsDkjhq62Tt7qGIKMdA7g59R549/+6SE+aOvkrbZOI8C53ctbbZ10jMAdr1EekvWLTmHLpNco9/rJzjO7zDPSyZ6+aR7fuUCA55TAtsRxboZpe25aItwbdWRDo8jeOGLe6yZjGenGOM2xQY5Z92/z8vWmLCrjgfEp/GAGsblUxkPuRhf+yemQqzodKNxG/G3rtY7D9BCtXj9Y71/bTe7YTzDv/8HtWfzWeW1WoG6Y+71Y2OZN0Bp4reZrMikQFRFZh7KysqisrHQWMz05BS4PO6ta2bWvzFE7xd0vjMDUOM5NMIYbZOjTNqCNoRZnALsUNSQkAUn7yatqJc+eOR0YZgaIzW+NMLb0feqqqxedgSupbaCpKZO+6tBsqMV32woW+7nnc/HsRqM8Pd8ce1laSkFaMHcUt/l5GPhyTvBpcJNTWkoONxbZVZ7OJrePr8IEd3Gbn7cFmvY29NPV7gwQg5nNkHGjgazto7K078VC7njNQHLMjy0mWqZxurxGWMftEe5Ex5CCGewlbuNEpLGcZpAWLlDO9aQRf7s/TBd3Aq9k+IP3C5il57oV6I7SEAiUEzhaVsCJsgJOlDkyvtEucuMTeA54zvxwMTbpvO6jt5zvxZ3AsIRRbo5EBdqPAlERkfVrZGTEWWSO5zzFXT9EZVZGCPgevdm+U2bW054ttWdYU9kaNlhevHMnj1Jd3UdmUz1HnJUh4ohx+XkwaXSJ57h9gaxn58BiAwEf/QN+cMWsyOQe/4CVKV3kONC4HDxp0N9pZUQ16BOAeBeB5JyVjeyG8rKCyAHpHJGCzfkC1PAOFG5j84iVlfXSYyU8x/yMRceQEhcDNwdgcwIpG+H+3M8pIYYmZ3FleIzA1uOip3u1x6m6SIqeDWm3AlERkXWot7eX06dPO4tNRlbT6DqPx+WcLU0NaZkxMNwT7C5eMQNM+yEqszhyAHylhu7mC0wAURvtjTtCfVMTDbXW3PfFuMvE/L2bEJfM8y4/U9YfT/8D7oM5KSiYER2f9ONK2x5xZvvU9Q6jG31RM83v88DvZpP58tLzcwLvx/idb2Ge+0RmvYY4cjJC311XzHMAxO3wzBn7OS/XsxhnOi3ne7FMVkYzjPiN87+Y3LREXCMjoYHi2CDH2m4GM6WW+FSOlYWZAZ6RyGbnNQBwsWcTfL3oDyuGQHd7RrotIzrN/WkX2zZPcfP2NPej08h3DCk5UFjgWIrJuH9Ph9XVH9rFvhDXxghjViKx3q/4VMoznCPATfEJbIn2Mxxoh0uBqIjIevPxxx/z3nvvOYsBcB9sNbrEq1rZmRnDbN+HtnGYMSSXtpJXZY4jXaj7Pa2eXVWt5OWnQpgu9ZlPLzFhZjaD64y2MdRyIaQ8r6qFlDTb9arMNjDIrYXa8BDcO8xu7ILn+bbTHO858CX9WN3im3hgDzIGuugccJFjdX+HWW5p/HoHN/zpFISpCzXOjdu+QBs2fWMbIzp+A2/IfcIsreQ0foOvfMbwgNJSD4wEP0KMX/8KnzvH6OaP+ZZ+20uyhiHkuK33IzjmNPSapRRZY2Ufp7FBukbiKDK7s+1LDp29PgRWNjAkQAse/8NNI3xgjgXN9eSaxxZwomzbIjOZLiq3uWzd7DYZ6WRPDywp+Atp8+apYEYUP8PTUWyOhiH8fHEPXCEBXTjGcdlF1msq4ESZMb40OARgG5ut98OWAb7sHeBO4jbHOfOwfx+KYvj69mxI9WaPef+iRL7usIYhjPLb25o1LyLr2Hp5ViQkJPDaa6+RlZXFe++9x+homD+aC9ndSF5+vGOW+tOghNqGA/Dro5w876yTp48xU/vmSi1ZFHHmujkzvntpWciVNfe1HigsIH/SmrX+ZFAgKiLrlp4VS/DUBqLmgvaFyTDdw0ePcS3RuB1FIZOdgvz0d4YunyQrZW5w9jQ7UFhAUaKtwLkk1RNAgaiIrFt6VoiIrC6NERURERGRVaFAVERERERWhQJREREREVkVCkRFREREZFUoEBURkadOev4i1tYEY3H3ItvamCLyWGnWvIisW3pWLN2GfS3szBzjVnPN4ndVSqtnV6mHmS5rq85HK25HEQUxX83Z9jI931iYHcB3vZ0uaxmquByKCp7lq3Zz0fpFKKlt4A1z25vpno/m7KkeqP/mItXvhNvJ3qa4loZD2URzl4sR9r1fDrXBoDYYVqwN1nJnsLhrLUAZURGRdaCiooJ3332XrKwsZ9XTJS4HT5qfG2GC0O9MBfdnDwSh2HYqyp9/ryOn6Z6PqK6unhOEwhH2Zk9wsbp6cX+kz5/kaHU1F79J5sUV2xJTbTCoDYYVbMPpOqqrq6n+7G5o+TIpEBURWQcKCwtJTEykoqKCgwcPOqtD7W4MbPMZ2HrT3F5zZ2YMzNmWM3Rr0LyqVnbtKwPKSDncSl6ph6jAFp+t5B2sMW9k1lvnHa5ng60ZJbUNNDXVc8RWtpC4zc+b23DaC3P4jqsf7/XIK8Qb21xuWmDbzSWYnmCpf6bvji+06f0SqQ0GtcHwJLQhDAWiIiLrSGJiIq+99hrvvvsuCQkJzmqghu35qcz2naK7uZzuZrM7faCOq83lXOubAga5Za8DfGeMf3c3l9PdNUhU5iFS0toYaimnu93LLDDRZdab+8Nv2HeIZFfwWt0tdcyENmaJ4khOhG/vOALOjc/i8kNyUeQ94OE+D/xuNi1qXOkCihOJdZYtwrnRCaLjzC7Ph6U2GNQGw5PQhggUiIqIrEOJiYm8+eabzmJggGk/RGVWklfVQspiAzMzY5pX1UpefqqzNqwZ31gwuxrIkgadO3mUauf4tGWI2+gC9/PgNbrlO8N2w48ztQLbbx853kTTH8PZ5WwVerqO6r5MmpoaqC12Vi6e2mBQGwxPQhvmo0BURERs7FnMGJJLwweJoWrYXuohavhCICO6KFdq6G4u59YwkLR/aYHvEoxP+sH3VWDv9vE73+J3xRA6UT6OGJefB5MhhUv2/jvVVP8aDjTUsuTRfRX1NGX2UV19lJPnnZWLpzYY1AbDk9CG+SgQFRFZh0ZGRnjvvfecxUEDdVxtPsVdP7AxKWTsZiSzkwPGuM+di8uIWnxnrOA1hmhzVjvLGiM6zt0ReH6zYy2myQf4beM/4zY/j8s/RWgH/nM86/IzFXkY6eKdH2HCUXTkeBMNtSXGa2qopaS4lgbHaytJiGV6fO4oPuN9WGJGSm0wqA2GFW7DSlIgKiKyznz88ce8/fbbjI6OOquM7GZg0lElya4p7nYEx27OfHqJiTmTlRoZ6Jsyu/Mrib5jjAkNGKhjaHjuZKUN+1qCE5XyU2H4wkMv7zR+51tI2x46BnT8Bh3XIafUGCNakPgtnY5Z9XE7voPbd2/Ryzc9TudGJ4BoYlOcNY+P2mBQG1ae1hEVkXVrPT0rKioqyMrK4vTp0/T29jqrnyqR1hGNaJnriB7gbJilmwCOUN+USd8Sx7ceOd7Ei+Nz1yQ11nRMp//DpXSPqg0GtcGwwm3A1m2/mOWg5qFAVETWLT0rnl7p+aVs+saxXmhYceQUecDbERhDuhiBxcEf8YL2R443sfeFaXqWFHQY1AaD2mBYqTas9IL2CkRFZN3Ss0JEZHVpjKiIiIiIrAoFoiIiIiKyKhSIioiIiMiqUCAqIiIiIqtCgaiIiDx10vNLyV/ULk1x5BQVkeNYA19EHg/NmheRdUvPikhq2F61nw19p7j6aZuz8okXbh3RuB1FFKS5jH/4boSuMbrMdUQfx/JND2PF2rDCy/WI2CkjKiKyDlRUVPDuu++SlZXlrHq6xOXgSfNzI2Qx+3S2J35LZ3s77e038LlzQrOl4zfwDrjIyQ/Zj2lB0z0fUV1dPScIhSPszZ7gYnX14oK28yc5Wl3NxW+SebF2ybuBR7CCbThdR3V1NdWfPdqtHmV9UiAqIrIOFBYWkpiYSEVFBQcPHnRWB7gPtpJXtZ9YMLfsbCXvcD0b0urZFdjS03bs4Xo2UEbK4VZ2HWxkl7Vlp7mNJwC7G4NbeVY1EtxO3jgvUHe4PmRPe2NP7aXsNW/sI8/Al47MZj9dHTfMveX7uecLqQRg/PpX+Gz70T+06QmWGrbdHZ92Fj2cJ6ENIgtQICoiso4kJiby2muv8e6775KQkOCsxnemnO7mC0wAs32n6G4up7uljpmB3+PzQ+wWM8BMqyclCSauBfehj0qKx9deTne7l9mk/UbQmlbPrvx47raX091czq3hVLaaAeeGfYdIdg1yq9mo624JXmt54khOhG/vzLdFUjqb3H4eTDrL7/PA72bTosaVLqA4kVhn2SKcG50gOs7sAn9YT0IbRBZBgaiIyDqUmJjIm2++6SyeRxtD1wYhKRs3sGFbJlEMMnrFdsjwJYYGgIFhZoAN7jLzuBiSS42s59ak4OEzvjEgla3ODKrp3MmjVDvHKz6UOHKKcnANeMNs5znOlN9ZtnRHjjfR9Mdw9uhJnB32CzpdR3VfJk1NDdQWOysX70log8hiKRAVEZHFudLDBKkk7C4jYXMMs33nCdPLHYYt62nPfF6pMbOkQNJ+8qpaSFmJjGRYceQUFZDuv0HH9TlRKBBHjCtcpnRp3n+nmupfw4GGWpY82rOinqbMPqqrl76PuN2T0AaRxVIgKiKyDo2MjPDee+85ixfQyEDfFLH5lSS7BhmKMKN+w76XiWUK3822QNYzZV+Z87AA35lyursGgRiigwNIlzFGdJy7I/D85rlrMaXnG0FoyGz5EM/xrMvPVLgYdanOjzDhKDpyvImG2hLjNTXUUlJcS4PjtZUkxDI9PndUp/E+LDFDucJtEHlUFIiKiKwzH3/8MW+//Tajo6POKpMRcIZMVjJrZm72MQsw3DM3G5q0n7yqVnZmxjDRddjopr9SwzX7tWzd8Bv2tQTL8lNh+AJf2rv6l2H8zreQtj100lFaPjluwJ1DaWmp8VWUgz1cjdvxHdy+e4tevulxOjc6AUQTm+KsEVn7tI6oiKxb6+lZUVFRQVZWFqdPn6a3t9dZvXi7G8nLj+duuxlogjn7vZLkyQt0n2kMPX4VhFtHdF7LXEf0AGfDLN0EcIT6pkz6lji+9cjxJl4cn7smqbHGZzr9Hy6lu3yF24Ct234xy0GJLJIyoiIi68Dp06d5++23lx+Emss3zQ1Cnzzj1zu4gWOt0IjiyPE8z7ediw9CLdHZb9DUZHR3h3qfiz2x7G1qoun4IgYWFNfS0NTE3hfu8rkjADxyvImmJQehrGgbqKinqakpuKi9yApSRlRE1i09K0REVpcyoiIiIiKyKhSIioiIiMiqUCAqIiIiIqtCgaiIiIiIrAoFoiIisjKsmfVhtusUEQlHgaiIiKwK98HQxfJD1bC9qpVd8+zItFRbd3zC6y8ZX3s3OWvD2PSLwPGv7/kZtk2fRGSFKBAVEZGVMVDH1ebyJ2JRe6etOz5hm7+ZX/3uVX71u1e5eM95hMOzP6MkA66Yx/92PJO8jB84jxKRh6R1REVk3dKzYq6Uw62475ziamAfeWPXJKvMfbCVrUlm1XBwJ6VI5XPqAJjibvth/Hta2bpxkAlSiXUBfi/XWuqInnN8sG4GzF2D9hLbE2EHIKdnf0bJduj+4qdztyWNZNMveD3hOr+6/lfGv5dzDRFZkDKiIiKyoBlfGxv2tbB1o5drzeV0N19gIml/oOvcd8Ysc564u5GtSVPcbQ/WB/ahB3ClwrVyutu9zLo8pO0OvdZs3ym6m8vpDgShyxDjJmYW0vZYXfO/YKvzmHCiXgh0x29N302Mo1pEHp4CURERCfBPQtTGNGNP+apG3KQR7Zpi2ldGwuYYcHnYWdVKXtV+Yp0nRzSGP9KWoH4vA1echQt5n7rq6sVlQwF3dDw8lwlfmt3s9+LZveMnzsNC3fsRV2Z384o5RnSz/wpTzmNE5KEpEBURkYDpSSPccm+JZ2I4noTdhAaSwxeMDKX5FezCj+BKDxOkstUKXpcVeD4c3/QY3P+MKw/Mf3/bx5Qt2xnJretG4Pqr373KxWk3MbPfqFteZIUpEBURkYAZ3xhsfJmUjX0MfD1G7M6X2eD3MU0b/kkg6WVS0pxnRbZh38vE+q3u/IfsYg84Qn1TEw21Jc6K8KZ8TD23I9Ad734+0xFU/oS9L33C6xGzpD9hb0Y8t/rN8aIismIUiIqISJDPx6wrhqjJYWau9DDhiiHKqjpzirv+GJJLW8mrMr6278ac0GTrrk/aH6ib+fQSE4HufPNrUeuMNjLQN0VUZqVxTsRlnhbhwU85dxt2m93sr8T18VtrElJEP2B3YExpIZPX3ghkVEVk5WjWvIisW3pWPHrug63GBCczE7phXws7M8e41Vyjbm4RUUZUREQeHd/Xg7YJTq3szIxhoktBqIgY/v+bYi7KLmnXBgAAAABJRU5ErkJggg==;" vertex="1" parent="1">
          <mxGeometry x="-1593.8100000000002" y="880" width="461.89" height="196" as="geometry" />
        </mxCell>
        <mxCell id="m28JvNQTBr0kOilScQr_-2" style="edgeStyle=orthogonalEdgeStyle;rounded=0;orthogonalLoop=1;jettySize=auto;html=1;exitX=0.5;exitY=1;exitDx=0;exitDy=0;entryX=0.5;entryY=0;entryDx=0;entryDy=0;entryPerimeter=0;" edge="1" parent="1" source="Ck-phii_mFnEi6swG2RC-4" target="dkuEHb9_eLDDzL9_QjhF-26">
          <mxGeometry relative="1" as="geometry" />
        </mxCell>
        <mxCell id="m28JvNQTBr0kOilScQr_-3" style="edgeStyle=orthogonalEdgeStyle;rounded=0;orthogonalLoop=1;jettySize=auto;html=1;exitX=0.5;exitY=1;exitDx=0;exitDy=0;entryX=0.5;entryY=0;entryDx=0;entryDy=0;entryPerimeter=0;" edge="1" parent="1" source="Ck-phii_mFnEi6swG2RC-5" target="dkuEHb9_eLDDzL9_QjhF-26">
          <mxGeometry relative="1" as="geometry" />
        </mxCell>
        <mxCell id="m28JvNQTBr0kOilScQr_-15" value="UTILS" style="html=1;whiteSpace=wrap;fillColor=#f8cecc;strokeColor=#b85450;" vertex="1" parent="1">
          <mxGeometry x="-1422.86" y="100" width="120" height="50" as="geometry" />
        </mxCell>
        <mxCell id="m28JvNQTBr0kOilScQr_-16" value="JS" style="html=1;whiteSpace=wrap;fillColor=#fff2cc;strokeColor=#d6b656;" vertex="1" parent="1">
          <mxGeometry x="-1422.86" y="170" width="120" height="50" as="geometry" />
        </mxCell>
        <mxCell id="m28JvNQTBr0kOilScQr_-17" value="HTML" style="html=1;whiteSpace=wrap;fillColor=#ffe6cc;strokeColor=#d79b00;" vertex="1" parent="1">
          <mxGeometry x="-1422.86" y="240" width="120" height="50" as="geometry" />
        </mxCell>
        <mxCell id="m28JvNQTBr0kOilScQr_-18" value="ALMACENAMIENTO LOCAL" style="html=1;whiteSpace=wrap;fillColor=#d5e8d4;strokeColor=#82b366;" vertex="1" parent="1">
          <mxGeometry x="-1422.86" y="380" width="120" height="50" as="geometry" />
        </mxCell>
        <mxCell id="m28JvNQTBr0kOilScQr_-19" value="MODELS" style="html=1;whiteSpace=wrap;fillColor=#dae8fc;strokeColor=#6c8ebf;" vertex="1" parent="1">
          <mxGeometry x="-1422.86" y="310" width="120" height="50" as="geometry" />
        </mxCell>
      </root>
    </mxGraphModel>
  </diagram>
</mxfile>
